<?xml version="1.0" encoding="utf-8"?>
<!-- Generator: Adobe Illustrator 27.5.0, SVG Export Plug-In . SVG Version: 6.00 Build 0)  -->
<svg version="1.1" xmlns="http://www.w3.org/2000/svg" xmlns:xlink="http://www.w3.org/1999/xlink" x="0px" y="0px"
	 viewBox="0 0 750 500" style="enable-background:new 0 0 750 500;" xml:space="preserve">
<g id="BACKGROUND">
	<rect style="fill:#FFFFFF;" width="750" height="500"/>
</g>
<g id="OBJECTS">
	<g>
		<g>
			<g>
				
					<ellipse transform="matrix(0.9239 -0.3827 0.3827 0.9239 -45.6057 67.382)" style="fill:#E5F2FF;" cx="146.573" cy="148.329" rx="33.101" ry="33.101"/>
				<circle style="fill:none;stroke:#B6D5FC;stroke-miterlimit:10;" cx="146.573" cy="148.329" r="27.969"/>
				<g>
					<g>
						<g>
							<g>
								<path style="fill:#B6D5FC;" d="M147.639,124.524c0,0.588-0.477,1.066-1.066,1.066c-0.589,0-1.066-0.477-1.066-1.066
									c0-0.589,0.477-1.066,1.066-1.066C147.162,123.459,147.639,123.936,147.639,124.524z"/>
							</g>
							<g>
								<path style="fill:#B6D5FC;" d="M147.639,172.133c0,0.588-0.477,1.066-1.066,1.066c-0.589,0-1.066-0.477-1.066-1.066
									c0-0.589,0.477-1.066,1.066-1.066C147.162,171.068,147.639,171.545,147.639,172.133z"/>
							</g>
						</g>
						<g>
							<g>
								<path style="fill:#B6D5FC;" d="M170.378,149.394c-0.588,0-1.066-0.477-1.066-1.066c0-0.589,0.477-1.066,1.066-1.066
									c0.589,0,1.066,0.477,1.066,1.066C171.443,148.917,170.966,149.394,170.378,149.394z"/>
							</g>
							<g>
								<path style="fill:#B6D5FC;" d="M122.769,149.394c-0.589,0-1.066-0.477-1.066-1.066c0-0.589,0.477-1.066,1.066-1.066
									c0.589,0,1.066,0.477,1.066,1.066C123.834,148.917,123.357,149.394,122.769,149.394z"/>
							</g>
						</g>
						<g>
							<g>
								<path style="fill:#B6D5FC;" d="M135.204,129.251c-0.213,0-0.419-0.11-0.533-0.307l-1.065-1.846
									c-0.17-0.294-0.069-0.669,0.225-0.839c0.295-0.17,0.669-0.069,0.839,0.225l1.065,1.846c0.169,0.294,0.069,0.669-0.225,0.839
									C135.414,129.224,135.308,129.251,135.204,129.251z"/>
							</g>
							<g>
								<path style="fill:#B6D5FC;" d="M159.009,170.481c-0.213,0-0.419-0.11-0.533-0.307l-1.065-1.846
									c-0.169-0.294-0.069-0.669,0.225-0.839c0.295-0.17,0.669-0.069,0.839,0.225l1.065,1.846c0.17,0.293,0.069,0.669-0.225,0.839
									C159.218,170.454,159.113,170.481,159.009,170.481z"/>
							</g>
						</g>
						<g>
							<g>
								<path style="fill:#B6D5FC;" d="M126.88,137.574c-0.104,0-0.21-0.026-0.307-0.082l-1.846-1.066
									c-0.294-0.17-0.394-0.545-0.225-0.839s0.546-0.394,0.839-0.225l1.846,1.066c0.294,0.169,0.394,0.545,0.225,0.839
									C127.299,137.464,127.092,137.574,126.88,137.574z"/>
							</g>
							<g>
								<path style="fill:#B6D5FC;" d="M168.111,161.378c-0.104,0-0.209-0.026-0.306-0.083l-1.846-1.065
									c-0.294-0.17-0.394-0.545-0.225-0.839c0.169-0.294,0.545-0.395,0.839-0.225l1.846,1.066c0.294,0.17,0.394,0.545,0.225,0.839
									C168.53,161.268,168.324,161.378,168.111,161.378z"/>
							</g>
						</g>
						<g>
							<g>
								<path style="fill:#B6D5FC;" d="M166.266,137.574c-0.213,0-0.419-0.11-0.533-0.307c-0.17-0.294-0.069-0.669,0.225-0.839
									l1.846-1.066c0.295-0.17,0.67-0.069,0.839,0.225c0.169,0.294,0.069,0.669-0.225,0.839l-1.846,1.066
									C166.476,137.547,166.37,137.574,166.266,137.574z"/>
							</g>
							<g>
								<path style="fill:#B6D5FC;" d="M125.035,161.378c-0.212,0-0.419-0.11-0.532-0.307c-0.17-0.294-0.069-0.669,0.225-0.839
									l1.846-1.066c0.293-0.169,0.669-0.07,0.839,0.225c0.17,0.294,0.069,0.669-0.225,0.839l-1.846,1.065
									C125.245,161.352,125.14,161.378,125.035,161.378z"/>
							</g>
						</g>
						<g>
							<g>
								<path style="fill:#B6D5FC;" d="M157.942,129.251c-0.104,0-0.209-0.026-0.306-0.082c-0.294-0.17-0.394-0.545-0.225-0.839
									l1.065-1.846c0.169-0.294,0.544-0.395,0.839-0.225c0.293,0.17,0.394,0.545,0.225,0.839l-1.065,1.846
									C158.361,129.141,158.155,129.251,157.942,129.251z"/>
							</g>
							<g>
								<path style="fill:#B6D5FC;" d="M134.138,170.481c-0.104,0-0.21-0.026-0.306-0.082c-0.294-0.17-0.394-0.546-0.225-0.839
									l1.065-1.846c0.169-0.294,0.545-0.395,0.839-0.225c0.293,0.169,0.394,0.545,0.225,0.839l-1.065,1.846
									C134.556,170.371,134.35,170.481,134.138,170.481z"/>
							</g>
						</g>
					</g>
				</g>
				<g>
					<g>
						<path style="fill:#B6D5FC;" d="M145.538,146.783l14.544-9.016l-12.459,11.73c-0.691,0.651-1.78,0.618-2.431-0.073
							c-0.651-0.691-0.618-1.78,0.073-2.431C145.348,146.914,145.445,146.841,145.538,146.783z"/>
						<path style="fill:#B6D5FC;" d="M145.221,149.004l-10.618-21.6l13.574,19.876c0.534,0.782,0.333,1.85-0.449,2.384
							c-0.783,0.534-1.85,0.333-2.384-0.449C145.3,149.149,145.256,149.073,145.221,149.004z"/>
					</g>
				</g>
			</g>
			<path style="fill:#E5F2FF;" d="M297.539,90.298l-13.068-0.771c-0.237-4.369-1.073-8.625-2.43-12.678l11.879-5.536
				c-3.287-9.077-8.676-17.278-15.702-23.898l-9.797,8.705c-3.18-2.854-6.755-5.311-10.671-7.263l4.48-12.3
				c-4.272-2.002-8.835-3.555-13.658-4.553c-4.822-0.998-9.626-1.384-14.343-1.243l-0.771,13.068
				c-4.369,0.237-8.625,1.073-12.678,2.43l-5.536-11.879c-9.077,3.287-17.278,8.676-23.898,15.702l8.706,9.797
				c-2.854,3.181-5.311,6.755-7.263,10.671l-12.3-4.48c-2.002,4.272-3.554,8.835-4.553,13.657
				c-0.998,4.822-1.384,9.627-1.243,14.343l13.068,0.771c0.237,4.369,1.073,8.625,2.43,12.678l-11.879,5.536
				c3.287,9.077,8.676,17.278,15.702,23.899l9.797-8.706c3.181,2.854,6.756,5.311,10.671,7.263l-4.48,12.3
				c4.273,2.002,8.835,3.554,13.658,4.553c4.822,0.998,9.627,1.384,14.343,1.243l0.77-13.068c4.369-0.237,8.626-1.073,12.678-2.43
				l5.536,11.879c9.077-3.287,17.278-8.675,23.898-15.702l-8.706-9.797c2.854-3.181,5.311-6.756,7.263-10.671l12.3,4.48
				c2.002-4.273,3.554-8.835,4.553-13.658C297.294,99.818,297.68,95.014,297.539,90.298z M265.116,98.186
				c-3.315,16.016-18.986,26.312-35.001,22.996c-16.016-3.315-26.312-18.986-22.996-35.001
				c3.315-16.016,18.986-26.311,35.001-22.996C258.135,66.5,268.431,82.171,265.116,98.186z"/>
			<path style="fill:#E5F2FF;" d="M661.424,158.657c0.026-1.194-0.082-2.409-0.345-3.628c-0.263-1.218-0.666-2.37-1.181-3.447
				l-3.104,1.16c-0.502-0.987-1.132-1.887-1.861-2.686l2.183-2.498c-1.69-1.764-3.778-3.111-6.082-3.924l-1.376,3.019
				c-1.029-0.335-2.108-0.538-3.214-0.588l-0.223-3.306c-1.194-0.026-2.409,0.082-3.628,0.345c-1.219,0.263-2.37,0.665-3.447,1.181
				l1.16,3.104c-0.987,0.502-1.887,1.132-2.686,1.861l-2.498-2.183c-1.764,1.69-3.111,3.778-3.924,6.082l3.018,1.376
				c-0.335,1.029-0.538,2.108-0.588,3.214l-3.306,0.223c-0.026,1.194,0.082,2.409,0.345,3.628c0.263,1.218,0.665,2.37,1.181,3.447
				l3.104-1.16c0.502,0.987,1.132,1.887,1.861,2.686l-2.183,2.498c1.69,1.764,3.778,3.111,6.082,3.924l1.376-3.018
				c1.029,0.335,2.108,0.538,3.214,0.588l0.223,3.306c1.194,0.026,2.409-0.082,3.628-0.345c1.219-0.263,2.37-0.665,3.447-1.181
				l-1.16-3.104c0.987-0.502,1.887-1.132,2.686-1.861l2.498,2.183c1.764-1.691,3.111-3.778,3.924-6.082l-3.018-1.376
				c0.335-1.029,0.538-2.108,0.588-3.214L661.424,158.657z M647.454,165.636c-4.047,0.873-8.035-1.7-8.908-5.747
				c-0.873-4.047,1.7-8.035,5.747-8.908c4.047-0.873,8.035,1.7,8.908,5.747C654.074,160.775,651.501,164.764,647.454,165.636z"/>
			<path style="fill:#E5F2FF;" d="M556.948,103.039c0.042-1.957-0.135-3.949-0.565-5.947c-0.431-1.997-1.091-3.885-1.936-5.651
				l-5.088,1.901c-0.823-1.618-1.855-3.093-3.05-4.403l3.578-4.095c-2.771-2.892-6.193-5.1-9.97-6.432l-2.256,4.948
				c-1.686-0.549-3.455-0.881-5.269-0.965l-0.365-5.419c-1.957-0.042-3.949,0.134-5.947,0.565c-1.997,0.431-3.885,1.091-5.651,1.936
				l1.901,5.088c-1.618,0.823-3.093,1.855-4.403,3.05l-4.095-3.578c-2.892,2.771-5.1,6.193-6.432,9.97l4.948,2.256
				c-0.549,1.686-0.881,3.455-0.965,5.269l-5.419,0.365c-0.042,1.957,0.135,3.949,0.565,5.947c0.431,1.997,1.091,3.885,1.936,5.651
				l5.088-1.901c0.823,1.618,1.855,3.093,3.05,4.403l-3.578,4.095c2.771,2.892,6.193,5.1,9.97,6.432l2.256-4.948
				c1.686,0.549,3.455,0.881,5.269,0.964l0.365,5.419c1.957,0.042,3.949-0.135,5.947-0.565c1.997-0.431,3.885-1.091,5.651-1.936
				l-1.901-5.088c1.618-0.824,3.093-1.855,4.403-3.05l4.095,3.578c2.892-2.771,5.1-6.193,6.432-9.97l-4.948-2.256
				c0.549-1.686,0.881-3.455,0.964-5.268L556.948,103.039z M534.047,114.48c-6.634,1.431-13.171-2.787-14.602-9.421
				c-1.431-6.634,2.787-13.171,9.421-14.602c6.634-1.431,13.171,2.787,14.602,9.42C544.898,106.512,540.68,113.049,534.047,114.48z
				 M532.933,109.314c-3.78,0.815-7.506-1.588-8.322-5.369c-0.815-3.78,1.588-7.506,5.369-8.321
				c3.781-0.815,7.506,1.588,8.321,5.369C539.117,104.773,536.713,108.499,532.933,109.314z"/>
			<g>
				<circle style="fill:#E5F2FF;" cx="578.397" cy="159.471" r="40.924"/>
				
					<ellipse transform="matrix(0.9682 -0.2502 0.2502 0.9682 -21.503 149.7707)" style="fill:none;stroke:#B6D5FC;stroke-miterlimit:10;" cx="578.397" cy="159.471" rx="34.579" ry="34.579"/>
				<g>
					<g>
						<g>
							<g>
								<path style="fill:#B6D5FC;" d="M579.714,130.041c0,0.727-0.59,1.317-1.318,1.317c-0.728,0-1.318-0.59-1.318-1.317
									c0-0.728,0.59-1.318,1.318-1.318C579.125,128.723,579.714,129.313,579.714,130.041z"/>
							</g>
							<g>
								<path style="fill:#B6D5FC;" d="M579.714,188.901c0,0.728-0.59,1.317-1.318,1.317c-0.728,0-1.318-0.59-1.318-1.317
									c0-0.728,0.59-1.318,1.318-1.318C579.125,187.584,579.714,188.174,579.714,188.901z"/>
							</g>
						</g>
						<g>
							<g>
								<path style="fill:#B6D5FC;" d="M607.827,160.788c-0.728,0-1.318-0.59-1.318-1.317c0-0.728,0.59-1.318,1.318-1.318
									s1.318,0.59,1.318,1.318C609.145,160.199,608.555,160.788,607.827,160.788z"/>
							</g>
							<g>
								<path style="fill:#B6D5FC;" d="M548.967,160.788c-0.728,0-1.318-0.59-1.318-1.317c0-0.728,0.59-1.318,1.318-1.318
									c0.728,0,1.318,0.59,1.318,1.318C550.284,160.199,549.694,160.788,548.967,160.788z"/>
							</g>
						</g>
						<g>
							<g>
								<path style="fill:#B6D5FC;" d="M564.341,135.884c-0.263,0-0.518-0.136-0.658-0.38l-1.317-2.282
									c-0.21-0.363-0.085-0.828,0.278-1.037c0.365-0.211,0.828-0.086,1.037,0.278l1.317,2.282c0.21,0.363,0.085,0.828-0.278,1.037
									C564.6,135.852,564.47,135.884,564.341,135.884z"/>
							</g>
							<g>
								<path style="fill:#B6D5FC;" d="M593.771,186.858c-0.263,0-0.518-0.136-0.658-0.38l-1.317-2.282
									c-0.21-0.363-0.085-0.827,0.278-1.037c0.365-0.211,0.828-0.085,1.037,0.278l1.317,2.282c0.21,0.363,0.085,0.828-0.278,1.037
									C594.031,186.826,593.9,186.858,593.771,186.858z"/>
							</g>
						</g>
						<g>
							<g>
								<path style="fill:#B6D5FC;" d="M554.05,146.174c-0.129,0-0.26-0.033-0.379-0.102l-2.282-1.317
									c-0.363-0.21-0.487-0.674-0.278-1.037s0.675-0.487,1.037-0.278l2.282,1.317c0.363,0.21,0.487,0.674,0.278,1.037
									C554.568,146.038,554.312,146.174,554.05,146.174z"/>
							</g>
							<g>
								<path style="fill:#B6D5FC;" d="M605.025,175.604c-0.128,0-0.259-0.033-0.379-0.102l-2.283-1.317
									c-0.363-0.21-0.487-0.674-0.278-1.037c0.209-0.363,0.673-0.488,1.037-0.278l2.283,1.317c0.363,0.21,0.487,0.674,0.278,1.037
									C605.543,175.468,605.288,175.604,605.025,175.604z"/>
							</g>
						</g>
						<g>
							<g>
								<path style="fill:#B6D5FC;" d="M602.744,146.174c-0.263,0-0.518-0.136-0.658-0.38c-0.21-0.363-0.085-0.827,0.278-1.037
									l2.283-1.317c0.365-0.211,0.829-0.085,1.037,0.278c0.21,0.363,0.085,0.828-0.278,1.037l-2.283,1.317
									C603.003,146.141,602.872,146.174,602.744,146.174z"/>
							</g>
							<g>
								<path style="fill:#B6D5FC;" d="M551.769,175.604c-0.262,0-0.518-0.136-0.658-0.38c-0.21-0.363-0.086-0.828,0.278-1.037
									l2.282-1.317c0.363-0.209,0.828-0.086,1.037,0.278c0.21,0.363,0.086,0.828-0.278,1.037l-2.282,1.317
									C552.029,175.572,551.898,175.604,551.769,175.604z"/>
							</g>
						</g>
						<g>
							<g>
								<path style="fill:#B6D5FC;" d="M592.453,135.884c-0.129,0-0.259-0.033-0.379-0.102c-0.363-0.21-0.487-0.674-0.278-1.037
									l1.317-2.282c0.209-0.363,0.673-0.488,1.037-0.278c0.363,0.21,0.487,0.674,0.278,1.037l-1.317,2.282
									C592.971,135.748,592.716,135.884,592.453,135.884z"/>
							</g>
							<g>
								<path style="fill:#B6D5FC;" d="M563.022,186.858c-0.129,0-0.259-0.033-0.379-0.102c-0.363-0.21-0.487-0.674-0.278-1.037
									l1.317-2.282c0.209-0.363,0.673-0.488,1.037-0.278c0.363,0.21,0.487,0.674,0.278,1.037l-1.317,2.282
									C563.54,186.722,563.285,186.858,563.022,186.858z"/>
							</g>
						</g>
					</g>
				</g>
				<g>
					<g>
						<path style="fill:#B6D5FC;" d="M577.245,160.818l-17.075-12.491l19.219,8.844c1.067,0.491,1.533,1.753,1.043,2.82
							c-0.491,1.067-1.754,1.533-2.82,1.043C577.483,160.975,577.355,160.898,577.245,160.818z"/>
						<path style="fill:#B6D5FC;" d="M580.106,160.568l-19.837,22.181l16.491-24.77c0.649-0.975,1.966-1.239,2.941-0.59
							c0.975,0.649,1.239,1.966,0.59,2.941C580.236,160.411,580.169,160.497,580.106,160.568z"/>
					</g>
				</g>
			</g>
			<g>
				<path style="fill:none;stroke:#B6D5FC;stroke-width:1.3;stroke-linecap:round;stroke-linejoin:round;stroke-miterlimit:10;" d="
					M146.397,197.876c0,1.352-1.096,2.449-2.449,2.449c-1.352,0-2.448-1.096-2.448-2.449c0-1.352,1.096-2.448,2.448-2.448
					C145.301,195.427,146.397,196.523,146.397,197.876z"/>
				<path style="fill:none;stroke:#B6D5FC;stroke-width:1.3;stroke-linecap:round;stroke-linejoin:round;stroke-miterlimit:10;" d="
					M326.193,122.679c0,1.352-1.096,2.449-2.449,2.449s-2.448-1.096-2.448-2.449s1.096-2.449,2.448-2.449
					S326.193,121.327,326.193,122.679z"/>
				<path style="fill:none;stroke:#B6D5FC;stroke-width:1.3;stroke-linecap:round;stroke-linejoin:round;stroke-miterlimit:10;" d="
					M479.764,104.448c0,1.352-1.096,2.449-2.449,2.449c-1.352,0-2.448-1.096-2.448-2.449c0-1.352,1.096-2.448,2.448-2.448
					C478.668,102,479.764,103.096,479.764,104.448z"/>
				<path style="fill:none;stroke:#B6D5FC;stroke-width:1.3;stroke-linecap:round;stroke-linejoin:round;stroke-miterlimit:10;" d="
					M605.875,94.366c0,1.352-1.096,2.449-2.449,2.449s-2.448-1.096-2.448-2.449c0-1.352,1.096-2.448,2.448-2.448
					S605.875,93.014,605.875,94.366z"/>
				<path style="fill:none;stroke:#B6D5FC;stroke-width:1.3;stroke-linecap:round;stroke-linejoin:round;stroke-miterlimit:10;" d="
					M634.298,199.167c0,1.352-1.096,2.449-2.449,2.449s-2.448-1.096-2.448-2.449c0-1.352,1.096-2.449,2.448-2.449
					S634.298,197.814,634.298,199.167z"/>
				<g>
					
						<line style="fill:none;stroke:#B6D5FC;stroke-width:1.3;stroke-linecap:round;stroke-linejoin:round;stroke-miterlimit:10;" x1="346.09" y1="145.32" x2="346.09" y2="150.353"/>
					
						<line style="fill:none;stroke:#B6D5FC;stroke-width:1.3;stroke-linecap:round;stroke-linejoin:round;stroke-miterlimit:10;" x1="348.607" y1="147.837" x2="343.573" y2="147.837"/>
				</g>
				<g>
					
						<line style="fill:none;stroke:#B6D5FC;stroke-width:1.3;stroke-linecap:round;stroke-linejoin:round;stroke-miterlimit:10;" x1="504.863" y1="150.384" x2="504.863" y2="155.417"/>
					
						<line style="fill:none;stroke:#B6D5FC;stroke-width:1.3;stroke-linecap:round;stroke-linejoin:round;stroke-miterlimit:10;" x1="507.379" y1="152.9" x2="502.346" y2="152.9"/>
				</g>
				<g>
					
						<line style="fill:none;stroke:#B6D5FC;stroke-width:1.3;stroke-linecap:round;stroke-linejoin:round;stroke-miterlimit:10;" x1="624.281" y1="108.138" x2="624.281" y2="113.171"/>
					
						<line style="fill:none;stroke:#B6D5FC;stroke-width:1.3;stroke-linecap:round;stroke-linejoin:round;stroke-miterlimit:10;" x1="626.798" y1="110.654" x2="621.765" y2="110.654"/>
				</g>
				<g>
					
						<line style="fill:none;stroke:#B6D5FC;stroke-width:1.3;stroke-linecap:round;stroke-linejoin:round;stroke-miterlimit:10;" x1="552.909" y1="210.906" x2="552.909" y2="215.939"/>
					
						<line style="fill:none;stroke:#B6D5FC;stroke-width:1.3;stroke-linecap:round;stroke-linejoin:round;stroke-miterlimit:10;" x1="555.426" y1="213.422" x2="550.393" y2="213.422"/>
				</g>
				<g>
					
						<line style="fill:none;stroke:#B6D5FC;stroke-width:1.3;stroke-linecap:round;stroke-linejoin:round;stroke-miterlimit:10;" x1="235.493" y1="87.15" x2="235.493" y2="92.184"/>
					
						<line style="fill:none;stroke:#B6D5FC;stroke-width:1.3;stroke-linecap:round;stroke-linejoin:round;stroke-miterlimit:10;" x1="238.01" y1="89.667" x2="232.977" y2="89.667"/>
				</g>
				<g>
					
						<line style="fill:none;stroke:#B6D5FC;stroke-width:1.3;stroke-linecap:round;stroke-linejoin:round;stroke-miterlimit:10;" x1="96.635" y1="234.936" x2="96.635" y2="239.969"/>
					
						<line style="fill:none;stroke:#B6D5FC;stroke-width:1.3;stroke-linecap:round;stroke-linejoin:round;stroke-miterlimit:10;" x1="99.151" y1="237.453" x2="94.118" y2="237.453"/>
				</g>
			</g>
		</g>
		<g>
			<g>
				<path style="fill:none;stroke:#FFDEDE;stroke-miterlimit:10;" d="M153.874,333.784c-1.207-21.259-14.935-50.624-28.648-65.863
					c-12.504-13.896-19.885-26.738-18.635-38.527c1.313-12.379,13.667-21.873,25.845-15.665
					c19.751,10.069,25.408,28.384,30.129,46.391c4.721,18.007,3.555,52.519,5.871,74.034"/>
				<path style="fill:none;stroke:#FFDEDE;stroke-miterlimit:10;" d="M112.727,216.766c-0.566,14.819,41.117,50.426,43.961,113.206"
					/>
				<path style="fill:none;stroke:#FFDEDE;stroke-miterlimit:10;" d="M109.812,220.309c-1.315,26.657,40.049,58.733,45.32,115.368"
					/>
				<path style="fill:none;stroke:#FFDEDE;stroke-miterlimit:10;" d="M115.165,214.546c27.408,15.979,43.014,77.573,43.801,116.592"
					/>
				<path style="fill:none;stroke:#FFDEDE;stroke-miterlimit:10;" d="M118.628,212.997c13.431,2.988,49.809,24.195,45.229,119.573"
					/>
			</g>
			<g>
				<path style="fill:none;stroke:#FFDEDE;stroke-miterlimit:10;" d="M176.992,343.077c-3.709-15.337-2.335-50.25-6.044-65.587
					c-5.133-21.227-11.937-40.961-12.986-62.775c-0.31-6.448-0.196-13.19,2.723-18.947c2.919-5.757,9.415-10.175,15.705-8.724
					c4.144,0.956,7.391,4.177,9.874,7.63c9.067,12.609,10.577,29.038,10.665,44.568c0.147,26.162-2.791,66.059-5.789,92.049"/>
				<path style="fill:none;stroke:#FFDEDE;stroke-miterlimit:10;" d="M170.292,187.352c-4.787,6.01-14.367,11.787-0.609,75.737
					c9.683,45.013,8.972,74.172,8.972,74.172"/>
				<path style="fill:none;stroke:#FFDEDE;stroke-miterlimit:10;" d="M173.729,186.771c-3.386,4.599-4.886,18.093,2.733,56.863
					c6.072,30.898,1.585,68.263,3.761,94.759"/>
				<path style="fill:none;stroke:#FFDEDE;stroke-miterlimit:10;" d="M177.357,187.317c0,0,9.225,37.887,5.479,149.943"/>
				<path style="fill:none;stroke:#FFDEDE;stroke-miterlimit:10;" d="M187.14,332.914c0,0,14.11-98.08-2.721-140.567"/>
			</g>
			<g>
				<path style="fill:none;stroke:#FFDEDE;stroke-miterlimit:10;" d="M479.117,388.62C492,374.13,498.863,356.67,505.98,334.088
					c8.272-26.246,11.159-47.474,27.607-68.767c4.862-6.294,15.306-13.184,23.577-15.626c11.251-3.323,22.611-1.334,29.368,7.015
					c4.452,5.501,5.926,12.092,6.247,18.045c1.171,21.738-7.598,41.287-20.14,55.712c-21.128,24.3-45.639,45.402-73.817,62.93"/>
				<path style="fill:none;stroke:#FFDEDE;stroke-miterlimit:10;" d="M576.677,249.695c-16.107,2.098-35.466,11.421-56.283,71.501
					c-18.908,54.568-34.44,63.911-34.44,63.911"/>
				<path style="fill:none;stroke:#FFDEDE;stroke-miterlimit:10;" d="M581.238,251.977c-8.021,0.469-19.243,13.086-40.704,53.753
					c-15.745,29.835-34.684,55.299-53.523,82.17"/>
				<path style="fill:none;stroke:#FFDEDE;stroke-miterlimit:10;" d="M583.396,253.493c1.653,7.284-10.54,44.052-92.165,136.274"/>
				<path style="fill:none;stroke:#FFDEDE;stroke-miterlimit:10;" d="M494.626,391.951c0,0,95.892-64.575,94.754-130.86"/>
			</g>
			<g>
				<path style="fill:none;stroke:#FFDEDE;stroke-miterlimit:10;" d="M194.511,332.13c0-17.148-0.189-38.151,2.133-55.18
					c1.995-14.635,5.48-31.419,16.643-42.175c4.069-3.921,9.575-5.464,14.992-3.699c5.754,1.877,6.978,7.871,7.152,12.699
					c0.877,24.379-10.862,65.471-27.013,85.178"/>
				<path style="fill:none;stroke:#FFDEDE;stroke-miterlimit:10;" d="M196.931,333.094c2.569-27.985,5.819-82.125,24.447-102.535"/>
				<path style="fill:none;stroke:#FFDEDE;stroke-miterlimit:10;" d="M200.25,334.633c0,0,9.75-87.345,29.22-103.078"/>
				<path style="fill:none;stroke:#FFDEDE;stroke-miterlimit:10;" d="M204.386,332.08c0,0,26.364-62.836,28.007-98.27"/>
			</g>
			<g>
				<path style="fill:none;stroke:#FFDEDE;stroke-miterlimit:10;" d="M507.836,402.517c0,0,19.144-8.915,49.332-40.473
					c9.7-10.14,19.823-20.63,32.432-27.145c9.713-5.019,31.191-10.596,37.925,1.978c4.347,8.116-0.648,20.347-7.945,27.644
					c-24.258,24.258-61.325,40.991-98.182,47.388"/>
				<path style="fill:none;stroke:#FFDEDE;stroke-miterlimit:10;" d="M516.899,400.926c21.086-12.04,34.622-26.978,47.194-37.993
					c20.953-18.358,40.255-35.679,60.188-30.02"/>
				<path style="fill:none;stroke:#FFDEDE;stroke-miterlimit:10;" d="M516.731,406.792c17.077-4.443,38.605-15.267,58.819-29.618
					c24.582-17.453,39.625-37.406,52.658-38.759"/>
				<path style="fill:none;stroke:#FFDEDE;stroke-miterlimit:10;" d="M514.852,404.054c17.077-4.443,37.906-19.791,57.611-34.833
					c20.098-15.342,34.405-37.398,53.539-34.604"/>
				<path style="fill:none;stroke:#FFDEDE;stroke-miterlimit:10;" d="M519.217,409.664c0,0,89.987-28.28,109.885-67.091"/>
			</g>
			<path id="XMLID_615_" style="fill:#FFDEDE;" d="M141.931,325.72v15.414c0,61.119,21.519,78.504,21.519,78.504h47.38
				c0,0,21.519-17.386,21.519-78.504V325.72H141.931z"/>
		</g>
		<g>
			<g>
				<polygon style="fill:#395077;" points="249.585,419.275 554.594,419.275 527.509,188.77 222.499,188.77 				"/>
				<polygon style="fill:#E9F2FF;" points="500.415,419.638 195.406,419.638 222.491,188.77 527.501,188.77 				"/>
				<polygon style="fill:#B6D5FC;" points="524.372,215.441 219.362,215.441 222.491,188.77 527.501,188.77 				"/>
				
					<text transform="matrix(0.949 0 -0.1165 0.9932 245.273 242.4508)" style="fill:#9ABEF4; font-family:'BebasNeueBold'; font-size:11.5913px; letter-spacing:1.054;">Mon</text>
				
					<text transform="matrix(0.949 0 -0.1165 0.9932 284.5894 242.4508)" style="fill:#9ABEF4; font-family:'BebasNeueBold'; font-size:11.5913px; letter-spacing:1.054;">tue</text>
				
					<text transform="matrix(0.949 0 -0.1165 0.9932 321.3814 242.4508)" style="fill:#9ABEF4; font-family:'BebasNeueBold'; font-size:11.5913px; letter-spacing:1.054;">wed</text>
				
					<text transform="matrix(0.949 0 -0.1165 0.9932 360.2359 242.4508)" style="fill:#9ABEF4; font-family:'BebasNeueBold'; font-size:11.5913px; letter-spacing:1.054;">thu</text>
				
					<text transform="matrix(0.949 0 -0.1165 0.9932 399.5689 242.4508)" style="fill:#9ABEF4; font-family:'BebasNeueBold'; font-size:11.5913px; letter-spacing:1.054;">fri</text>
				
					<text transform="matrix(0.949 0 -0.1165 0.9932 436.4488 242.4508)" style="fill:#9ABEF4; font-family:'BebasNeueBold'; font-size:11.5913px; letter-spacing:1.054;">sat</text>
				
					<text transform="matrix(0.949 0 -0.1165 0.9932 474.0943 242.4508)" style="fill:#9ABEF4; font-family:'BebasNeueBold'; font-size:11.5913px; letter-spacing:1.054;">sun</text>
				<g>
					<path style="fill:#D9ECFF;stroke:#FFFFFF;stroke-miterlimit:10;" d="M262.719,276.924h-24.045c-1.186,0-2.03-1.007-1.884-2.248
						l2.952-25.164c0.146-1.242,1.226-2.248,2.412-2.248h24.045c1.186,0,2.03,1.007,1.884,2.248l-2.952,25.164
						C264.986,275.918,263.906,276.924,262.719,276.924z"/>
					<path style="fill:#D9ECFF;stroke:#FFFFFF;stroke-miterlimit:10;" d="M258.056,316.679h-24.045c-1.186,0-2.03-1.007-1.884-2.248
						l2.952-25.164c0.146-1.242,1.225-2.248,2.412-2.248h24.045c1.186,0,2.03,1.007,1.884,2.248l-2.952,25.164
						C260.322,315.672,259.242,316.679,258.056,316.679z"/>
					<path style="fill:none;stroke:#FFFFFF;stroke-miterlimit:10;" d="M253.391,356.434h-24.045c-1.186,0-2.03-1.007-1.884-2.248
						l2.952-25.164c0.146-1.242,1.226-2.248,2.412-2.248h24.045c1.186,0,2.03,1.007,1.884,2.248l-2.952,25.164
						C255.658,355.427,254.578,356.434,253.391,356.434z"/>
					<path style="fill:#D9ECFF;stroke:#FFFFFF;stroke-miterlimit:10;" d="M248.727,396.188h-24.045c-1.186,0-2.03-1.007-1.884-2.248
						l2.952-25.164c0.146-1.242,1.226-2.248,2.412-2.248h24.045c1.186,0,2.03,1.007,1.884,2.248l-2.952,25.164
						C250.994,395.182,249.914,396.188,248.727,396.188z"/>
				</g>
				<g>
					<path style="fill:none;stroke:#FFFFFF;stroke-miterlimit:10;" d="M300.705,276.924H276.66c-1.186,0-2.03-1.007-1.884-2.248
						l2.952-25.164c0.146-1.242,1.226-2.248,2.412-2.248h24.045c1.186,0,2.03,1.007,1.884,2.248l-2.952,25.164
						C302.971,275.918,301.891,276.924,300.705,276.924z"/>
					<path style="fill:none;stroke:#FFFFFF;stroke-miterlimit:10;" d="M296.041,316.679h-24.045c-1.186,0-2.03-1.007-1.884-2.248
						l2.952-25.164c0.146-1.242,1.225-2.248,2.412-2.248h24.045c1.186,0,2.03,1.007,1.884,2.248l-2.952,25.164
						C298.307,315.672,297.227,316.679,296.041,316.679z"/>
					<path style="fill:#C5DFFC;stroke:#FFFFFF;stroke-miterlimit:10;" d="M291.377,356.434h-24.045c-1.186,0-2.03-1.007-1.884-2.248
						l2.952-25.164c0.146-1.242,1.225-2.248,2.412-2.248h24.045c1.186,0,2.03,1.007,1.884,2.248l-2.952,25.164
						C293.643,355.427,292.563,356.434,291.377,356.434z"/>
					<path style="fill:#D9ECFF;stroke:#FFFFFF;stroke-miterlimit:10;" d="M286.713,396.188h-24.045c-1.186,0-2.03-1.007-1.884-2.248
						l2.952-25.164c0.146-1.242,1.226-2.248,2.412-2.248h24.045c1.186,0,2.03,1.007,1.884,2.248l-2.952,25.164
						C288.979,395.182,287.899,396.188,286.713,396.188z"/>
				</g>
				<g>
					<path style="fill:none;stroke:#FFFFFF;stroke-miterlimit:10;" d="M338.69,276.924h-24.045c-1.186,0-2.03-1.007-1.885-2.248
						l2.952-25.164c0.146-1.242,1.225-2.248,2.412-2.248h24.045c1.186,0,2.03,1.007,1.884,2.248l-2.952,25.164
						C340.957,275.918,339.877,276.924,338.69,276.924z"/>
					<path style="fill:none;stroke:#FFFFFF;stroke-miterlimit:10;" d="M334.026,316.679h-24.045c-1.186,0-2.03-1.007-1.884-2.248
						l2.952-25.164c0.146-1.242,1.226-2.248,2.412-2.248h24.045c1.186,0,2.03,1.007,1.884,2.248l-2.952,25.164
						C336.293,315.672,335.213,316.679,334.026,316.679z"/>
					<path style="fill:none;stroke:#FFFFFF;stroke-miterlimit:10;" d="M329.362,356.434h-24.045c-1.186,0-2.03-1.007-1.884-2.248
						l2.952-25.164c0.146-1.242,1.226-2.248,2.412-2.248h24.045c1.186,0,2.03,1.007,1.884,2.248l-2.952,25.164
						C331.629,355.427,330.549,356.434,329.362,356.434z"/>
					<path style="fill:none;stroke:#FFFFFF;stroke-miterlimit:10;" d="M324.698,396.188h-24.045c-1.186,0-2.03-1.007-1.885-2.248
						l2.952-25.164c0.146-1.242,1.225-2.248,2.412-2.248h24.045c1.186,0,2.03,1.007,1.884,2.248l-2.952,25.164
						C326.965,395.182,325.885,396.188,324.698,396.188z"/>
				</g>
				<g>
					<path style="fill:none;stroke:#FFFFFF;stroke-miterlimit:10;" d="M376.676,276.924h-24.045c-1.186,0-2.03-1.007-1.884-2.248
						l2.952-25.164c0.146-1.242,1.226-2.248,2.412-2.248h24.045c1.186,0,2.03,1.007,1.884,2.248l-2.952,25.164
						C378.942,275.918,377.862,276.924,376.676,276.924z"/>
					<path style="fill:#D9ECFF;stroke:#FFFFFF;stroke-miterlimit:10;" d="M372.012,316.679h-24.045c-1.187,0-2.03-1.007-1.885-2.248
						l2.952-25.164c0.146-1.242,1.225-2.248,2.412-2.248h24.045c1.186,0,2.03,1.007,1.884,2.248l-2.952,25.164
						C374.278,315.672,373.198,316.679,372.012,316.679z"/>
					<path style="fill:none;stroke:#FFFFFF;stroke-miterlimit:10;" d="M367.348,356.434h-24.045c-1.186,0-2.03-1.007-1.884-2.248
						l2.952-25.164c0.146-1.242,1.226-2.248,2.412-2.248h24.045c1.186,0,2.03,1.007,1.884,2.248l-2.952,25.164
						C369.614,355.427,368.534,356.434,367.348,356.434z"/>
					<path style="fill:#D9ECFF;stroke:#FFFFFF;stroke-miterlimit:10;" d="M362.684,396.188h-24.045c-1.186,0-2.03-1.007-1.884-2.248
						l2.952-25.164c0.146-1.242,1.226-2.248,2.412-2.248h24.045c1.186,0,2.03,1.007,1.884,2.248l-2.952,25.164
						C364.95,395.182,363.87,396.188,362.684,396.188z"/>
				</g>
				<g>
					<path style="fill:none;stroke:#FFFFFF;stroke-miterlimit:10;" d="M414.662,276.924h-24.045c-1.186,0-2.03-1.007-1.884-2.248
						l2.952-25.164c0.146-1.242,1.225-2.248,2.412-2.248h24.045c1.186,0,2.03,1.007,1.884,2.248l-2.952,25.164
						C416.928,275.918,415.848,276.924,414.662,276.924z"/>
					<path style="fill:none;stroke:#FFFFFF;stroke-miterlimit:10;" d="M409.998,316.679h-24.045c-1.186,0-2.03-1.007-1.884-2.248
						l2.952-25.164c0.146-1.242,1.226-2.248,2.412-2.248h24.045c1.186,0,2.03,1.007,1.884,2.248l-2.952,25.164
						C412.264,315.672,411.184,316.679,409.998,316.679z"/>
					<path style="fill:#C5DFFC;stroke:#FFFFFF;stroke-miterlimit:10;" d="M405.333,356.434h-24.045c-1.186,0-2.03-1.007-1.884-2.248
						l2.952-25.164c0.146-1.242,1.226-2.248,2.412-2.248h24.045c1.186,0,2.03,1.007,1.884,2.248l-2.952,25.164
						C407.6,355.427,406.52,356.434,405.333,356.434z"/>
					<path style="fill:#D9ECFF;stroke:#FFFFFF;stroke-miterlimit:10;" d="M400.669,396.188h-24.045c-1.186,0-2.03-1.007-1.884-2.248
						l2.952-25.164c0.146-1.242,1.225-2.248,2.412-2.248h24.045c1.186,0,2.03,1.007,1.884,2.248l-2.952,25.164
						C402.936,395.182,401.856,396.188,400.669,396.188z"/>
				</g>
				<g>
					<path style="fill:none;stroke:#FFFFFF;stroke-miterlimit:10;" d="M452.647,276.924h-24.045c-1.186,0-2.03-1.007-1.884-2.248
						l2.952-25.164c0.146-1.242,1.226-2.248,2.412-2.248h24.045c1.186,0,2.03,1.007,1.884,2.248l-2.952,25.164
						C454.913,275.918,453.833,276.924,452.647,276.924z"/>
					<path style="fill:none;stroke:#FFFFFF;stroke-miterlimit:10;" d="M447.983,316.679h-24.045c-1.186,0-2.03-1.007-1.884-2.248
						l2.952-25.164c0.146-1.242,1.225-2.248,2.412-2.248h24.045c1.186,0,2.03,1.007,1.884,2.248l-2.952,25.164
						C450.249,315.672,449.169,316.679,447.983,316.679z"/>
					<path style="fill:#D9ECFF;stroke:#FFFFFF;stroke-miterlimit:10;" d="M443.319,356.434h-24.045c-1.186,0-2.03-1.007-1.884-2.248
						l2.952-25.164c0.146-1.242,1.225-2.248,2.412-2.248h24.045c1.186,0,2.03,1.007,1.884,2.248l-2.952,25.164
						C445.585,355.427,444.505,356.434,443.319,356.434z"/>
					<path style="fill:#C5DFFC;stroke:#FFFFFF;stroke-miterlimit:10;" d="M438.655,396.188H414.61c-1.186,0-2.03-1.007-1.884-2.248
						l2.952-25.164c0.146-1.242,1.226-2.248,2.412-2.248h24.045c1.186,0,2.03,1.007,1.884,2.248l-2.952,25.164
						C440.921,395.182,439.841,396.188,438.655,396.188z"/>
				</g>
				<g>
					<path style="fill:#D9ECFF;stroke:#FFFFFF;stroke-miterlimit:10;" d="M490.633,276.924h-24.045c-1.186,0-2.03-1.007-1.885-2.248
						l2.952-25.164c0.146-1.242,1.225-2.248,2.412-2.248h24.045c1.186,0,2.03,1.007,1.884,2.248l-2.952,25.164
						C492.899,275.918,491.819,276.924,490.633,276.924z"/>
					<path style="fill:none;stroke:#FFFFFF;stroke-miterlimit:10;" d="M485.969,316.679h-24.045c-1.186,0-2.03-1.007-1.884-2.248
						l2.952-25.164c0.146-1.242,1.226-2.248,2.412-2.248h24.045c1.186,0,2.03,1.007,1.884,2.248l-2.952,25.164
						C488.235,315.672,487.155,316.679,485.969,316.679z"/>
					<path style="fill:none;stroke:#FFFFFF;stroke-miterlimit:10;" d="M481.305,356.434H457.26c-1.186,0-2.03-1.007-1.884-2.248
						l2.952-25.164c0.146-1.242,1.225-2.248,2.412-2.248h24.045c1.186,0,2.03,1.007,1.884,2.248l-2.952,25.164
						C483.571,355.427,482.491,356.434,481.305,356.434z"/>
					<path style="fill:none;stroke:#FFFFFF;stroke-miterlimit:10;" d="M476.641,396.188h-24.045c-1.186,0-2.03-1.007-1.884-2.248
						l2.952-25.164c0.146-1.242,1.225-2.248,2.412-2.248h24.045c1.186,0,2.03,1.007,1.884,2.248l-2.952,25.164
						C478.907,395.182,477.827,396.188,476.641,396.188z"/>
				</g>
				<g>
					<g>
						<g>
							<path style="fill:#2C79E8;" d="M255.503,201.394c-0.207,2.084-1.742,3.773-3.428,3.773s-2.885-1.689-2.678-3.773
								s1.742-3.773,3.428-3.773C254.511,197.621,255.71,199.31,255.503,201.394z"/>
							<g>
								<path style="fill:#395077;" d="M255.503,201.394c0.039-0.393,0.014-0.765-0.041-1.122c-0.624-0.035-1.178-0.352-1.686-0.991
									c-1.403-1.763-1.973-5.167-1.485-8.884c0.789-6.013,4.095-10.506,6.525-10.506c0.66,0,1.264,0.338,1.794,1.004
									c1.253,1.575,1.836,4.563,1.571,7.875h4.004c0.288-4.415-0.622-8.305-2.553-10.732c-1.305-1.64-2.97-2.507-4.816-2.507
									c-4.831,0-9.436,6.259-10.485,14.249c-0.656,5.006,0.249,9.625,2.423,12.358c0.916,1.15,2.011,1.911,3.218,2.268
									C254.784,203.718,255.38,202.63,255.503,201.394z"/>
							</g>
						</g>
						<g>
							<path style="fill:#2C79E8;" d="M294.442,201.394c-0.207,2.084-1.742,3.773-3.428,3.773c-1.686,0-2.885-1.689-2.678-3.773
								c0.207-2.084,1.742-3.773,3.428-3.773C293.45,197.621,294.649,199.31,294.442,201.394z"/>
							<g>
								<path style="fill:#395077;" d="M294.442,201.394c0.039-0.393,0.014-0.765-0.041-1.122c-0.624-0.035-1.178-0.352-1.686-0.991
									c-1.403-1.763-1.973-5.167-1.485-8.884c0.789-6.013,4.095-10.506,6.525-10.506c0.66,0,1.264,0.338,1.794,1.004
									c1.253,1.575,1.836,4.563,1.571,7.875h4.004c0.288-4.415-0.622-8.305-2.553-10.732c-1.305-1.64-2.97-2.507-4.816-2.507
									c-4.831,0-9.436,6.259-10.485,14.249c-0.656,5.006,0.25,9.625,2.423,12.358c0.915,1.15,2.011,1.911,3.218,2.268
									C293.723,203.718,294.319,202.63,294.442,201.394z"/>
							</g>
						</g>
						<g>
							<path style="fill:#2C79E8;" d="M333.381,201.394c-0.207,2.084-1.742,3.773-3.428,3.773c-1.686,0-2.885-1.689-2.678-3.773
								c0.207-2.084,1.742-3.773,3.428-3.773C332.389,197.621,333.588,199.31,333.381,201.394z"/>
							<g>
								<path style="fill:#395077;" d="M333.381,201.394c0.039-0.393,0.014-0.765-0.041-1.122c-0.624-0.035-1.178-0.352-1.686-0.991
									c-1.403-1.763-1.973-5.167-1.485-8.884c0.789-6.013,4.095-10.506,6.525-10.506c0.66,0,1.264,0.338,1.794,1.004
									c1.253,1.575,1.836,4.563,1.571,7.875h4.004c0.288-4.415-0.622-8.305-2.553-10.732c-1.305-1.64-2.97-2.507-4.816-2.507
									c-4.831,0-9.436,6.259-10.485,14.249c-0.656,5.006,0.25,9.625,2.423,12.358c0.915,1.15,2.011,1.911,3.218,2.268
									C332.662,203.718,333.258,202.63,333.381,201.394z"/>
							</g>
						</g>
						<g>
							<path style="fill:#2C79E8;" d="M372.32,201.394c-0.207,2.084-1.742,3.773-3.428,3.773c-1.686,0-2.885-1.689-2.678-3.773
								c0.207-2.084,1.742-3.773,3.428-3.773C371.328,197.621,372.527,199.31,372.32,201.394z"/>
							<g>
								<path style="fill:#395077;" d="M372.32,201.394c0.039-0.393,0.014-0.765-0.041-1.122c-0.624-0.035-1.178-0.352-1.686-0.991
									c-1.403-1.763-1.973-5.167-1.485-8.884c0.789-6.013,4.095-10.506,6.525-10.506c0.66,0,1.264,0.338,1.794,1.004
									c1.253,1.575,1.836,4.563,1.571,7.875h4.004c0.288-4.415-0.622-8.305-2.553-10.732c-1.305-1.64-2.97-2.507-4.816-2.507
									c-4.831,0-9.437,6.259-10.485,14.249c-0.656,5.006,0.25,9.625,2.423,12.358c0.916,1.15,2.011,1.911,3.218,2.268
									C371.601,203.718,372.197,202.63,372.32,201.394z"/>
							</g>
						</g>
						<g>
							<path style="fill:#2C79E8;" d="M411.259,201.394c-0.207,2.084-1.742,3.773-3.428,3.773c-1.686,0-2.885-1.689-2.678-3.773
								c0.207-2.084,1.742-3.773,3.428-3.773C410.267,197.621,411.466,199.31,411.259,201.394z"/>
							<g>
								<path style="fill:#395077;" d="M411.259,201.394c0.039-0.393,0.014-0.765-0.041-1.122c-0.624-0.035-1.178-0.352-1.686-0.991
									c-1.403-1.763-1.973-5.167-1.485-8.884c0.789-6.013,4.095-10.506,6.525-10.506c0.66,0,1.264,0.338,1.794,1.004
									c1.253,1.575,1.836,4.563,1.571,7.875h4.004c0.288-4.415-0.622-8.305-2.553-10.732c-1.305-1.64-2.97-2.507-4.816-2.507
									c-4.831,0-9.436,6.259-10.485,14.249c-0.656,5.006,0.249,9.625,2.423,12.358c0.915,1.15,2.011,1.911,3.218,2.268
									C410.54,203.718,411.136,202.63,411.259,201.394z"/>
							</g>
						</g>
						<g>
							<path style="fill:#2C79E8;" d="M450.198,201.394c-0.207,2.084-1.742,3.773-3.428,3.773s-2.885-1.689-2.678-3.773
								s1.742-3.773,3.428-3.773C449.206,197.621,450.405,199.31,450.198,201.394z"/>
							<g>
								<path style="fill:#395077;" d="M450.198,201.394c0.039-0.393,0.014-0.765-0.041-1.122c-0.624-0.035-1.178-0.352-1.686-0.991
									c-1.403-1.763-1.973-5.167-1.485-8.884c0.789-6.013,4.095-10.506,6.525-10.506c0.66,0,1.264,0.338,1.794,1.004
									c1.253,1.575,1.836,4.563,1.571,7.875h4.004c0.288-4.415-0.622-8.305-2.553-10.732c-1.305-1.64-2.97-2.507-4.816-2.507
									c-4.831,0-9.436,6.259-10.485,14.249c-0.656,5.006,0.249,9.625,2.423,12.358c0.916,1.15,2.011,1.911,3.218,2.268
									C449.479,203.718,450.075,202.63,450.198,201.394z"/>
							</g>
						</g>
						<g>
							<path style="fill:#2C79E8;" d="M489.137,201.394c-0.207,2.084-1.742,3.773-3.428,3.773s-2.885-1.689-2.678-3.773
								c0.207-2.084,1.742-3.773,3.428-3.773C488.145,197.621,489.344,199.31,489.137,201.394z"/>
							<g>
								<path style="fill:#395077;" d="M489.137,201.394c0.039-0.393,0.014-0.765-0.041-1.122c-0.624-0.035-1.178-0.352-1.686-0.991
									c-1.403-1.763-1.973-5.167-1.485-8.884c0.789-6.013,4.095-10.506,6.525-10.506c0.66,0,1.264,0.338,1.794,1.004
									c1.253,1.575,1.836,4.563,1.571,7.875h4.004c0.288-4.415-0.622-8.305-2.553-10.732c-1.305-1.64-2.97-2.507-4.816-2.507
									c-4.831,0-9.437,6.259-10.485,14.249c-0.656,5.006,0.249,9.625,2.423,12.358c0.915,1.15,2.011,1.911,3.218,2.268
									C488.418,203.718,489.014,202.63,489.137,201.394z"/>
							</g>
						</g>
					</g>
				</g>
			</g>
			<g>
				<g>
					<path style="fill:#9ABEF4;" d="M353.203,301.953c1.525,2.399,2.879,5.212,4.738,7.361c1.174,1.357,2.724,1.616,4.094,0.359
						c2.255-2.069,4.074-4.975,5.991-7.36c1.842-2.292,4.065-4.555,5.168-7.311c0.388-0.97-0.947-1.941-1.779-1.368
						c-3.417,2.354-5.879,6.559-8.438,9.788c-0.605,0.764-1.212,1.526-1.809,2.297c-0.999,1.289-0.985,1.222-2.038,0.056
						c-1.372-1.519-2.431-3.5-3.599-5.182C354.554,299.187,352.261,300.471,353.203,301.953L353.203,301.953z"/>
				</g>
			</g>
			<g>
				<g>
					<path style="fill:#C5DFFC;" d="M233.106,339.932c1.525,2.399,2.879,5.212,4.738,7.361c1.174,1.357,2.724,1.616,4.094,0.359
						c2.255-2.069,4.074-4.975,5.991-7.36c1.842-2.292,4.065-4.555,5.167-7.311c0.388-0.97-0.947-1.941-1.779-1.368
						c-3.417,2.354-5.879,6.559-8.437,9.788c-0.605,0.764-1.212,1.526-1.809,2.297c-0.999,1.289-0.985,1.222-2.038,0.056
						c-1.372-1.519-2.431-3.5-3.599-5.182C234.457,337.165,232.164,338.45,233.106,339.932L233.106,339.932z"/>
				</g>
			</g>
			<g>
				<g>
					<path style="fill:#C5DFFC;" d="M442.437,332.98c-6.673-2.905-17.425,5.211-16.818,12.435c0.338,4.022,4.943,5.706,8.467,5.069
						c5.022-0.908,7.866-6.436,5.502-11.008c-2.139-4.137-8.73-8.134-13.457-7.492c-0.868,0.118-0.817,1.32-0.224,1.714
						c3.486,2.315,8.104,2.81,10.586,6.62c1.49,2.288,0.894,5.368-1.632,6.628c-1.557,0.776-4.42,0.804-5.667-0.671
						c-1.88-2.223,1.398-5.956,2.9-7.395c2.839-2.722,6.343-4.035,10.171-4.579C442.859,334.217,442.986,333.219,442.437,332.98
						L442.437,332.98z"/>
				</g>
			</g>
			<g>
				<g>
					<path style="fill:#C5DFFC;" d="M298.624,257.463c-6.673-2.905-17.426,5.21-16.819,12.435c0.338,4.022,4.943,5.706,8.467,5.069
						c5.022-0.908,7.866-6.436,5.502-11.008c-2.139-4.137-8.73-8.134-13.457-7.492c-0.868,0.118-0.817,1.32-0.224,1.714
						c3.486,2.315,8.104,2.81,10.586,6.62c1.49,2.288,0.894,5.368-1.632,6.628c-1.557,0.776-4.42,0.804-5.667-0.671
						c-1.88-2.224,1.398-5.956,2.9-7.395c2.839-2.722,6.343-4.035,10.171-4.578C299.045,258.7,299.173,257.702,298.624,257.463
						L298.624,257.463z"/>
				</g>
			</g>
			<g>
				<g>
					<g>
						<path style="fill:#C5DFFC;" d="M312.029,351.107c2.359-2.254,4.674-4.538,6.951-6.875c1.628-1.671,3.255-3.341,4.883-5.012
							c0.947-0.972,2.649-2.194,3.048-3.542c0.319-1.078-0.786-2.315-1.912-1.911c-1.319,0.472-2.334,2.05-3.254,3.05
							c-1.626,1.768-3.252,3.536-4.878,5.303c-2.213,2.406-4.371,4.847-6.496,7.331C309.4,350.584,310.924,352.162,312.029,351.107
							L312.029,351.107z"/>
					</g>
				</g>
				<g>
					<g>
						<path style="fill:#C5DFFC;" d="M312.546,335.59c3.255,5.138,6.596,10.35,10.305,15.174c1.233,1.604,3.987,0.147,2.801-1.637
							c-3.438-5.175-7.376-10.117-11.266-14.957C313.55,333.13,311.841,334.477,312.546,335.59L312.546,335.59z"/>
					</g>
				</g>
			</g>
			<g>
				<g>
					<g>
						<path style="fill:#9ABEF4;" d="M314.99,299.523c3.668,0.216,7.326,0.305,11,0.366c2.383,0.04,6.153,1.069,7.708-1.124
							c0.155-0.218,0.155-0.61,0-0.828c-1.557-2.194-5.32-1.164-7.708-1.124c-3.674,0.062-7.331,0.151-11,0.366
							C313.483,297.268,313.481,299.434,314.99,299.523L314.99,299.523z"/>
					</g>
				</g>
				<g>
					<g>
						<path style="fill:#9ABEF4;" d="M314.257,307.677c1.789,0.468,3.509,0.537,5.349,0.605c1.698,0.063,3.351,0.26,4.858-0.643
							c0.607-0.364,0.607-1.255,0-1.619c-1.507-0.903-3.16-0.706-4.858-0.643c-1.84,0.068-3.56,0.137-5.349,0.605
							C313.42,306.2,313.419,307.457,314.257,307.677L314.257,307.677z"/>
					</g>
				</g>
			</g>
			<g>
				<g>
					<g>
						<path style="fill:#C5DFFC;" d="M345.196,376.495c3.668,0.216,7.326,0.304,11,0.366c2.383,0.04,6.152,1.069,7.708-1.124
							c0.155-0.218,0.155-0.61,0-0.828c-1.557-2.195-5.32-1.164-7.708-1.124c-3.674,0.062-7.331,0.151-11,0.366
							C343.689,374.24,343.686,376.406,345.196,376.495L345.196,376.495z"/>
					</g>
				</g>
				<g>
					<g>
						<path style="fill:#C5DFFC;" d="M344.462,384.649c1.789,0.468,3.509,0.537,5.349,0.605c1.698,0.063,3.351,0.26,4.858-0.643
							c0.607-0.364,0.607-1.255,0-1.619c-1.507-0.903-3.16-0.706-4.858-0.643c-1.84,0.068-3.56,0.137-5.349,0.605
							C343.626,383.173,343.625,384.43,344.462,384.649L344.462,384.649z"/>
					</g>
				</g>
			</g>
			<g>
				<g>
					<g>
						<path style="fill:#C5DFFC;" d="M395.619,261.913c3.668,0.216,7.326,0.305,11,0.366c2.383,0.04,6.152,1.069,7.708-1.124
							c0.155-0.218,0.155-0.61,0-0.828c-1.557-2.194-5.32-1.164-7.708-1.124c-3.674,0.062-7.331,0.151-11,0.366
							C394.113,259.658,394.11,261.825,395.619,261.913L395.619,261.913z"/>
					</g>
				</g>
				<g>
					<g>
						<path style="fill:#C5DFFC;" d="M394.886,270.067c1.789,0.468,3.509,0.537,5.349,0.605c1.698,0.063,3.351,0.26,4.858-0.643
							c0.607-0.364,0.607-1.255,0-1.619c-1.507-0.903-3.16-0.706-4.858-0.643c-1.84,0.068-3.56,0.137-5.349,0.605
							C394.049,268.591,394.048,269.848,394.886,270.067L394.886,270.067z"/>
					</g>
				</g>
			</g>
			<g>
				<g>
					<g>
						<path style="fill:#C5DFFC;" d="M434.535,261.913c3.668,0.216,7.326,0.305,11,0.366c2.383,0.04,6.152,1.069,7.708-1.124
							c0.155-0.218,0.155-0.61,0-0.828c-1.557-2.194-5.321-1.164-7.708-1.124c-3.674,0.062-7.331,0.151-11,0.366
							C433.029,259.658,433.026,261.825,434.535,261.913L434.535,261.913z"/>
					</g>
				</g>
				<g>
					<g>
						<path style="fill:#C5DFFC;" d="M433.802,270.067c1.789,0.468,3.509,0.537,5.349,0.605c1.698,0.063,3.351,0.26,4.858-0.643
							c0.607-0.364,0.607-1.255,0-1.619c-1.507-0.903-3.16-0.706-4.858-0.643c-1.84,0.068-3.56,0.137-5.349,0.605
							C432.965,268.591,432.964,269.848,433.802,270.067L433.802,270.067z"/>
					</g>
				</g>
			</g>
			<g>
				<g>
					<g>
						<path style="fill:#9ABEF4;" d="M273.348,337.899c3.668,0.216,7.326,0.305,11,0.366c2.383,0.04,6.152,1.069,7.708-1.124
							c0.155-0.218,0.155-0.61,0-0.828c-1.557-2.195-5.32-1.164-7.708-1.124c-3.674,0.062-7.331,0.151-11,0.366
							C271.841,335.644,271.838,337.81,273.348,337.899L273.348,337.899z"/>
					</g>
				</g>
				<g>
					<g>
						<path style="fill:#9ABEF4;" d="M272.614,346.053c1.789,0.468,3.509,0.537,5.349,0.605c1.698,0.063,3.351,0.26,4.858-0.643
							c0.607-0.364,0.607-1.255,0-1.619c-1.507-0.903-3.16-0.706-4.858-0.643c-1.84,0.068-3.56,0.137-5.349,0.605
							C271.777,344.577,271.777,345.834,272.614,346.053L272.614,346.053z"/>
					</g>
				</g>
			</g>
			
				<line style="fill:none;stroke:#395077;stroke-width:2;stroke-miterlimit:10;" x1="142.108" y1="419.638" x2="607.892" y2="419.638"/>
		</g>
		<g>
			<g>
				<path style="fill:#FFD2C0;" d="M232.159,272.703l5.117-3.875c0,0,0.414-4.966,2.483-5.907c2.069-0.941,2.521,0,2.521,0
					s1.618-1.505,2.408-0.715c0.79,0.79,0.639,1.618,0.639,1.618s0.621,0.056,1.016,0.451c0.395,0.395,0.188,1.242,0.188,1.242
					s0.602-0.263,0.865,0.414c0.263,0.677,0,1.409,0,1.409s0.61-0.014,0.677,0.811c0.113,1.39-4.515,5.869-7.129,4.797l-8.097,8.004
					"/>
				<path style="fill:none;stroke:#EF977F;stroke-width:0.4;stroke-miterlimit:10;" d="M242.474,263.534
					c0.252,0.408,0.504,0.816,0.756,1.224c0.182,0.295,0.37,0.607,0.382,0.953c0.003,0.087-0.006,0.177-0.049,0.252
					c-0.101,0.179-0.343,0.211-0.548,0.205c-0.991-0.027-1.964-0.471-2.633-1.202"/>
				<path style="fill:none;stroke:#EF977F;stroke-width:0.4;stroke-miterlimit:10;" d="M243.412,265.165
					c0.495-0.325,1.017-0.608,1.56-0.845"/>
				<path style="fill:none;stroke:#EF977F;stroke-width:0.4;stroke-miterlimit:10;" d="M242.133,266.034
					c0,0-0.242,0.299-0.289,0.435c-0.092,0.264-0.164,0.557-0.042,0.81c0.13,0.272,0.462,0.425,0.784,0.44
					c0.321,0.015,0.636-0.084,0.933-0.198c0.904-0.346,1.737-0.836,2.506-1.394"/>
				<path style="fill:none;stroke:#EF977F;stroke-width:0.4;stroke-miterlimit:10;" d="M243.093,267.661
					c-0.219,0.47-0.218,1.067,0.095,1.497c0.403,0.554,1.227,0.338,1.783,0.056c0.739-0.375,1.311-0.784,1.869-1.387"/>
				<path style="fill:none;stroke:#EF977F;stroke-width:0.4;stroke-miterlimit:10;" d="M244.376,269.441
					c-0.18,0.404-0.106,1.049,0.515,1.177c0.347,0.072,1.036,0.066,1.552-0.329"/>
				<path style="fill:none;stroke:#EF977F;stroke-width:0.4;stroke-miterlimit:10;" d="M240.726,265.294
					c0.374,0.843,0.669,2.149,0.47,3.049c-0.199,0.9-0.692,1.733-1.386,2.341"/>
			</g>
			<path style="fill:#19202D;" d="M126.661,338.474c0,0-14.352-0.964-11.809-3.507c2.543-2.543,13.783-2.138,14.312-2.138
				S126.661,338.474,126.661,338.474z"/>
			<g>
				<polyline style="fill:#FFFFFF;" points="239.122,287.439 244.873,283.557 235.708,268.63 225.509,275.737 				"/>
				<path style="fill:#2C79E8;" d="M173.683,248.25c0,0,9.56,2.017,18.085,12.518c5.705,7.027,16.05,24.234,17.597,24.234
					s22.831-14.759,22.831-14.759l10.744,18.013c0,0-28.678,18.943-35.319,18.943c-12.08,0-33.938-25.841-33.938-25.841"/>
			</g>
			<g>
				<path style="fill:#2C79E8;" d="M176.446,250.267c0,0,17.262,11.595,15.694,34.399c-4.291,19.361-13.465,63.235-13.465,63.235
					l-44.417-18.186L176.446,250.267z"/>
				<path style="fill:#19202D;" d="M175.7,250.267c0,0,9.893,9.841,9.893,32.699c0,22.858-6.918,64.936-6.918,64.936l-44.417-18.186
					L175.7,250.267z"/>
				<path style="fill:none;stroke:#19202D;stroke-width:0.75;stroke-linejoin:round;stroke-miterlimit:10;" d="M188.805,298.318
					c0,0,2.748-13.065,3.335-13.652"/>
				<path style="fill:none;stroke:#19202D;stroke-width:0.75;stroke-linejoin:round;stroke-miterlimit:10;" d="M182.309,315.283
					c0.346-0.346,7.685-34.755,7.685-35.599c0-0.844-2.06-1.013-2.06-1.772c0-0.759,3.206-2.278,3.206-3.797
					c0-1.519-5.282-15.767-12.465-22.949"/>
			</g>
			<g>
				<g>
					<g>
						<path style="fill:#FFD2C0;" d="M73.504,391.17l-18.946,7.523c-5.503,9.694,3.748,6.817,3.748,6.817l23.201-5.826"/>
						<path style="fill:#081535;" d="M50.675,399.38l3.883-0.687c-0.606,6.217,3.748,6.817,3.748,6.817l1.764,10.689
							c0.38,3.163-2.436,5.009-3.356,3.121l-7.921-16.245C48.037,401.524,48.976,399.68,50.675,399.38z"/>
					</g>
					<path style="fill:#C1BCB6;" d="M163.04,329.74c0,0-20.983,50.763-32.906,61.43c-19.61,17.544-56.004,24.441-56.004,24.441
						l-9.111-21.231c0,0,41.343-19.208,42.802-20.667c1.048-1.048,7.344-14.467,10.81-21.947c1.295-2.795,1.882-5.848,1.81-8.927
						c-0.133-5.666,1.649-16.301,14.912-24.607"/>
				</g>
				<g>
					<g>
						<path style="fill:#FFD2C0;" d="M195.044,422.529l0.402,20.381c7.149,8.553,7.699-1.12,7.699-1.12l2.679-23.771"/>
						<path style="fill:#081535;" d="M194.728,446.787l0.718-3.877c5.61,2.748,7.699-1.12,7.699-1.12l10.629,2.096
							c3.095,0.753,3.837,4.037,1.747,4.238l-17.991,1.722C195.811,450.01,194.414,448.484,194.728,446.787z"/>
					</g>
					<path style="fill:#C1BCB6;" d="M168.183,315.283c0,0,32.826,38.8,37.189,57.752c5.902,25.642,1.524,61.166,1.524,61.166
						l-19.857-0.431c0,0-5.701-47.551-6.717-49.347c-2.286-4.04-17.648-22.978-20.468-25.405
						c-9.299-8.001-12.157-13.35-14.718-24.554"/>
				</g>
				<path style="fill:none;stroke:#6D7477;stroke-width:0.75;stroke-miterlimit:10;" d="M65.908,396.454
					c0,0,41.311-15.405,43.843-17.937c2.532-2.532,15.748-30.834,15.748-33.333c0-2.499-3.364-10.915,8.759-19.918"/>
				<path style="fill:none;stroke:#6D7477;stroke-width:0.75;stroke-miterlimit:10;" d="M153.086,352.177
					c0,0,7.427-13.264,9.953-25.564"/>
				<path style="fill:none;stroke:#6D7477;stroke-width:0.75;stroke-miterlimit:10;" d="M158.063,341.268
					c0,0,2.194,0.959,3.519-0.365c2.078-2.078,4.959-14.289,4.959-14.289"/>
				<path style="fill:none;stroke:#6D7477;stroke-width:0.75;stroke-miterlimit:10;" d="M155.239,348.011
					c0.796,1.891,4.132,4.435,8.289,9.044c8.282,9.182,19.824,22.473,21.047,26.519c1.836,6.077,4.725,50.245,4.725,50.245"/>
			</g>
			<path style="fill:#E5F2FF;" d="M178.064,252.818c0,0,7.734,7.843,6.843,27.624c-0.729,16.198-5.301,38.272-5.301,41.555
				c0,3.283,3.863,6.975-8.346,7.661c-14.657,0.824-34.254-1.48-45.761-11.44c0-3.778,24.262-56.262,24.262-56.262l17.968-11.69
				L178.064,252.818z"/>
			<g>
				<path style="fill:#FFD2C0;" d="M186.733,226.199c0,0,7.346,18.132,0.864,19.431c-8.339,1.671-12.326-2.248-12.981-3.45
					c-1.442-2.646-5.537-9.371-3.219-12.54C174.658,225.181,182.467,222.367,186.733,226.199z"/>
				<path style="fill:#FFD2C0;" d="M180.968,243.557l-2.529,9.8c0,0-6.874,3.871-11.898-6.124l7.855-10.563"/>
				<g>
					<path style="fill:#395077;" d="M171.343,240.774c1.262,0.24,3.349-0.457,4.569-0.861c0.488-0.162,1.055-0.671,0.744-1.081
						c-0.161-0.213-0.466-0.229-0.722-0.302c-0.803-0.229-1.222-1.088-1.537-1.861c-0.366-0.897-0.729-1.842-0.635-2.806
						c0.094-0.964,0.802-1.941,1.769-1.999c0.919-0.055,1.697,0.714,2.093,1.545c0.111,0.233,0.219,0.494,0.448,0.615
						c0.378,0.198,0.853-0.134,0.987-0.539c0.134-0.405,0.044-0.845,0.006-1.27c-0.104-1.15,0.199-2.332,0.842-3.29
						c0.335-0.499,0.773-1.134,0.434-1.63c-0.222-0.325-0.669-0.385-1.062-0.403c-1.483-0.069-2.974,0.031-4.435,0.297
						c-2.727,0.497-6.299,4.592-6.721,7.346C168.592,235.972,169.258,239.593,171.343,240.774"/>
				</g>
				<g>
					<path style="fill:#081535;" d="M168.122,234.534c1.053-1.973,4.015-4.601,6.195-5.098c3.002-0.684,6.036-1.223,9.089-1.616
						c1.385-0.178,2.888-0.378,3.875-1.366c0.557-0.557,0.878-1.301,1.159-2.036c0.466-1.219,0.862-2.496,0.833-3.801
						c-0.029-1.305-0.541-2.655-1.593-3.428c-1.516-1.113-3.645-0.754-5.405-0.092c-4.35,1.634-8.083,3.866-10.336,7.929
						c-1.086-0.75-2.788-0.348-3.817,0.478C167.093,226.33,164.326,232.125,168.122,234.534"/>
				</g>
				<path style="fill:#FFD2C0;" d="M188.419,231.243c0,0,4.569,4.678,4.199,5.769c-0.37,1.091-3.275,1.496-3.275,1.496"/>
				<path style="fill:#19202D;" d="M184.765,231.376c0.198-0.14,0.45-0.187,0.65-0.055c0.465,0.307,0.464,1.387,0.219,1.805
					c-0.179,0.304-0.641,0.464-0.892,0.216c-0.108-0.107-0.153-0.262-0.193-0.409c-0.105-0.385-0.21-0.8-0.078-1.177
					C184.524,231.605,184.633,231.47,184.765,231.376z"/>
				<g>
					<g>
						<path style="fill:#19202D;" d="M186.33,228.678c-1.553-0.245-4.127,0.457-4.749,2.09c-0.076,0.199,0.173,0.337,0.333,0.256
							c0.706-0.361,1.211-1.011,1.943-1.366c0.769-0.373,1.633-0.576,2.473-0.717C186.46,228.919,186.461,228.698,186.33,228.678
							L186.33,228.678z"/>
					</g>
				</g>
				<path style="fill:none;stroke:#EF977F;stroke-width:0.75;stroke-miterlimit:10;" d="M190.303,241.452
					c-1.332,0.096-3.579-0.07-5.293-1.377"/>
			</g>
			<g>
				<path style="fill:#2C79E8;" d="M147.074,246.038c-6.345,3.572-8.299,14.209-13.06,32.328c-9,34.25-19.161,56.601-19.161,56.601
					s1.161-1.04,10.701-0.004c13.384,1.454,19.969,5.121,24.633,6.98c0.744,0.297,1.585-0.05,1.904-0.785
					c1.82-4.184,8.408-18.437,11.953-34.419c11.682-52.664,3.685-60.952,3.685-60.952S155.681,243.733,147.074,246.038z"/>
				<path style="fill:none;stroke:#19202D;stroke-width:0.75;stroke-linejoin:round;stroke-miterlimit:10;" d="M161.286,311.963
					c5.226-22.126,0.004-36.086,1.101-37.086c1.097-1,6.205-0.651,6.205-1.519c0-0.868-7.306-1.665-7.306-3.472
					c0-4.462,1.134-14.844,2.204-22.817"/>
				<polygon style="fill:#19202D;" points="149.951,321.369 134.258,322.573 134.258,324.603 148.362,324.571 				"/>
			</g>
			<g>
				<g>
					<g>
						<path style="fill:#A33B4F;" d="M96.689,320.997l-2.149-0.616l1.522-5.32c0.21-0.734,0.122-1.507-0.249-2.176
							c-0.371-0.668-0.98-1.152-1.715-1.363l-12.445-3.561c-1.519-0.434-3.105,0.447-3.539,1.964l-1.522,5.32l-2.149-0.616
							l1.522-5.32c0.774-2.702,3.603-4.267,6.304-3.498l12.445,3.561c1.309,0.375,2.394,1.237,3.055,2.427
							c0.661,1.191,0.818,2.567,0.444,3.876L96.689,320.997z"/>
					</g>
					<path style="fill:#F96479;" d="M99.828,353.854l-45.433-13.001c-0.346-0.099-0.547-0.46-0.448-0.806l8.828-30.851
						c0.099-0.346,0.46-0.547,0.806-0.448l45.433,13.001c0.346,0.099,0.547,0.46,0.448,0.806l-8.828,30.851
						C100.535,353.753,100.174,353.953,99.828,353.854z"/>
					<g>
						<path style="fill:#A33B4F;" d="M53.948,340.046l14.587-7.424l7.308-3.686l3.664-1.827l1.84-0.903l0.929-0.444l0.469-0.219
							c0.053-0.028,0.205-0.093,0.36-0.134c0.151-0.042,0.308-0.066,0.45-0.079l0.149-0.013l0.138,0.229l16.792,27.86
							l-17.641-27.331l0.286,0.216l-0.03,0.099c-0.005,0.018-0.014,0.01-0.115,0.056l-0.464,0.2l-0.929,0.41l-1.86,0.843
							l-3.714,1.712l-7.415,3.46L53.948,340.046z"/>
					</g>
					<polygon style="fill:#FF8D9E;" points="80.779,335.129 62.956,308.569 109.642,321.929 					"/>
				</g>
				<path style="fill:#FFD2C0;" d="M91.88,291.985l-3.744,8.642c0,0-2.083,1.576-3.309,3.315c-0.95,1.347-2.075,5.089-0.916,5.864
					c0.68,0.455,1.293-0.027,1.293-0.027s-0.219,1.151,0.816,1.477c0.855,0.269,1.135-0.687,1.135-0.687s0.036,1.146,1.026,1.255
					c0.632,0.07,1-0.696,1-0.696s0.129,0.851,0.909,0.989c1.176,0.208,2.212-0.379,2.532-1.018l-0.929-0.266
					c-0.398-0.114-0.591-0.566-0.401-0.934c0.194-0.373,0.365-0.681,0.513-0.795c0.406-0.314,0.979-0.286,0.979-0.286l1.183,0.338
					c0,0,1.027-3.821-0.753-6.369l5.114-8.611"/>
				<polyline style="fill:#E5F2FF;" points="91.31,288.256 86.437,297.289 105.809,302.28 111.158,291.346 				"/>
				<path style="fill:#2C79E8;" d="M151.557,252.439c0,0,6.123-8.414-3.796-6.651c-14.26,2.535-28.285,6.466-38.03,13.789
					c-12.333,9.267-22.344,34.497-22.344,34.497l21.374,5.492l16.667-24.46l32.78-4.748"/>
				<path style="fill:none;stroke:#19202D;stroke-width:0.75;stroke-linejoin:round;stroke-miterlimit:10;" d="M135.392,273.663
					c0,0,19.342-3.798,21.275-1.864"/>
			</g>
		</g>
		<g>
			<rect x="501.097" y="279.865" style="fill:#081535;" width="34.709" height="21.138"/>
			<path style="fill:#F96479;" d="M538.61,288.796h-40.317c-2.233,0-4.043-1.81-4.043-4.043v-17.49c0-2.233,1.81-4.043,4.043-4.043
				h40.317c2.233,0,4.043,1.81,4.043,4.043v17.49C542.653,286.986,540.843,288.796,538.61,288.796z"/>
			<g style="opacity:0.55;">
				
					<line style="fill:none;stroke:#A33B4F;stroke-width:3;stroke-miterlimit:10;" x1="500.508" y1="263.22" x2="500.508" y2="288.796"/>
				
					<line style="fill:none;stroke:#A33B4F;stroke-width:3;stroke-miterlimit:10;" x1="507.685" y1="263.22" x2="507.685" y2="288.796"/>
				
					<line style="fill:none;stroke:#A33B4F;stroke-width:3;stroke-miterlimit:10;" x1="514.863" y1="263.22" x2="514.863" y2="288.796"/>
				
					<line style="fill:none;stroke:#A33B4F;stroke-width:3;stroke-miterlimit:10;" x1="522.04" y1="263.22" x2="522.04" y2="288.796"/>
				
					<line style="fill:none;stroke:#A33B4F;stroke-width:3;stroke-miterlimit:10;" x1="529.217" y1="263.22" x2="529.217" y2="288.796"/>
				
					<line style="fill:none;stroke:#A33B4F;stroke-width:3;stroke-miterlimit:10;" x1="536.394" y1="263.22" x2="536.394" y2="288.796"/>
			</g>
			<g>
				<g>
					<path style="fill:#A33B4F;" d="M585.915,318.592l-18.628-18.628c-0.603-0.604-1.582-0.604-2.185,0l-10.211,10.211
						c-0.603,0.604-0.603,1.582,0,2.185l18.628,18.628c0.603,0.604,1.582,0.604,2.185,0l10.211-10.211
						C586.518,320.174,586.518,319.196,585.915,318.592z"/>
					<path style="fill:#A33B4F;" d="M450.987,318.592l18.628-18.628c0.603-0.604,1.582-0.604,2.185,0l10.211,10.211
						c0.604,0.604,0.604,1.582,0,2.185l-18.628,18.628c-0.603,0.604-1.582,0.604-2.185,0l-10.211-10.211
						C450.384,320.174,450.384,319.196,450.987,318.592z"/>
				</g>
			</g>
			<g>
				
					<ellipse transform="matrix(0.9861 -0.1664 0.1664 0.9861 -54.7437 91.4375)" style="fill:#F96479;" cx="518.451" cy="372.503" rx="77.355" ry="77.355"/>
				<circle style="fill:none;stroke:#FFFFFF;stroke-miterlimit:10;" cx="518.451" cy="372.503" r="67.917"/>
				<circle style="fill:#FFFFFF;" cx="518.451" cy="372.503" r="64.677"/>
				<g>
					<g>
						<g>
							<g>
								<path style="fill:#395077;" d="M521.053,314.384c0,1.437-1.165,2.602-2.602,2.602s-2.602-1.165-2.602-2.602
									c0-1.437,1.165-2.602,2.602-2.602S521.053,312.947,521.053,314.384z"/>
								<path style="fill:#395077;" d="M521.053,430.622c0,1.437-1.165,2.602-2.602,2.602s-2.602-1.165-2.602-2.602
									c0-1.437,1.165-2.602,2.602-2.602S521.053,429.185,521.053,430.622z"/>
							</g>
							<g>
								<path style="fill:#395077;" d="M576.57,375.105c-1.437,0-2.602-1.165-2.602-2.602c0-1.437,1.165-2.602,2.602-2.602
									s2.602,1.165,2.602,2.602C579.172,373.94,578.007,375.105,576.57,375.105z"/>
								<path style="fill:#395077;" d="M460.332,375.105c-1.437,0-2.602-1.165-2.602-2.602c0-1.437,1.165-2.602,2.602-2.602
									c1.437,0,2.602,1.165,2.602,2.602C462.934,373.94,461.769,375.105,460.332,375.105z"/>
							</g>
						</g>
						<g>
							<g>
								<path style="fill:#395077;" d="M490.693,325.199c-0.267,0-0.528-0.139-0.671-0.387l-2.602-4.507
									c-0.214-0.37-0.087-0.845,0.283-1.059c0.369-0.214,0.845-0.088,1.059,0.284l2.602,4.507c0.214,0.37,0.087,0.845-0.284,1.059
									C490.958,325.165,490.824,325.199,490.693,325.199z"/>
							</g>
							<g>
								<path style="fill:#395077;" d="M548.812,425.864c-0.267,0-0.528-0.139-0.672-0.388l-2.602-4.507
									c-0.214-0.37-0.087-0.845,0.284-1.059c0.37-0.214,0.844-0.088,1.059,0.284l2.602,4.507c0.214,0.37,0.087,0.845-0.284,1.059
									C549.077,425.831,548.944,425.864,548.812,425.864z"/>
							</g>
						</g>
						<g>
							<g>
								<path style="fill:#395077;" d="M470.371,345.52c-0.132,0-0.265-0.033-0.387-0.104l-4.507-2.602
									c-0.371-0.214-0.497-0.688-0.284-1.059c0.214-0.37,0.688-0.497,1.059-0.284l4.507,2.602
									c0.371,0.214,0.497,0.688,0.284,1.059C470.899,345.38,470.638,345.52,470.371,345.52z"/>
							</g>
							<g>
								<path style="fill:#395077;" d="M571.037,403.638c-0.132,0-0.265-0.033-0.387-0.104l-4.506-2.601
									c-0.371-0.214-0.497-0.688-0.284-1.059c0.214-0.37,0.688-0.499,1.059-0.284l4.507,2.601
									c0.371,0.214,0.497,0.688,0.284,1.059C571.565,403.499,571.304,403.638,571.037,403.638z"/>
							</g>
						</g>
						<g>
							<g>
								<path style="fill:#395077;" d="M566.531,345.52c-0.267,0-0.528-0.139-0.672-0.387c-0.214-0.37-0.087-0.845,0.284-1.059
									l4.506-2.602c0.37-0.214,0.845-0.087,1.059,0.284c0.214,0.37,0.087,0.845-0.284,1.059l-4.507,2.602
									C566.796,345.486,566.663,345.52,566.531,345.52z"/>
							</g>
							<g>
								<path style="fill:#395077;" d="M465.866,403.638c-0.267,0-0.528-0.139-0.672-0.388c-0.214-0.37-0.087-0.845,0.284-1.059
									l4.507-2.601c0.369-0.215,0.845-0.087,1.059,0.284c0.214,0.37,0.087,0.845-0.284,1.059l-4.507,2.601
									C466.13,403.605,465.997,403.638,465.866,403.638z"/>
							</g>
						</g>
						<g>
							<g>
								<path style="fill:#395077;" d="M546.209,325.199c-0.132,0-0.265-0.033-0.387-0.104c-0.371-0.214-0.497-0.688-0.284-1.059
									l2.602-4.507c0.214-0.371,0.689-0.497,1.059-0.284c0.371,0.214,0.497,0.688,0.284,1.059l-2.602,4.507
									C546.738,325.06,546.477,325.199,546.209,325.199z"/>
							</g>
							<g>
								<path style="fill:#395077;" d="M488.09,425.864c-0.132,0-0.265-0.033-0.387-0.104c-0.371-0.214-0.497-0.688-0.283-1.059
									l2.602-4.507c0.214-0.371,0.689-0.497,1.059-0.284c0.371,0.214,0.497,0.688,0.284,1.059l-2.602,4.507
									C488.618,425.725,488.357,425.864,488.09,425.864z"/>
							</g>
						</g>
					</g>
				</g>
				<path style="fill:#FFCFCF;" d="M525.593,372.503c0,3.944-3.198,7.142-7.142,7.142c-3.944,0-7.142-3.198-7.142-7.142
					c0-3.945,3.198-7.142,7.142-7.142C522.396,365.361,525.593,368.559,525.593,372.503z"/>
				<g>
					<g>
						<path style="fill:#F96479;" d="M514.591,374.495l-16.334-34.373l23.37,30.035c1.41,1.812,1.084,4.425-0.728,5.835
							c-1.812,1.41-4.424,1.084-5.835-0.728C514.88,375.027,514.716,374.755,514.591,374.495z"/>
						<path style="fill:#F96479;" d="M518.892,368.574l55.201,4.431l-55.457,3.831c-2.288,0.133-4.25-1.614-4.383-3.902
							s1.614-4.251,3.902-4.383C518.397,368.537,518.659,368.548,518.892,368.574z"/>
					</g>
				</g>
			</g>
		</g>
		<g>
			<g>
				<path style="fill:#011E3B;" d="M623.128,430.588c0,0,1.889,1.703,2.157,4.817c0.19,2.208-0.103,3.727-0.103,3.727l-0.959,0.084
					l-0.37-1.798c0,0-2.546,0.5-5.11,2.263c-1.242,0.854-7.573,0.911-8.56,0.415c-1.104-0.555-0.812-1.599-0.456-2.031
					c0.357-0.432,7.142-3.564,7.142-3.564"/>
				<path style="fill:#FFD2C0;" d="M628.734,357.977c11.193,26.262-5.605,72.611-5.605,72.611l-3.941,1.932
					c0,0-7.108-46.569-9.056-68.903c0.775-26.219-0.892-51.137,17.709-61.851"/>
				<path style="fill:#FFD2C0;" d="M619.506,430.904c0,0-2.231,2.897-5.706,5.041c-1.098,0.677,0.462,1.47,1.69,1.47
					c3.857-0.001,8.504-5.76,8.504-5.76l-1.491-2.413"/>
			</g>
			<g>
				<path style="fill:#011E3B;" d="M674.831,428.017c0,0,2.285,1.117,3.401,4.036c0.791,2.07,0.927,3.611,0.927,3.611l-0.899,0.345
					l-0.851-1.626c0,0-2.31,1.182-4.289,3.583c-0.959,1.163-7.029,2.962-8.114,2.758c-1.214-0.229-1.221-1.313-0.997-1.827
					c0.224-0.513,5.883-5.393,5.883-5.393"/>
				<path style="fill:#FFD2C0;" d="M660.217,356.672c17.994,22.163,14.614,71.345,14.614,71.345l-3.256,2.943
					c0,0-19.662-42.809-27.687-63.742c-6.768-17.655-1.736-61.664-1.736-61.664"/>
				<path style="fill:#FFD2C0;" d="M671.436,429.319c0,0-1.347,3.4-4.097,6.418c-0.869,0.953,0.849,1.286,2.029,0.948
					c3.707-1.063,6.588-7.88,6.588-7.88l-2.098-1.908"/>
			</g>
			<g>
				<path style="fill:#2C79E8;" d="M618.268,301.759c0,0-7.629,6.067-8.861,26.534c-0.963,15.995,0.272,40.417,0.272,40.417
					s4.859,3.984,23.864,3.984c25.982,0,36.685-8.328,36.685-8.328s0.458-28.377-5.474-47.891
					c-6.064-19.949-23.215-24.827-23.215-24.827"/>
				<path style="fill:none;stroke:#9CE8F2;stroke-width:0.5;stroke-miterlimit:10;" d="M663.127,366.684
					c0,0,0.769-63.184-22.167-72.22"/>
			</g>
			<g>
				<path style="fill:#FFD2C0;" d="M551.653,267.263c0,0-8.14-5.32-9.429-5.772c-1.29-0.451-5.161-1.193-6.244-1.027
					c-2.074,0.318-7.077,3.279-6.008,3.83c1.069,0.55,6.719-1.218,7.48-0.457c0.761,0.761-3.487,1.303-2.515,1.944
					c0.767,0.505,1.986,0.158,4.127,0c1.801-0.133,3.095-0.55,3.095-0.55l6.384,5.61"/>
				<path style="fill:#DCDCDE;" d="M596.767,245.865c0,0-6.69,0.857-14.3,10.624c-6.272,8.049-10.117,20.48-10.117,20.48
					l-25.027-12.112l-3.09,1.847c0,0,18.888,27.195,31.409,25.019c11.851-2.059,25.406-27.43,25.406-27.43"/>
			</g>
			<g>
				<path style="fill:#DCDCDE;" d="M587.796,266.874c0,0,1.506,2.487,1.445,4.483c-0.117,3.83-0.27,9.541,2.398,13.614
					c2.488,3.797,6.17,5.559,9.021,6.678c2.632,2.632,12.925,14.111,12.925,14.111s2.211,2.77,13.015-1.173
					c10.298-3.759,18.249-11.614,18.249-11.614s-4.369-33.284-16.119-43.472c-10.694-9.272-27.06-5.456-27.06-5.456l-6.758,2.686
					L587.796,266.874z"/>
				<path style="fill:none;stroke:#9393A0;stroke-width:0.75;stroke-miterlimit:10;" d="M589.916,280.924
					c-0.904-2.108-1.284-6.04-0.694-10.083c0.379-2.597-1.425-5.808-1.425-5.808"/>
			</g>
			<g>
				<path style="fill:#FFD2C0;" d="M605.807,311.782l-10.707,6.078c0,0-3.548,4.056-7.231,5.863
					c-1.775,0.871-7.626-0.615-7.626-1.321c0-1.328,3.316-0.874,4.608-1.489c0.885-0.421,1.424-1.054,1.285-1.52
					c-0.326-1.101-3.589,0.151-3.421-0.927c0.064-0.412,2.818-1.665,3.92-2.172c2.741-1.259,6.314-1.612,6.314-1.612l8.263-7.874"/>
				<path style="fill:#DCDCDE;" d="M599.159,244.26c0,0,18.591-7.164,30.85,6.574c13.613,15.255,1.949,42.832-7.051,50.898
					c-9,8.066-28.618,17.215-28.618,17.215l-1.402-4.461c0,0,14.181-15.61,18.213-19.642c4.031-4.031,4.795-37.298,4.795-37.298"/>
				<path style="fill:none;stroke:#9393A0;stroke-width:0.75;stroke-miterlimit:10;" d="M607.333,298.836
					c1.408-1.498,3.018-3.192,3.818-3.991c4.031-4.031,4.795-37.298,4.795-37.298"/>
				<path style="fill:none;stroke:#9393A0;stroke-width:0.75;stroke-miterlimit:10;" d="M636.001,273.008
					c-1.281,12.015-7.642,23.883-13.043,28.724c-2.332,2.09-5.378,4.254-8.61,6.311"/>
			</g>
			<g>
				<path style="fill:#FFD2C0;" d="M589.898,243.753l3.55,6.076c0,0,1.523,2.034,3.79,1.224c5.15-1.84,3.749-5.272,3.749-5.272
					l-7.384-6.345"/>
				<path style="fill:#FFD2C0;" d="M594.203,239.254c0,0-3.708,8.061-9.425,7.488c-3.271-0.328-6.736-13.099-5.949-16.009
					c0.787-2.909,5.673-4.759,8.303-3.308C589.762,228.874,596.693,232.673,594.203,239.254"/>
				<path style="fill:#19202D;" d="M580.62,238.28c0.219,0.252,0.601,0.28,0.854,0.061c0.253-0.219,0.28-0.601,0.061-0.854
					c-0.219-0.252-0.601-0.28-0.854-0.061C580.428,237.645,580.401,238.028,580.62,238.28z"/>
				<path style="fill:#19202D;" d="M587.267,235.736c0.219,0.252,0.192,0.635-0.061,0.854c-0.253,0.219-0.635,0.192-0.854-0.061
					c-0.219-0.253-0.192-0.635,0.061-0.854C586.666,235.456,587.048,235.484,587.267,235.736z"/>
				<g>
					<g>
						<path style="fill:#19202D;" d="M584.773,234.929c0.871-1.212,2.08-1.337,3.417-0.898c0.113,0.037,0.208-0.123,0.118-0.202
							c-1.215-1.074-3.141-0.426-3.784,0.954C584.444,234.953,584.664,235.081,584.773,234.929L584.773,234.929z"/>
					</g>
				</g>
				<g>
					<g>
						<path style="fill:#19202D;" d="M579.244,236.884c0.269-0.555,0.652-1.084,1.286-1.235c0.584-0.14,1.095,0.14,1.633,0.316
							c0.096,0.032,0.164-0.081,0.123-0.161c-0.764-1.517-3.204-0.444-3.274,1.017C579.006,236.941,579.19,236.995,579.244,236.884
							L579.244,236.884z"/>
					</g>
				</g>
				<path style="fill:none;stroke:#EF977F;stroke-width:0.75;stroke-miterlimit:10;" d="M583.248,237.038
					c0,0-0.133,3.418,0.426,3.687c0.924,0.444,1.985-0.476,1.985-0.476"/>
				<path style="fill:#FFFFFF;" d="M586.906,241.964l-3.048,1.23c0,0,0.778,1.744,1.783,1.354
					C587.592,243.788,586.906,241.964,586.906,241.964z"/>
				<path style="fill:none;stroke:#EF977F;stroke-width:0.75;stroke-miterlimit:10;" d="M590.36,244.543
					c0,0,2.967-1.741,3.944-5.264"/>
				<path style="fill:#FFFFFF;" d="M598.647,243.77c0,0,0.546,5.213-1.409,7.283c1.705,0.38,5.075,2.414,5.075,2.414
					c1.702-4.421-0.218-9.023-0.218-9.023L598.647,243.77z"/>
				<path style="fill:#FFFFFF;" d="M592.569,248.325c0,0,2.543,2.764,4.668,2.728c-0.637,1.496-1.473,4.792-1.473,4.792
					s-1.89-0.554-3.018-4.129C592.349,250.821,592.569,248.325,592.569,248.325z"/>
				<g>
					<path style="fill:#011E3B;" d="M639.121,237.609c0-1.012-0.195-2.06-0.62-3.135c-3.448-8.708-13.658-14.217-22.785-13.105
						c-3.652,0.445-7.435,2.695-11.067,2.158c-1.99-0.294-3.867-1.084-5.798-1.649c-4.143-1.214-8.587-1.386-12.812-0.497
						c-2.746,0.578-5.481,1.651-7.453,3.648c-2.808,2.844-3.423,7.756-0.912,10.946c2.18-1.813,3.968-4.096,5.207-6.646
						c-0.025,0.051,2.242,2.902,7.336,4.538c0.727,0.739,1.371,1.609,1.871,2.724c1.604,3.582,3.042,8.245,7.511,9.19
						c2.815,0.596,5.929-0.786,8.539,0.423c2.415,1.118,4.46,2.579,7.042,3.438c2.963,0.987,6.161,1.281,9.251,0.807
						C630.464,249.521,639.123,244.372,639.121,237.609z"/>
				</g>
				<g>
					<path style="fill:#FFD2C0;" d="M591.088,236.932c0.291-2.436,1.917-2.42,2.586-2.027c0.669,0.393,0.975,1.202,1.083,1.971
						c0.136,0.967-0.002,2.043-0.679,2.748c-0.676,0.705-1.992,0.81-2.574,0.025"/>
				</g>
			</g>
		</g>
		<g>
			<path style="fill:#2C79E8;" d="M428.409,124.902c0,0,6.871,20.871-1.673,57.847h-39.522l-2.892-23.181
				c0,0-5.785-3.274-8.283-9.697c-3.333-8.571,3.843-19.18,3.843-19.18l3.659-13.181c0,0,5.672-3.882,6.038-3.511
				C389.947,114.371,428.409,124.902,428.409,124.902z"/>
			<g>
				<path style="fill:#011E3B;" d="M402.033,77.196c11.153-1.45,14.853,12.397,15.331,14.273c0.533,2.088,1.608,3.998,2.233,6.06
					c0.466,1.541,0.596,3.419-0.539,4.56c-0.39,0.392-0.891,0.652-1.394,0.882c-1.889,0.866-3.927,1.405-5.997,1.588
					c-1.725,0.152-3.462,0.058-5.191-0.037c-5.016-0.274-10.032-0.462-15.058-0.213c-3.108,0.154-6.526,0.352-8.999-1.536
					c-0.3-0.229-0.589-0.499-0.718-0.853c-0.158-0.431-0.054-0.909,0.055-1.355c1.326-5.435,2.748-11.578,6.311-16.018
					c2.78-3.465,7.083-5.941,11.513-5.615"/>
			</g>
			<path style="fill:#2C79E8;" d="M387.214,113.975c0,0-10.819,3.33-16.947,12.264c-7.428,10.831-11.468,26.329-10.127,38.121
				c2.74,24.099,26.818,43.119,26.818,43.119l3.199-4.53l-11.481-43.381l8.283-29.421"/>
			<path style="fill:#2C79E8;" d="M416.942,112.925c0,0,14.434,0.262,27.676,13.504c11.695,11.695,17.141,23.328,12.447,35.952
				c-4.101,11.03-19.947,25.611-19.947,25.611l-6.096-4.514c0,0,8.265-18.305,8.57-23.397c0.43-7.18-21.261-20.732-21.261-20.732"/>
			<g>
				<polygon style="fill:#081535;" points="389.751,272.485 368.924,263.699 432.627,113.81 453.454,122.596 				"/>
				<polygon style="opacity:0.55;fill:#395077;" points="383.531,269.861 375.145,266.323 438.848,116.434 447.233,119.971 				"/>
				
					<rect x="432.544" y="114.221" transform="matrix(0.9214 0.3887 -0.3887 0.9214 80.1027 -163.3746)" style="fill:#B6D5FC;" width="22.604" height="4.144"/>
				<path style="fill:#80A0D8;" d="M454.785,106.274l-11.397-4.808c-2.604-1.099-5.605,0.122-6.704,2.726l-2.447,5.799l20.827,8.786
					l2.447-5.799C458.61,110.374,457.389,107.372,454.785,106.274z"/>
				<path style="fill:#FFDACF;" d="M368.924,263.699l2.028,20.299c0.138,1.385,1.756,2.068,2.845,1.2l15.954-12.713L368.924,263.699
					z"/>
				<path style="opacity:0.55;fill:#FFDACF;" d="M375.145,266.323l-3.343,18.033c-0.228,1.231,0.423,1.505,1.145,0.483
					l10.583-14.978L375.145,266.323z"/>
				<path style="fill:#80A0D8;" d="M373.599,281.694c-0.957-0.404-1.963-0.495-2.91-0.335l0.263,2.638
					c0.138,1.385,1.756,2.068,2.845,1.2l2.073-1.652C375.323,282.755,374.556,282.098,373.599,281.694z"/>
			</g>
			<g>
				<path id="XMLID_5_" style="fill:#FFDACF;" d="M388.775,84.514c-0.861,5.924,0.693,19.535,4.685,20.67
					c1.67,0.475,3.88,0.082,6.04-1.249c4.681-2.883,7.248-7.364,7.553-11.028C407.436,88.305,394.429,73.799,388.775,84.514z"/>
				<g>
					<path style="fill:#011E3B;" d="M411.525,83.326c2.12,6.491,1.302,13.111-5.003,14.708c-0.054,0.497,0.941-5.019-1.552-4.825
						c-0.822,0.064-1.848,1.898-2.61,1.44c-0.638-0.383-0.17-6.578-0.17-6.578c-4.573,0.276-8.623-2.673-9.289-4.074
						c-1.862,1.397-3.448,3.162-4.64,5.162c-3.102-3.718,0.072-8.28,1.941-10.119c3.979-3.916,11.038-4.204,15.849-1.59
						C407.672,78.331,410.265,79.468,411.525,83.326z"/>
				</g>
				<path style="fill:#FFDACF;" d="M398.581,102.2l-1.248,8.547l-10.118,3.229c0,0-3.275,13.079,14.518,13.079
					s20.364-12.714,19.529-13.55c-2.398-0.904-11.178-2.602-11.178-2.602l-2.946-13.049"/>
				<path id="XMLID_401_" style="fill:none;stroke:#DB8F77;stroke-width:0.5;stroke-linejoin:round;stroke-miterlimit:10;" d="
					M392.5,93.026c0,0-1.733,4.022-1.139,4.773c0.594,0.751,2.473,0.081,2.473,0.081"/>
				<g id="XMLID_399_">
					<path id="XMLID_400_" style="fill:#030334;" d="M397.558,92.385c0.041,0.047,0.08,0.097,0.114,0.147
						c0.253,0.369,0.262,0.753,0.328,1.18c0.105,0.679-1.043,0.771-1.081,0.065c-0.023-0.434-0.032-0.902,0.083-1.324
						C397.116,92.036,397.365,92.168,397.558,92.385z"/>
				</g>
				<g id="XMLID_395_">
					<path id="XMLID_397_" style="fill:#030334;" d="M391.354,92.277c0.032,0.054,0.06,0.111,0.084,0.166
						c0.177,0.41,0.112,0.79,0.094,1.221c-0.028,0.687-1.172,0.555-1.073-0.145c0.061-0.43,0.143-0.891,0.337-1.283
						C390.987,91.849,391.206,92.026,391.354,92.277z"/>
				</g>
				<path id="XMLID_391_" style="fill:#030334;" d="M400.971,91.429c0,0-0.019-0.326-0.264-0.785
					c-0.236-0.44-0.732-0.935-1.352-1.22c-0.621-0.28-1.35-0.323-1.848-0.141c-0.251,0.079-0.428,0.228-0.539,0.318
					c-0.106,0.11-0.15,0.18-0.15,0.18s0.092-0.001,0.222-0.013c0.134-0.012,0.322,0.017,0.525,0.049
					c0.412,0.071,0.916,0.237,1.406,0.46c0.49,0.22,0.968,0.492,1.342,0.729c0.173,0.12,0.358,0.207,0.464,0.302
					C400.894,91.389,400.971,91.429,400.971,91.429z"/>
				<path id="XMLID_385_" style="fill:#030334;" d="M392.564,90.169c0,0-0.03-0.062-0.092-0.15
					c-0.056-0.073-0.194-0.222-0.368-0.305c-0.352-0.202-0.928-0.224-1.408-0.026c-0.483,0.197-0.853,0.59-1,0.945
					c-0.151,0.36-0.112,0.626-0.112,0.626s0.065-0.029,0.154-0.082c0.081-0.059,0.224-0.115,0.36-0.188
					c0.281-0.143,0.617-0.304,0.952-0.436c0.331-0.138,0.661-0.256,0.953-0.314C392.28,90.161,392.568,90.18,392.564,90.169z"/>
				<path style="fill:#FFFFFF;" d="M397.326,99.087c0.176,4.136-3.512,5.5-5.089,1.139L397.326,99.087z"/>
				<path style="fill:none;stroke:#F7A794;stroke-width:0.75;stroke-miterlimit:10;" d="M403.724,100.567
					c0,0-2.083,2.907-5.301,3.949"/>
				<g id="XMLID_376_">
					<path style="fill:#FFDACF;" d="M403.891,94.588c0.182-2.265,2.485-2.202,3.153-1.835c0.481,0.265,0.738,0.81,0.871,1.343
						c0.333,1.337,0.052,2.814-0.748,3.935c-0.286,0.401-0.646,0.764-1.095,0.965c-1.264,0.563-2.266-0.321-2.443-1.459"/>
				</g>
				<g>
					<path style="fill:#011E3B;" d="M403.413,77.479c2.285-0.366,4.824-2.269,3.564-5.004c-1.228-2.665-3.963-2.821-5.909-1.035
						c-0.849,0.78-1.269,2.002-1.078,3.139c0.191,1.137,0.986,2.155,2.043,2.616"/>
				</g>
				<path style="fill:none;stroke:#F96479;stroke-miterlimit:10;" d="M400.13,75.607c1.927-0.04,4.047,0.395,5.735,1.355"/>
			</g>
			<g>
				<path style="fill:none;stroke:#19202D;stroke-width:0.75;stroke-linejoin:round;stroke-miterlimit:10;" d="M384.322,159.568
					c0,0-5.785-3.339-8.283-9.697c-3.333-8.484,3.843-20.423,3.843-20.423"/>
				<path style="fill:none;stroke:#19202D;stroke-width:0.75;stroke-linejoin:round;stroke-miterlimit:10;" d="M401.172,127.047
					c0,0-1.692,12.393-1.482,19.503"/>
				<path style="fill:#19202D;" d="M403.73,129.62c0,0.339-0.275,0.614-0.614,0.614c-0.339,0-0.614-0.275-0.614-0.614
					c0-0.339,0.275-0.614,0.614-0.614C403.456,129.006,403.73,129.281,403.73,129.62z"/>
				<path style="fill:#19202D;" d="M403.117,136.185c0,0.339-0.275,0.614-0.614,0.614c-0.339,0-0.614-0.275-0.614-0.614
					s0.275-0.614,0.614-0.614C402.842,135.571,403.117,135.846,403.117,136.185z"/>
				<path style="fill:#19202D;" d="M402.503,142.75c0,0.339-0.275,0.614-0.614,0.614s-0.614-0.275-0.614-0.614
					c0-0.339,0.275-0.614,0.614-0.614S402.503,142.411,402.503,142.75z"/>
			</g>
			<path style="fill:#FFDACF;" d="M431.436,183.785l-1.991,3.501c0,0-2.483,0.339-4.261,1.828c-1.503,1.258-4.66,3.712-3.415,4.145
				c1.245,0.434,2.18-0.79,2.43-0.112c0.264,0.719-0.678,3.307-2.074,4.131c-0.683,0.403-3.924,1.714-3.698,2.354
				c0.452,1.279,5.74,0.873,8.511-0.466s5.564-9.137,5.564-9.137l3.66-2.746"/>
			<path style="fill:#FFDACF;" d="M389.971,203.212l2.429,5.112c0,0,3.43,2.97,4.081,4.819c0.651,1.849,1.333,5.568,0.145,4.998
				c-1.189-0.57-1.446-2.65-2.101-2.345c-0.694,0.324-1.66,1.937-1.94,4.412c-0.089,0.788,0.34,4.21-0.272,4.505
				c-1.222,0.589-2.962-3.688-3.538-6.711c-0.356-1.868,0.291-8.038,0.291-8.038l-1.948-2.71"/>
		</g>
		<g>
			
				<ellipse transform="matrix(0.3867 -0.9222 0.9222 0.3867 -34.0545 324.9838)" style="fill:#F96479;" cx="227.306" cy="188.095" rx="39.672" ry="39.672"/>
			
				<ellipse transform="matrix(0.2339 -0.9722 0.9722 0.2339 -8.7469 365.0891)" style="fill:#FFDEDE;" cx="227.306" cy="188.095" rx="28.701" ry="28.701"/>
			<path style="fill:#F96479;" d="M247.02,188.095c0,10.887-8.826,19.714-19.714,19.714c-10.888,0-19.714-8.826-19.714-19.714
				c0-10.888,8.826-19.714,19.714-19.714C238.194,168.381,247.02,177.207,247.02,188.095z"/>
			<path style="fill:#FFDEDE;" d="M237.634,188.095c0,5.703-4.624,10.327-10.327,10.327c-5.704,0-10.327-4.624-10.327-10.327
				c0-5.704,4.624-10.327,10.327-10.327C233.01,177.768,237.634,182.391,237.634,188.095z"/>
			<g>
				<g>
					<polygon style="fill:#0C3656;" points="228.905,189.694 222.42,189.694 228.905,183.209 					"/>
				</g>
				<g>
					<polygon style="fill:#0C3656;" points="186.856,147.645 179.436,147.645 179.436,145.774 184.985,145.774 184.985,140.225 
						186.856,140.225 					"/>
				</g>
				<g>
					<polygon style="fill:#0C3656;" points="183.459,144.249 176.04,144.249 176.04,142.378 181.589,142.378 181.589,136.829 
						183.459,136.829 					"/>
				</g>
				<g>
					
						<rect x="203.715" y="133.713" transform="matrix(0.7071 -0.7071 0.7071 0.7071 -57.0422 193.1685)" style="fill:#0C3656;" width="1.87" height="63.453"/>
				</g>
			</g>
		</g>
	</g>
</g>
<g id="DESIGNED_BY_FREEPIK">
	<g>
		<g id="XMLID_1_">
			<g id="XMLID_21_">
				<path id="XMLID_29_" style="fill:#1D262D;" d="M385.105,465.676c-0.433,0.442-0.804,0.931-1.108,1.452l-0.466-0.24
					c-0.066-0.298-0.349-0.503-0.658-0.467c-0.331,0.039-0.568,0.339-0.529,0.67c0.039,0.331,0.339,0.568,0.67,0.529
					c0.065-0.008,0.127-0.026,0.184-0.053l0.451,0.234c-0.251,0.554-0.433,1.139-0.539,1.744l0.746,0.131
					c0.231-1.306,0.85-2.506,1.792-3.472L385.105,465.676z"/>
				<path id="XMLID_28_" style="fill:#1D262D;" d="M390.592,463.373c-0.171,0-0.341,0.007-0.51,0.018l-0.073-0.626
					c0.188-0.149,0.296-0.39,0.266-0.645c-0.046-0.394-0.402-0.675-0.795-0.629c-0.394,0.047-0.675,0.402-0.629,0.796
					c0.03,0.254,0.189,0.461,0.405,0.564l0.073,0.624c-0.714,0.116-1.403,0.332-2.06,0.646l0.327,0.684
					c0.934-0.447,1.941-0.673,2.995-0.673c0.496,0,0.993,0.053,1.475,0.157l0.161-0.741
					C391.693,463.432,391.143,463.373,390.592,463.373z"/>
				<path id="XMLID_27_" style="fill:#1D262D;" d="M397.194,465.921c0.331-0.041,0.566-0.342,0.525-0.673
					c-0.04-0.331-0.342-0.565-0.672-0.525c-0.31,0.038-0.535,0.304-0.53,0.608l-0.416,0.363c-0.418-0.43-0.89-0.813-1.408-1.139
					l-0.403,0.641c1.134,0.715,2.02,1.727,2.563,2.926l0.69-0.313c-0.251-0.555-0.567-1.072-0.942-1.545l0.402-0.352
					C397.065,465.926,397.129,465.928,397.194,465.921z"/>
				<path id="XMLID_26_" style="fill:#1D262D;" d="M390.044,473.582c-0.386,0.023-0.774,0.034-1.157,0.034
					c-0.88,0-1.732-0.061-2.478-0.179c-0.391-0.063-0.847-0.155-1.271-0.292c1.046,1.86,3.069,3.125,5.389,3.125
					c2.855,0,5.262-1.916,5.949-4.504c-0.682,0.449-1.506,0.825-2.459,1.123C392.839,473.257,391.464,473.496,390.044,473.582z"/>
				<path id="XMLID_22_" style="fill:#1D262D;" d="M390.592,464.889c-3.353,0-6.079,2.666-6.079,5.943
					c0,0.426,0.046,0.849,0.137,1.262c0.674,0.482,2.706,0.89,5.348,0.73c2.879-0.173,5.297-0.957,6.672-2.158
					c-0.005-0.195-0.021-0.391-0.045-0.582C396.244,467.123,393.651,464.889,390.592,464.889z M388.433,471.404
					c-1.021,0-1.85-0.83-1.85-1.85c0-1.021,0.829-1.85,1.85-1.85c1.02,0,1.85,0.829,1.85,1.85
					C390.282,470.574,389.452,471.404,388.433,471.404z M393.17,470.496c-0.75,0-1.36-0.61-1.36-1.36s0.61-1.36,1.36-1.36
					s1.36,0.61,1.36,1.36S393.92,470.496,393.17,470.496z"/>
			</g>
			<path id="XMLID_19_" style="fill:#1D262D;" d="M406.596,466.757c-0.295-0.116-0.806-0.309-1.383-0.237
				c-0.551,0.068-0.844,0.341-0.844,1.007v0.865h2.228v1.718h-2.228v5.454h-1.932v-5.454h-1.34v-1.718h1.34v-0.888
				c0-1.681,0.896-2.783,2.568-2.783c0.642,0,1.157,0.122,1.59,0.309V466.757z"/>
			<path id="XMLID_17_" style="fill:#1D262D;" d="M411.298,470.089c-0.177-0.03-0.358-0.047-0.526-0.047
				c-0.895,0-1.51,0.548-1.51,1.614v3.907h-1.932v-7.172h1.873v0.785c0.451-0.674,1.14-0.978,2.021-0.978
				c0.414,0,0.848,0.128,1.094,0.337L411.298,470.089z"/>
			<path id="XMLID_14_" style="fill:#1D262D;" d="M418.965,471.966c0,0.222-0.015,0.488-0.037,0.651h-5.084
				c0.207,1.036,0.933,1.487,1.843,1.487c0.621,0,1.295-0.251,1.814-0.688l1.132,1.243c-0.813,0.747-1.85,1.088-3.057,1.088
				c-2.198,0-3.723-1.495-3.723-3.753c0-2.257,1.481-3.797,3.627-3.797C417.544,468.199,418.958,469.731,418.965,471.966z
				 M413.851,471.301h3.175c-0.177-0.918-0.732-1.436-1.562-1.436C414.554,469.864,414.022,470.412,413.851,471.301z"/>
			<path id="XMLID_11_" style="fill:#1D262D;" d="M426.618,471.966c0,0.222-0.015,0.488-0.037,0.651h-5.084
				c0.207,1.036,0.933,1.487,1.843,1.487c0.621,0,1.295-0.251,1.814-0.688l1.132,1.243c-0.815,0.747-1.851,1.088-3.057,1.088
				c-2.198,0-3.723-1.495-3.723-3.753c0-2.257,1.48-3.797,3.626-3.797C425.197,468.199,426.611,469.731,426.618,471.966z
				 M421.504,471.301h3.176c-0.178-0.918-0.733-1.436-1.563-1.436C422.207,469.864,421.674,470.412,421.504,471.301z"/>
			<path id="XMLID_8_" style="fill:#1D262D;" d="M434.964,471.974c0,2.153-1.495,3.775-3.471,3.775
				c-0.963,0-1.644-0.378-2.109-0.933v3.708h-1.925v-10.133h1.888v0.792c0.466-0.585,1.154-0.984,2.139-0.984
				C433.469,468.199,434.964,469.82,434.964,471.974z M429.287,471.974c0,1.132,0.748,1.976,1.843,1.976
				c1.14,0,1.851-0.881,1.851-1.976c0-1.096-0.711-1.977-1.851-1.977C430.035,469.998,429.287,470.841,429.287,471.974z"/>
			<path id="XMLID_4_" style="fill:#1D262D;" d="M438.068,466.046c0,0.695-0.54,1.229-1.235,1.229c-0.696,0-1.23-0.533-1.23-1.229
				c0-0.696,0.533-1.244,1.23-1.244C437.527,464.802,438.068,465.349,438.068,466.046z M437.809,475.563h-1.931v-7.172h1.931
				V475.563z"/>
			<path id="XMLID_2_" style="fill:#1D262D;" d="M441.032,470.945l2.701-2.554h2.369l-3.479,3.375l3.501,3.797h-2.376l-2.716-2.901
				v2.901h-1.932v-10.657h1.932V470.945z"/>
		</g>
		<g>
			<path style="fill:#1D262D;" d="M309.413,475.499v-1.055c-0.527,0.718-1.391,1.23-2.388,1.23c-1.846,0-3.149-1.406-3.149-3.706
				c0-2.256,1.289-3.721,3.149-3.721c0.952,0,1.816,0.469,2.388,1.245v-3.765h1.099v9.771H309.413z M309.413,473.58v-3.208
				c-0.395-0.615-1.245-1.143-2.124-1.143c-1.421,0-2.27,1.172-2.27,2.739c0,1.567,0.85,2.725,2.27,2.725
				C308.168,474.693,309.017,474.195,309.413,473.58z"/>
			<path style="fill:#1D262D;" d="M311.932,471.954c0-2.051,1.465-3.706,3.487-3.706c2.138,0,3.398,1.67,3.398,3.794v0.278h-5.728
				c0.088,1.333,1.025,2.446,2.549,2.446c0.806,0,1.626-0.322,2.183-0.893l0.527,0.718c-0.703,0.703-1.655,1.084-2.813,1.084
				C313.441,475.674,311.932,474.166,311.932,471.954z M315.404,469.156c-1.509,0-2.256,1.274-2.314,2.358h4.644
				C317.718,470.46,317.015,469.156,315.404,469.156z"/>
			<path style="fill:#1D262D;" d="M319.607,474.561l0.571-0.791c0.469,0.542,1.362,1.011,2.329,1.011c1.084,0,1.67-0.513,1.67-1.216
				c0-1.714-4.38-0.659-4.38-3.281c0-1.099,0.952-2.036,2.637-2.036c1.201,0,2.051,0.454,2.622,1.025l-0.513,0.762
				c-0.424-0.513-1.201-0.894-2.109-0.894c-0.967,0-1.567,0.483-1.567,1.113c0,1.553,4.379,0.527,4.379,3.281
				c0,1.187-0.952,2.139-2.783,2.139C321.306,475.674,320.325,475.323,319.607,474.561z"/>
			<path style="fill:#1D262D;" d="M326.477,466.68c0-0.41,0.337-0.747,0.732-0.747c0.41,0,0.747,0.337,0.747,0.747
				c0,0.41-0.337,0.732-0.747,0.732C326.814,467.413,326.477,467.091,326.477,466.68z M326.667,475.499v-7.075h1.099v7.075H326.667z
				"/>
			<path style="fill:#1D262D;" d="M329.582,477.315l0.557-0.82c0.586,0.703,1.289,0.967,2.3,0.967c1.172,0,2.27-0.571,2.27-2.124
				v-1.011c-0.512,0.718-1.376,1.26-2.373,1.26c-1.845,0-3.149-1.377-3.149-3.662c0-2.271,1.289-3.677,3.149-3.677
				c0.952,0,1.802,0.469,2.373,1.245v-1.069h1.099v6.87c0,2.344-1.641,3.076-3.369,3.076
				C331.237,478.37,330.417,478.135,329.582,477.315z M334.709,473.463v-3.091c-0.381-0.615-1.23-1.143-2.109-1.143
				c-1.421,0-2.271,1.128-2.271,2.695c0,1.553,0.849,2.695,2.271,2.695C333.478,474.62,334.328,474.078,334.709,473.463z"/>
			<path style="fill:#1D262D;" d="M342.413,475.499v-4.629c0-1.245-0.629-1.641-1.582-1.641c-0.865,0-1.685,0.527-2.095,1.099v5.171
				h-1.099v-7.075h1.099v1.025c0.498-0.586,1.464-1.201,2.519-1.201c1.479,0,2.256,0.747,2.256,2.285v4.966H342.413z"/>
			<path style="fill:#1D262D;" d="M344.933,471.954c0-2.051,1.465-3.706,3.486-3.706c2.138,0,3.398,1.67,3.398,3.794v0.278h-5.728
				c0.088,1.333,1.025,2.446,2.549,2.446c0.806,0,1.626-0.322,2.183-0.893l0.527,0.718c-0.703,0.703-1.655,1.084-2.813,1.084
				C346.442,475.674,344.933,474.166,344.933,471.954z M348.404,469.156c-1.509,0-2.256,1.274-2.314,2.358h4.643
				C350.719,470.46,350.015,469.156,348.404,469.156z"/>
			<path style="fill:#1D262D;" d="M358.35,475.499v-1.055c-0.527,0.718-1.392,1.23-2.388,1.23c-1.845,0-3.149-1.406-3.149-3.706
				c0-2.256,1.289-3.721,3.149-3.721c0.952,0,1.817,0.469,2.388,1.245v-3.765h1.098v9.771H358.35z M358.35,473.58v-3.208
				c-0.396-0.615-1.245-1.143-2.124-1.143c-1.421,0-2.271,1.172-2.271,2.739c0,1.567,0.85,2.725,2.271,2.725
				C357.105,474.693,357.954,474.195,358.35,473.58z"/>
			<path style="fill:#1D262D;" d="M364.692,475.499v-9.771h1.099v3.765c0.572-0.776,1.421-1.245,2.388-1.245
				c1.846,0,3.149,1.465,3.149,3.721c0,2.3-1.304,3.706-3.149,3.706c-0.996,0-1.86-0.513-2.388-1.23v1.055H364.692z M367.9,474.693
				c1.436,0,2.286-1.157,2.286-2.725c0-1.567-0.85-2.739-2.286-2.739c-0.864,0-1.728,0.527-2.109,1.143v3.208
				C366.172,474.195,367.036,474.693,367.9,474.693z"/>
			<path style="fill:#1D262D;" d="M372.529,477.271c0.161,0.073,0.425,0.117,0.601,0.117c0.483,0,0.805-0.161,1.055-0.747
				l0.468-1.069l-2.959-7.148h1.187l2.358,5.801l2.344-5.801h1.201l-3.545,8.511c-0.425,1.025-1.143,1.421-2.08,1.436
				c-0.234,0-0.601-0.044-0.806-0.103L372.529,477.271z"/>
		</g>
	</g>
</g>
</svg>
