<?xml version="1.0" encoding="utf-8"?>
<!-- Generator: Adobe Illustrator 27.5.0, SVG Export Plug-In . SVG Version: 6.00 Build 0)  -->
<svg version="1.1" xmlns="http://www.w3.org/2000/svg" xmlns:xlink="http://www.w3.org/1999/xlink" x="0px" y="0px"
	 viewBox="0 0 3710 3710" style="enable-background:new 0 0 3710 3710;" xml:space="preserve">
<g id="Background">
	<g>
		<g>
			<rect style="fill:#FFFFFF;" width="3710" height="3710"/>
		</g>
	</g>
</g>
<g id="Illustration">
	<g>
		<linearGradient id="SVGID_1_" gradientUnits="userSpaceOnUse" x1="3576.7275" y1="4000.304" x2="1163.9354" y2="1003.7673">
			<stop  offset="0" style="stop-color:#DAE3FE"/>
			<stop  offset="1" style="stop-color:#E9EFFD"/>
		</linearGradient>
		<path style="fill:url(#SVGID_1_);" d="M2912.953,2818.578c-55.421,58.345-107.86,95.97-149.291,125.698
			c-487.011,349.436-1063.274,247.577-1185.747,222.702c-180.853-36.732-530.438-107.735-783.182-404.956
			c-382.38-449.671-322.838-1158.115-26.238-1625.769c54.253-85.542,340.832-560.319,923.302-636.458
			c352.505-46.079,763.412,46.857,1060.979,296.159C3377.399,1319.262,3332.932,2376.438,2912.953,2818.578z"/>
		<g>
			<g>
				
					<ellipse transform="matrix(0.7071 -0.7071 0.7071 0.7071 -412.7773 1985.4924)" style="fill:#BDD0FB;" cx="2190.313" cy="1491.012" rx="815.889" ry="815.889"/>
				<g>
					
						<linearGradient id="SVGID_00000103229823210791985830000015125497284675297446_" gradientUnits="userSpaceOnUse" x1="2796.9448" y1="685.6103" x2="1229.0734" y2="2767.2134">
						<stop  offset="0" style="stop-color:#4F52FF"/>
						<stop  offset="1" style="stop-color:#4042E2"/>
					</linearGradient>
					
						<circle style="fill:url(#SVGID_00000103229823210791985830000015125497284675297446_);" cx="2190.313" cy="1491.013" r="696.33"/>
					<path style="fill:#FFFFFF;" d="M2190.312,2222.22c-403.186,0-731.205-328.016-731.205-731.208s328.019-731.208,731.205-731.208
						s731.205,328.016,731.205,731.208S2593.498,2222.22,2190.312,2222.22z M2190.312,794.682
						c-383.957,0-696.326,312.369-696.326,696.329c0,383.961,312.37,696.329,696.326,696.329
						c383.957,0,696.326-312.369,696.326-696.329C2886.638,1107.052,2574.269,794.682,2190.312,794.682z"/>
				</g>
				<g>
					
						<linearGradient id="SVGID_00000119099041503306508030000009672890692207856035_" gradientUnits="userSpaceOnUse" x1="2796.9443" y1="685.6104" x2="1229.0756" y2="2767.21">
						<stop  offset="0" style="stop-color:#4F52FF"/>
						<stop  offset="1" style="stop-color:#4042E2"/>
					</linearGradient>
					
						<circle style="fill:url(#SVGID_00000119099041503306508030000009672890692207856035_);" cx="2190.313" cy="1491.012" r="424.516"/>
					<path style="fill:#FFFFFF;" d="M2190.312,1950.407c-253.309,0-459.392-206.086-459.392-459.396
						s206.083-459.389,459.392-459.389c253.31,0,459.393,206.079,459.393,459.389S2443.621,1950.407,2190.312,1950.407z
						 M2190.312,1101.375c-214.848,0-389.64,174.789-389.64,389.637s174.792,389.644,389.64,389.644
						c214.849,0,389.64-174.796,389.64-389.644S2405.16,1101.375,2190.312,1101.375z"/>
				</g>
				<g>
					
						<linearGradient id="SVGID_00000139265896644588604770000017727359092900773790_" gradientUnits="userSpaceOnUse" x1="2796.9441" y1="685.6105" x2="1229.0765" y2="2767.2085">
						<stop  offset="0" style="stop-color:#4F52FF"/>
						<stop  offset="1" style="stop-color:#4042E2"/>
					</linearGradient>
					
						<circle style="fill:url(#SVGID_00000139265896644588604770000017727359092900773790_);" cx="2190.313" cy="1491.012" r="164.47"/>
					<path style="fill:#FFFFFF;" d="M2190.312,1690.36c-109.919,0-199.345-89.425-199.345-199.348
						c0-109.923,89.426-199.348,199.345-199.348c109.92,0,199.348,89.425,199.348,199.348
						C2389.66,1600.935,2300.231,1690.36,2190.312,1690.36z M2190.312,1361.416c-71.458,0-129.593,58.135-129.593,129.596
						c0,71.461,58.135,129.596,129.593,129.596c71.458,0,129.596-58.135,129.596-129.596
						C2319.908,1419.551,2261.77,1361.416,2190.312,1361.416z"/>
				</g>
			</g>
			<g>
				
					<linearGradient id="SVGID_00000050636144153082540850000012329218131649140891_" gradientUnits="userSpaceOnUse" x1="42.2282" y1="4479.811" x2="-193.7789" y2="5438.5864" gradientTransform="matrix(-0.7071 -0.7071 0.7071 -0.7071 -1192.2574 4633.1733)">
					<stop  offset="0" style="stop-color:#09005D"/>
					<stop  offset="1" style="stop-color:#1A0F91"/>
				</linearGradient>
				<polygon style="fill:url(#SVGID_00000050636144153082540850000012329218131649140891_);" points="3106.09,560.817 
					3126.951,581.677 2337.034,1371.593 2316.174,1350.733 				"/>
				
					<linearGradient id="SVGID_00000037656939355828566350000015423838491215793086_" gradientUnits="userSpaceOnUse" x1="2401.7422" y1="152.901" x2="2341.6831" y2="768.5062">
					<stop  offset="0" style="stop-color:#FF928E"/>
					<stop  offset="1" style="stop-color:#FE7062"/>
				</linearGradient>
				<path style="fill:url(#SVGID_00000037656939355828566350000015423838491215793086_);" d="M2330.948,1300.401
					c11.967-11.968,68.386,44.451,56.418,56.418l-209.253,164.505c-7.731,6.077-17.748-3.94-11.67-11.671L2330.948,1300.401z"/>
				
					<linearGradient id="SVGID_00000153690975636081479370000003612620962822233275_" gradientUnits="userSpaceOnUse" x1="2905.1003" y1="693.381" x2="3232.7676" y2="693.381">
					<stop  offset="0" style="stop-color:#4F52FF"/>
					<stop  offset="1" style="stop-color:#4042E2"/>
				</linearGradient>
				<path style="fill:url(#SVGID_00000153690975636081479370000003612620962822233275_);" d="M3126.5,582.128l106.268,10.562
					l-145.885,145.886c-47.798,47.798-114.516,71.636-181.782,64.95l0,0L3126.5,582.128z"/>
				
					<linearGradient id="SVGID_00000174600665494015077840000008885937374971921064_" gradientUnits="userSpaceOnUse" x1="2883.1333" y1="618.8334" x2="3105.6389" y2="618.8334">
					<stop  offset="0" style="stop-color:#4F52FF"/>
					<stop  offset="1" style="stop-color:#4042E2"/>
				</linearGradient>
				<path style="fill:url(#SVGID_00000174600665494015077840000008885937374971921064_);" d="M3105.639,561.268L3095.077,455
					l-145.885,145.886c-47.798,47.798-71.637,114.516-64.951,181.781l0,0L3105.639,561.268z"/>
			</g>
		</g>
		<g>
			
				<linearGradient id="SVGID_00000121250635193316647800000000782583073634720943_" gradientUnits="userSpaceOnUse" x1="2354.5017" y1="1650.9198" x2="2321.7329" y2="2870.906">
				<stop  offset="0" style="stop-color:#09005D"/>
				<stop  offset="1" style="stop-color:#1A0F91"/>
			</linearGradient>
			<path style="fill:url(#SVGID_00000121250635193316647800000000782583073634720943_);" d="M2487.74,2970.974
				c-29.381-296.365-102.906-1032.458-118.958-1140.048c-20.174-135.225-185.878-105.38-185.878-105.38l-35.483,1368.414h231.04
				c31.05,0,60.662-13.386,81.472-36.854C2480.745,3033.636,2490.859,3002.436,2487.74,2970.974z"/>
			
				<linearGradient id="SVGID_00000178197075482055272940000006301840599873490612_" gradientUnits="userSpaceOnUse" x1="-3162.0042" y1="4611.105" x2="-4923.5137" y2="6924.7983" gradientTransform="matrix(0.0212 -0.9997 0.9997 0.0212 -3991.1919 -1525.9956)">
				<stop  offset="0" style="stop-color:#09005D"/>
				<stop  offset="1" style="stop-color:#1A0F91"/>
			</linearGradient>
			<path style="fill:url(#SVGID_00000178197075482055272940000006301840599873490612_);" d="M618.547,3128.455
				c-72.147-1.531-129.392-61.259-127.862-133.406l23.565-1110.921c1.3-61.288,50.402-110.806,111.677-112.625l1612.366-47.836
				c47.951-1.423,87.552,37.139,87.407,85.11l-3.867,1273.746c-0.136,45.075-37.221,81.271-82.288,80.315L618.547,3128.455z"/>
			<g>
				<path style="fill:#91B3FA;" d="M514.635,3035.197c-23.085-0.355-40.52-21.033-36.934-43.843
					c23.791-151.27,98.485-671.596,74.524-1103.618c-1.092-19.701,14.174-36.455,33.895-37.083l1619.63-51.666
					c22.208-0.71,40.818,16.632,41.66,38.836c6.887,181.629,32.541,929.589-1.023,1195.468
					c-2.042,16.183-15.958,28.203-32.267,27.953L514.635,3035.197z"/>
				<path style="fill:#BDD0FB;" d="M555.556,3018.186c-22.217-0.339-38.997-20.24-35.543-42.189
					c22.894-145.574,94.776-646.308,71.718-1062.061c-1.052-18.959,13.638-35.083,32.617-35.688l1558.642-49.72
					c21.372-0.681,39.281,16.006,40.091,37.374c6.629,174.792,31.316,894.586-0.984,1150.454
					c-1.965,15.572-15.358,27.14-31.051,26.9L555.556,3018.186z"/>
			</g>
			<path style="opacity:0.72;fill:#FFFFFF;" d="M1513.536,2142.384l-2.38,112.253c-0.364,17.134,13.375,31.247,30.511,31.343
				l115.139,0.65c16.764,0.095,30.502-13.28,30.858-30.04l2.504-118.013c0.376-17.738-14.32-32.099-32.046-31.313l-115.259,5.11
				C1526.707,2113.09,1513.879,2126.216,1513.536,2142.384z"/>
			<path style="opacity:0.72;fill:#FFFFFF;" d="M1110.985,2285.034l115.138,0.652c16.764,0.094,30.503-13.281,30.858-30.042
				l2.129-100.373c0.374-17.635-14.159-31.957-31.787-31.323l-115.239,4.139c-16.259,0.583-29.239,13.753-29.583,30.021
				l-2.028,95.584C1080.111,2270.825,1093.847,2284.938,1110.985,2285.034z"/>
			<path style="opacity:0.72;fill:#FFFFFF;" d="M1211.864,2785.042l-109.523-1.061c-18.347-0.179-33.422,14.437-33.812,32.781
				l-2.175,102.566c-0.386,18.219,13.863,33.404,32.07,34.174l109.448,4.634c18.759,0.794,34.504-13.983,34.902-32.755
				l2.253-106.136C1245.422,2800.601,1230.514,2785.223,1211.864,2785.042z"/>
			<path style="opacity:0.72;fill:#FFFFFF;" d="M1027.604,2916.858l2.128-100.283c0.389-18.325-14.266-33.438-32.593-33.617
				l-110.673-1.073c-18.032-0.174-32.849,14.191-33.232,32.22l-2.05,96.676c-0.38,17.906,13.626,32.83,31.521,33.589l110.596,4.681
				C1011.736,2949.832,1027.213,2935.307,1027.604,2916.858z"/>
			<path style="opacity:0.72;fill:#FFFFFF;" d="M1037.208,2464.124l1.746-82.321c0.422-19.88-15.598-36.213-35.481-36.177
				l-105.685,0.19c-19.247,0.034-34.946,15.431-35.354,34.676l-1.67,78.673c-0.412,19.402,14.864,35.523,34.26,36.159l105.607,3.456
				C1020.344,2499.425,1036.79,2483.843,1037.208,2464.124z"/>
			<path style="opacity:0.72;fill:#FFFFFF;" d="M1032.134,2703.351l2.67-125.914c0.384-18.028-13.811-33.009-31.835-33.6
				l-108.083-3.536c-19.715-0.646-36.16,14.934-36.578,34.655l-2.694,126.986c-0.391,18.449,14.457,33.615,32.909,33.618
				l110.695,0.012C1017.127,2735.574,1031.754,2721.256,1032.134,2703.351z"/>
			<path style="opacity:0.72;fill:#FFFFFF;" d="M1326.311,2286.252l115.137,0.649c16.763,0.095,30.502-13.279,30.858-30.04
				l2.318-109.331c0.375-17.635-14.159-31.956-31.786-31.323l-115.238,4.139c-16.259,0.584-29.238,13.756-29.583,30.023
				l-2.218,104.54C1295.436,2272.043,1309.174,2286.155,1326.311,2286.252z"/>
			<path style="opacity:0.72;fill:#FFFFFF;" d="M1247.495,2702.813l2.499-117.764c0.389-18.342-14.053-33.585-32.391-34.186
				l-109.47-3.583c-18.639-0.61-34.187,14.121-34.582,32.765l-2.574,121.335c-0.398,18.771,14.708,34.201,33.482,34.205
				l109.547,0.012C1232.229,2735.597,1247.11,2721.031,1247.495,2702.813z"/>
			<path style="opacity:0.72;fill:#FFFFFF;" d="M1444.446,2344.829l-125.733,0.228c-13.803,0.024-25.06,11.064-25.354,24.864
				l-2.401,113.236c-0.294,13.915,10.659,25.474,24.567,25.929l125.642,4.111c14.136,0.464,25.93-10.709,26.229-24.849
				l2.494-117.578C1470.192,2356.515,1458.705,2344.803,1444.446,2344.829z"/>
			<path style="opacity:0.72;fill:#FFFFFF;" d="M1508.583,2375.907l-2.289,107.844c-0.371,17.487,13.396,32.017,30.877,32.589
				l112.601,3.685c17.767,0.581,32.588-13.46,32.966-31.233l2.37-111.735c0.38-17.917-14.057-32.638-31.979-32.606l-112.683,0.204
				C1523.098,2344.687,1508.95,2358.563,1508.583,2375.907z"/>
			<path style="opacity:0.72;fill:#FFFFFF;" d="M1100.322,2502.042l125.644,4.113c14.137,0.463,25.928-10.711,26.228-24.851
				l2.337-110.144c0.303-14.256-11.185-25.968-25.443-25.942l-125.736,0.226c-13.803,0.026-25.059,11.067-25.353,24.865
				l-2.243,105.804C1075.461,2490.026,1086.414,2501.587,1100.322,2502.042z"/>
			<path style="opacity:0.72;fill:#FFFFFF;" d="M1432.804,2557.906l-109.469-3.583c-18.638-0.61-34.187,14.12-34.582,32.765
				l-2.425,114.314c-0.398,18.77,14.708,34.203,33.482,34.205l109.546,0.013c18.223,0.002,33.103-14.564,33.489-32.784l2.35-110.744
				C1465.583,2573.748,1451.143,2558.506,1432.804,2557.906z"/>
			<path style="opacity:0.72;fill:#FFFFFF;" d="M1651.794,2565.074l-117.134-3.834c-16.505-0.542-30.273,12.504-30.623,29.015
				l-2.442,115.086c-0.353,16.622,13.025,30.287,29.65,30.289l117.215,0.013c16.136,0.002,29.316-12.899,29.657-29.031
				l2.361-111.266C1680.821,2579.103,1668.034,2565.605,1651.794,2565.074z"/>
			<path style="opacity:0.72;fill:#FFFFFF;" d="M911.762,2282.421l87.388,0.493c23.244,0.131,42.293-18.412,42.784-41.651
				l1.53-72.097c0.463-21.785-17.491-39.475-39.265-38.693l-97.254,3.492c-22.065,0.793-39.68,18.667-40.147,40.744l-1.278,60.21
				C864.97,2260.886,885.79,2282.274,911.762,2282.421z"/>
			<path style="opacity:0.72;fill:#FFFFFF;" d="M814.37,2817.023c0.418-19.721-15.35-35.985-35.074-36.176l-38.068-0.37
				c-28.932-0.282-52.588,18.841-53.099,42.926l-1.478,69.695c-0.506,23.886,21.952,43.901,50.621,45.115l40.87,1.73
				c18.435,0.781,33.914-13.742,34.304-32.191L814.37,2817.023z"/>
			<path style="opacity:0.72;fill:#FFFFFF;" d="M2038.462,2793.06l-74.866-0.726c-18.363-0.177-33.45,14.451-33.839,32.81
				l-2.771,130.588c-0.387,18.233,13.875,33.432,32.096,34.203l74.526,3.154c29.716,1.258,54.646-18.115,55.171-42.871
				l2.377-111.989C2091.675,2813.672,2067.965,2793.347,2038.462,2793.06z"/>
			<path style="opacity:0.72;fill:#FFFFFF;" d="M744.252,2735.542l37.16,0.005c19.275,0.001,35.013-15.405,35.422-34.675
				l2.715-128.001c0.413-19.402-14.863-35.524-34.259-36.158l-37.403-1.224c-29.49-0.966-54.04,18.336-54.562,42.895l-2.375,111.987
				C690.424,2715.128,714.511,2735.54,744.252,2735.542z"/>
			<path style="opacity:0.72;fill:#FFFFFF;" d="M747.379,2490.491l46.779,1.531c14.909,0.488,27.345-11.295,27.663-26.21
				l1.961-92.452c0.319-15.036-11.798-27.389-26.834-27.362l-47.237,0.086c-28.647,0.051-51.863,19.08-52.368,42.927l-1.196,56.341
				C695.637,2469.436,718.462,2489.544,747.379,2490.491z"/>
			<path style="opacity:0.72;fill:#FFFFFF;" d="M2050.42,2092.898l-75.076,2.697c-16.914,0.607-30.416,14.308-30.774,31.23
				l-2.736,128.99c-0.378,17.823,13.912,32.504,31.74,32.604l77.304,0.437c28.833,0.163,52.331-18.927,52.84-42.927l2.289-107.898
				C2106.548,2112.521,2081.025,2091.798,2050.42,2092.898z"/>
			<path style="opacity:0.72;fill:#FFFFFF;" d="M1427.171,2787.131l-109.523-1.063c-18.347-0.177-33.422,14.439-33.812,32.783
				l-2.323,109.584c-0.387,18.219,13.863,33.404,32.07,34.175l109.446,4.632c18.758,0.795,34.505-13.982,34.903-32.752
				l2.401-113.156C1460.727,2802.689,1445.819,2787.312,1427.171,2787.131z"/>
			<path style="opacity:0.72;fill:#FFFFFF;" d="M2047.26,2343.74l-76.095,0.137c-17.347,0.032-31.494,13.909-31.863,31.251
				l-2.603,122.71c-0.372,17.487,13.395,32.016,30.876,32.588l76.403,2.501c29.489,0.965,54.039-18.337,54.561-42.895l2.145-101.12
				C2101.211,2364.115,2077.051,2343.687,2047.26,2343.74z"/>
			<path style="opacity:0.72;fill:#FFFFFF;" d="M2044.488,2577.926l-79.425-2.599c-16.505-0.54-30.274,12.504-30.624,29.015
				l-2.143,101.048c-0.353,16.622,13.025,30.287,29.65,30.289l79.805,0.009c28.694,0.003,51.981-19.042,52.488-42.928l1.479-69.694
				C2096.229,2598.981,2073.406,2578.873,2044.488,2577.926z"/>
			<path style="opacity:0.72;fill:#FFFFFF;" d="M1719.239,2597.299l-2.294,108.067c-0.352,16.621,13.025,30.288,29.651,30.29
				l117.215,0.012c16.138,0.002,29.315-12.898,29.657-29.032l2.212-104.247c0.345-16.243-12.445-29.741-28.683-30.271
				l-117.134-3.834C1733.357,2567.742,1719.589,2580.788,1719.239,2597.299z"/>
			<path style="opacity:0.72;fill:#FFFFFF;" d="M1857.757,2791.307l-109.468-1.061c-18.363-0.178-33.451,14.45-33.84,32.809
				l-2.622,123.569c-0.387,18.233,13.875,33.43,32.096,34.203l109.393,4.629c18.774,0.796,34.534-13.994,34.932-32.781
				l2.697-127.136C1891.342,2806.879,1876.42,2791.489,1857.757,2791.307z"/>
			<path style="opacity:0.72;fill:#FFFFFF;" d="M753.531,2281.526l45.81,0.259c14.635,0.083,26.628-11.593,26.939-26.224
				l1.918-90.426c0.326-15.395-12.359-27.897-27.748-27.344l-48.522,1.742c-27.774,0.998-49.713,19.739-50.203,42.887l-1.144,53.935
				C700.057,2260.997,723.926,2281.359,753.531,2281.526z"/>
			<path style="opacity:0.72;fill:#FFFFFF;" d="M1642.449,2789.22l-107.626-1.044c-19.384-0.188-35.31,15.253-35.72,34.632
				l-2.433,114.708c-0.387,18.234,13.875,33.432,32.098,34.203l109.39,4.63c18.774,0.794,34.534-13.995,34.932-32.781l2.548-120.118
				C1676.034,2804.79,1661.113,2789.401,1642.449,2789.22z"/>
			<path style="opacity:0.72;fill:#FFFFFF;" d="M1729.054,2134.565l-2.547,120.032c-0.378,17.824,13.914,32.503,31.74,32.604
				l112.665,0.636c17.439,0.098,31.732-13.814,32.102-31.25l2.645-124.719c0.39-18.345-14.728-33.243-33.067-32.584l-112.765,4.049
				C1742.914,2103.942,1729.412,2117.644,1729.054,2134.565z"/>
			<path style="opacity:0.72;fill:#FFFFFF;" d="M1723.943,2375.517l-2.446,115.278c-0.371,17.487,13.396,32.017,30.876,32.588
				l112.602,3.686c17.767,0.582,32.587-13.46,32.964-31.235l2.528-119.167c0.381-17.917-14.056-32.637-31.978-32.604l-112.683,0.203
				C1738.458,2344.298,1724.31,2358.174,1723.943,2375.517z"/>
			<path style="fill:#FFFFFF;" d="M741.036,2042.293l5.188,38.012c1.661,12.171,11.928,21.327,24.21,21.588l1.796,0.038
				c13.786,0.292,25.201-10.647,25.493-24.434l0.825-38.91c0.321-15.08-12.702-26.998-27.695-25.347l-7.808,0.86
				C749.084,2015.636,739.137,2028.378,741.036,2042.293z"/>
			<path style="fill:#FFFFFF;" d="M917.47,2032.509l5.188,38.012c1.66,12.172,11.928,21.327,24.209,21.587l1.796,0.039
				c13.787,0.292,25.2-10.647,25.492-24.434l0.826-38.91c0.319-15.08-12.702-26.999-27.694-25.349l-7.809,0.86
				C925.518,2005.85,915.571,2018.594,917.47,2032.509z"/>
			<path style="fill:#FFFFFF;" d="M1134.548,2035.497l5.189,38.012c1.66,12.171,11.928,21.327,24.209,21.587l1.797,0.038
				c13.787,0.293,25.2-10.647,25.492-24.434l0.827-38.91c0.319-15.08-12.702-26.998-27.696-25.348l-7.808,0.86
				C1142.596,2008.839,1132.65,2021.582,1134.548,2035.497z"/>
			<path style="fill:#FFFFFF;" d="M1346.046,2026.026l5.187,38.011c1.661,12.171,11.928,21.327,24.21,21.588l1.796,0.037
				c13.787,0.294,25.201-10.647,25.493-24.433l0.825-38.91c0.32-15.08-12.702-26.998-27.694-25.348l-7.809,0.859
				C1354.095,1999.367,1344.147,2012.109,1346.046,2026.026z"/>
			<path style="fill:#FFFFFF;" d="M1563.276,1998.402l5.188,38.013c1.66,12.17,11.928,21.327,24.209,21.588l1.796,0.038
				c13.787,0.293,25.2-10.648,25.492-24.435l0.826-38.908c0.319-15.08-12.702-26.999-27.695-25.35l-7.809,0.86
				C1571.324,1971.744,1561.378,1984.488,1563.276,1998.402z"/>
			<path style="fill:#FFFFFF;" d="M1793.399,2003.284l5.187,38.013c1.661,12.17,11.928,21.326,24.21,21.587l1.796,0.038
				c13.787,0.293,25.2-10.646,25.493-24.434l0.825-38.908c0.319-15.08-12.702-26.999-27.694-25.349l-7.809,0.859
				C1801.446,1976.626,1791.5,1989.37,1793.399,2003.284z"/>
			<path style="fill:#FFFFFF;" d="M1987.636,1999.216l5.188,38.012c1.66,12.171,11.928,21.327,24.209,21.587l1.797,0.038
				c13.787,0.293,25.2-10.647,25.492-24.434l0.826-38.91c0.319-15.08-12.702-26.998-27.696-25.348l-7.808,0.86
				C1995.684,1972.558,1985.737,1985.301,1987.636,1999.216z"/>
			<g>
				
					<linearGradient id="SVGID_00000027575773860839676210000001583275894597448076_" gradientUnits="userSpaceOnUse" x1="2607.0376" y1="962.3293" x2="2219.9722" y2="1542.9268">
					<stop  offset="0" style="stop-color:#FF928E"/>
					<stop  offset="1" style="stop-color:#FE7062"/>
				</linearGradient>
				<path style="fill:url(#SVGID_00000027575773860839676210000001583275894597448076_);" d="M1913.879,1988.749
					c-0.477-8.215-9.06-11.734-15.381-6.757c-17.853,14.061-25.11,35.904-33.907,56.274c-10.253,23.738-20.078,47.661-28.807,72.005
					c-9.203,25.663-17.048,51.787-23.022,78.315c-11.847-31.686-25.616-62.55-43.079-91.835c-4.636-7.775-17.73-3.228-15.134,6.006
					c15.102,53.683,33.685,106.275,47.907,160.231c5.019,19.038,31.057,14.54,32.996-3.755c5.295-49.967,17.361-97.766,34.49-144.96
					c8.145-22.436,17.234-44.522,26.654-66.449C1904.938,2028.409,1915.136,2010.31,1913.879,1988.749z"/>
				
					<linearGradient id="SVGID_00000036931016654521291420000002105662909713894027_" gradientUnits="userSpaceOnUse" x1="2643.7083" y1="986.7781" x2="2256.6414" y2="1567.3777">
					<stop  offset="0" style="stop-color:#FF928E"/>
					<stop  offset="1" style="stop-color:#FE7062"/>
				</linearGradient>
				<path style="fill:url(#SVGID_00000036931016654521291420000002105662909713894027_);" d="M1938.405,2028.567
					c-15.531-2.907-21.18,16.972-6.938,23.237c94.235,41.461,106.555,158.29,38.479,229.031
					c-31.488,32.719-73.265,58.115-112.824,79.944c-40.124,22.14-84.913,39.055-131.474,34.377
					c-107.927-10.842-122.598-120.69-90.33-205.453c31.034-81.526,97.505-144.464,178.88-174.634
					c10.512-3.896,6.44-21.008-4.336-17.145c-76.352,27.379-141.336,81.391-181.594,152.071
					c-37.031,65.013-59.247,156.718-10.773,221.98c50.16,67.532,145.37,68.742,217.104,40.588
					c78.906-30.967,177.155-88.417,208.567-171.79C2076.074,2153.435,2035.461,2046.726,1938.405,2028.567z"/>
			</g>
			<g>
				<path style="fill:#91B3FA;" d="M2325.7,3072.868c-2.244,0-4.071-1.811-4.087-4.06l-4.967-717.223
					c-0.015-2.258,1.802-4.101,4.06-4.117c0,0,0.019,0,0.029,0c2.244,0,4.071,1.811,4.087,4.06l4.967,717.223
					c0.015,2.258-1.802,4.101-4.06,4.117C2325.729,3072.868,2325.71,3072.868,2325.7,3072.868z"/>
				<path style="fill:#91B3FA;" d="M2319.593,2190.962c-2.244,0-4.072-1.813-4.087-4.061l-1.735-250.493
					c-0.015-2.257,1.802-4.1,4.06-4.116h0.029c2.244,0,4.071,1.812,4.087,4.06l1.735,250.494c0.015,2.258-1.802,4.101-4.06,4.115
					C2319.622,2190.96,2319.602,2190.962,2319.593,2190.962z"/>
			</g>
			
				<ellipse transform="matrix(0.7071 -0.7071 0.7071 0.7071 -1139.8541 1122.0474)" style="fill:#91B3FA;" cx="784.504" cy="1936.949" rx="43.7" ry="43.7"/>
			
				<ellipse transform="matrix(0.7071 -0.7071 0.7071 0.7071 -1032.6047 1374.2462)" style="fill:#91B3FA;" cx="1142.56" cy="1933.587" rx="43.7" ry="43.7"/>
			
				<ellipse transform="matrix(0.3827 -0.9239 0.9239 0.3827 -847.1 2575.8665)" style="fill:#91B3FA;" cx="1503.977" cy="1921.82" rx="43.7" ry="43.7"/>
			
				<ellipse transform="matrix(0.2298 -0.9732 0.9732 0.2298 -419.8239 3279.5498)" style="fill:#91B3FA;" cx="1862.033" cy="1905.01" rx="43.7" ry="43.7"/>
			<g>
				<path style="fill:#7D97F4;" d="M1895.269,1602.198c-73.538,16.045-66.6,209.517-60.682,288.064
					c1.393,18.483,16.787,32.742,35.323,32.742c5.146,0,10.049-2.216,13.486-6.045c3.437-3.829,5.079-8.953,4.532-14.069
					c-6.352-59.367-19.869-230.333,34.269-239.475c0,0,38.834-6.871,45.368,68.352h42.014
					C2009.578,1731.766,1987.725,1582.026,1895.269,1602.198z"/>
				<path style="fill:#7D97F4;" d="M1537.214,1612.146c-73.538,16.045-66.6,209.586-60.682,288.133
					c1.393,18.483,16.787,32.776,35.323,32.776c5.146,0,10.049-2.199,13.486-6.028c3.437-3.829,5.079-8.944,4.532-14.061
					c-6.353-59.367-19.869-230.466,34.27-239.608c0,0,38.834-5.369,45.367,68.219h42.014
					C1651.522,1741.578,1629.669,1591.974,1537.214,1612.146z"/>
				<path style="fill:#7D97F4;" d="M1179.158,1622.142c-73.539,16.045-66.6,209.631-60.682,288.178
					c1.393,18.484,16.787,32.799,35.323,32.799c5.146,0,10.049-2.188,13.486-6.017c3.437-3.829,5.079-8.938,4.532-14.055
					c-6.352-59.367-19.869-230.553,34.269-239.695c0,0,38.816-4.372,45.35,69.593l42.032-1.461
					C1293.467,1751.484,1271.614,1601.97,1179.158,1622.142z"/>
				<path style="fill:#7D97F4;" d="M821.102,1633.703c-73.538,16.045-66.6,209.734-60.682,288.281
					c1.393,18.484,16.787,32.85,35.323,32.85c5.146,0,10.049-2.161,13.486-5.991c3.437-3.829,5.079-8.925,4.532-14.042
					c-6.352-59.367-19.869-230.754,34.269-239.896c0,0,38.834-5.657,45.368,67.931h42.014
					C935.411,1762.836,913.558,1613.53,821.102,1633.703z"/>
			</g>
		</g>
		<g>
			
				<linearGradient id="SVGID_00000060008909532023837160000015642738043244818869_" gradientUnits="userSpaceOnUse" x1="920.88" y1="651.8757" x2="-14.2863" y2="1717.8157" gradientTransform="matrix(-1 0 0 1 2062.8765 0)">
				<stop  offset="0" style="stop-color:#09005D"/>
				<stop  offset="1" style="stop-color:#1A0F91"/>
			</linearGradient>
			<path style="fill:url(#SVGID_00000060008909532023837160000015642738043244818869_);" d="M1024.334,937.417
				c0,193.545,162.833,350.444,363.696,350.444s372.692-163.755,372.692-357.3s-171.828-343.588-372.692-343.588
				S1024.334,743.873,1024.334,937.417z"/>
			<g>
				<path style="fill:#BDD0FB;" d="M1732.167,852.207c0.216,0,0.432-0.024,0.648-0.08c1.341-0.345,2.139-1.669,1.783-2.964
					c-3.914-14.16-8.913-28.208-14.86-41.748c-0.542-1.229-2.023-1.791-3.292-1.285c-1.278,0.524-1.873,1.942-1.334,3.176
					c5.857,13.328,10.779,27.158,14.63,41.106C1730.041,851.493,1731.059,852.207,1732.167,852.207z"/>
				<path style="fill:#BDD0FB;" d="M1676.59,742.692c0.525,0,1.056-0.161,1.51-0.487c1.106-0.804,1.327-2.325,0.493-3.389
					c-67.384-86.101-175.925-137.501-290.347-137.501c-48.867,0-96.133,9.548-140.48,28.368c-1.268,0.539-1.844,1.971-1.285,3.191
					c0.557,1.224,2.041,1.777,3.311,1.243c43.704-18.556,90.289-27.962,138.454-27.962c112.855,0,219.895,50.681,286.335,135.572
					C1675.077,742.361,1675.827,742.692,1676.59,742.692z"/>
			</g>
			<path style="fill:#7D97F4;" d="M1073.816,937.417c0,167.534,140.95,303.347,314.819,303.347s322.606-141.747,322.606-309.281
				c0-167.534-148.736-297.414-322.606-297.414S1073.816,769.883,1073.816,937.417z"/>
			<path style="fill:#91B3FA;" d="M1073.817,937.417c0-167.534,140.949-303.348,314.819-303.348
				c94.15,0,180.917,38.098,240.702,99.621l-242.514,194.433l-49.855,308.552C1187.683,1212.922,1073.817,1087.993,1073.817,937.417
				z"/>
			<path style="opacity:0.78;fill:#FFFFFF;" d="M1630.787,921.684c0.779,12.877,12.241,22.708,25.606,21.958
				c13.363-0.75,23.566-11.795,22.788-24.672c-0.778-12.876-12.242-22.708-25.606-21.958
				C1640.212,897.761,1630.01,908.807,1630.787,921.684z"/>
			<path style="opacity:0.78;fill:#FFFFFF;" d="M1107.147,951.052c0.777,12.877,12.242,22.707,25.605,21.958
				c13.364-0.75,23.567-11.796,22.789-24.672c-0.778-12.876-12.242-22.708-25.605-21.958
				C1116.572,927.129,1106.369,938.174,1107.147,951.052z"/>
			<path style="opacity:0.78;fill:#FFFFFF;" d="M1435.932,1160.63c-13.169,2.318-21.893,14.483-19.488,27.171
				s15.031,21.096,28.198,18.778c13.168-2.318,21.893-14.483,19.488-27.171C1461.725,1166.72,1449.1,1158.313,1435.932,1160.63z"/>
			<path style="opacity:0.78;fill:#FFFFFF;" d="M1341.686,663.442c-13.169,2.318-21.894,14.482-19.489,27.171
				c2.405,12.689,15.029,21.096,28.198,18.778c13.168-2.317,21.894-14.482,19.489-27.17
				C1367.479,669.531,1354.854,661.125,1341.686,663.442z"/>
			<path style="opacity:0.78;fill:#FFFFFF;" d="M1263.617,1173.979c-2.464,5.988-1.849,11.594,1.374,12.523
				c3.222,0.928,7.832-3.174,10.294-9.161c2.463-5.988,1.847-11.596-1.374-12.524
				C1270.688,1163.89,1266.079,1167.992,1263.617,1173.979z"/>
			<path style="opacity:0.78;fill:#FFFFFF;" d="M1474.277,702.396c-2.463,5.988-1.848,11.594,1.374,12.523
				c3.223,0.929,7.832-3.173,10.295-9.16c2.463-5.988,1.848-11.595-1.375-12.524C1481.349,692.307,1476.74,696.408,1474.277,702.396
				z"/>
			<path style="opacity:0.78;fill:#FFFFFF;" d="M1153.623,1084.332c-5.331,3.885-7.827,8.985-5.573,11.391
				c2.254,2.406,8.402,1.206,13.735-2.678c5.331-3.886,7.826-8.986,5.573-11.391
				C1165.104,1079.248,1158.955,1080.447,1153.623,1084.332z"/>
			<path style="opacity:0.78;fill:#FFFFFF;" d="M1587.778,786.692c-5.331,3.885-7.827,8.985-5.573,11.391
				c2.253,2.407,8.403,1.207,13.734-2.678c5.332-3.885,7.827-8.985,5.573-11.391C1599.259,781.608,1593.11,782.808,1587.778,786.692
				z"/>
			<path style="opacity:0.78;fill:#FFFFFF;" d="M1139.808,817.315c-6.035-2.769-11.882-2.553-13.059,0.484
				c-1.178,3.036,2.76,7.741,8.796,10.51c6.036,2.769,11.883,2.553,13.06-0.483C1149.782,824.79,1145.844,820.084,1139.808,817.315z
				"/>
			<path style="opacity:0.78;fill:#FFFFFF;" d="M1614.018,1051.428c-6.036-2.769-11.883-2.553-13.06,0.483
				c-1.178,3.036,2.76,7.742,8.796,10.511c6.035,2.77,11.882,2.552,13.059-0.483
				C1623.992,1058.903,1620.052,1054.197,1614.018,1051.428z"/>
			<path style="opacity:0.78;fill:#FFFFFF;" d="M1240.003,717.572c-3.666-5.386-8.78-8.127-11.422-6.121
				c-2.642,2.006-1.811,7.998,1.854,13.384c3.666,5.386,8.781,8.126,11.421,6.121
				C1244.499,728.95,1243.668,722.958,1240.003,717.572z"/>
			<path style="opacity:0.78;fill:#FFFFFF;" d="M1519.128,1154.902c-3.666-5.385-8.78-8.126-11.422-6.12
				c-2.642,2.005-1.812,7.997,1.854,13.383c3.665,5.386,8.78,8.127,11.422,6.121
				C1523.624,1166.28,1522.793,1160.288,1519.128,1154.902z"/>
			<path style="fill:#BDD0FB;" d="M1389.27,918.956l289.829,154.29c97.809-227.755-40.465-422.571-286.321-446.503L1389.27,918.956z
				"/>
			<g>
				
					<linearGradient id="SVGID_00000087397350872003289180000011693632796786455427_" gradientUnits="userSpaceOnUse" x1="1898.027" y1="903.0433" x2="1582.7169" y2="1018.1565">
					<stop  offset="0" style="stop-color:#FF928E"/>
					<stop  offset="1" style="stop-color:#FE7062"/>
				</linearGradient>
				<path style="fill:url(#SVGID_00000087397350872003289180000011693632796786455427_);" d="M1398.438,928.017l194.708,93.57
					c3.773,1.812,8.188-0.91,8.059-4.97l-0.765-24.151c-0.148-4.697,5.594-7.3,9.255-4.193l140.78,119.435
					c4.306,3.655,0.764,10.439-4.847,9.283l-181.318-37.305c-4.339-0.893-5.908-6.075-2.749-9.076l21.228-20.17
					c2.624-2.493,2.059-6.709-1.133-8.48l-188.483-104.481c-2.625-1.455-3.564-4.663-2.115-7.226l0,0
					C1392.493,927.715,1395.755,926.727,1398.438,928.017z"/>
				<path style="opacity:0.71;fill:#FFFFFF;" d="M1728.584,1107.149c1.81,0,3.448-0.973,4.275-2.614
					c0.988-1.962,0.48-4.206-1.264-5.596l-30.806-24.54c-1.067-0.851-2.654-0.704-3.535,0.326c-0.885,1.03-0.734,2.553,0.336,3.408
					l30.807,24.54c-41.048-9.033-137.187-29.219-139.181-29.413c-1.346-0.151-2.612,0.828-2.755,2.16
					c-0.137,1.314,0.839,2.486,2.188,2.647c2.881,0.444,76.557,15.871,138.869,28.968
					C1727.878,1107.111,1728.233,1107.149,1728.584,1107.149z"/>
				
					<linearGradient id="SVGID_00000163058123770761167860000002908944459605822082_" gradientUnits="userSpaceOnUse" x1="1397.3043" y1="356.0446" x2="1392.2991" y2="776.4578">
					<stop  offset="0" style="stop-color:#FF928E"/>
					<stop  offset="1" style="stop-color:#FE7062"/>
				</linearGradient>
				<path style="fill:url(#SVGID_00000163058123770761167860000002908944459605822082_);" d="M1378.129,918.802l0.386-183.439
					c-0.064-4.061-4.604-6.586-8.285-4.609l-21.903,11.763c-4.261,2.288-9.301-1.428-8.123-5.989l45.3-175.387
					c1.386-5.365,9.267-5.456,10.784-0.123l49.031,172.29c1.173,4.122-2.88,7.85-7.1,6.527l-28.351-8.883
					c-3.505-1.099-7.129,1.324-7.292,4.871l-13.307,183.133c-0.133,2.915-2.657,5.195-5.686,5.133l0,0
					C1380.586,924.028,1378.175,921.692,1378.129,918.802z"/>
				<path style="opacity:0.71;fill:#FFFFFF;" d="M1430.274,716.488c0.306,0,0.616-0.052,0.917-0.165
					c1.276-0.482,1.911-1.858,1.44-3.091c-0.913-2.656-20.587-72.791-37.186-132.136c-0.589-2.098-2.44-3.479-4.758-3.426
					c-2.262,0.056-4.101,1.526-4.579,3.657l-8.442,37.646c-0.292,1.305,0.569,2.595,1.925,2.874
					c1.342,0.288,2.688-0.544,2.985-1.853l8.442-37.646c10.56,39.277,36.185,130.803,36.918,132.604
					C1428.324,715.907,1429.271,716.488,1430.274,716.488z"/>
				
					<linearGradient id="SVGID_00000072959517441491701210000006462540245000986780_" gradientUnits="userSpaceOnUse" x1="1862.0068" y1="303.3005" x2="1646.7957" y2="588.5803">
					<stop  offset="0" style="stop-color:#FF928E"/>
					<stop  offset="1" style="stop-color:#FE7062"/>
				</linearGradient>
				
					<ellipse style="fill:url(#SVGID_00000072959517441491701210000006462540245000986780_);" cx="1390.262" cy="928.637" rx="25.886" ry="24.944"/>
			</g>
		</g>
		<g>
			<g>
				<g style="opacity:0.3;">
					<path style="fill:#91B3FA;" d="M2631.457,2246.002c2.048-4.707,7.527-6.86,12.231-4.811c9.143,3.98,18.593,7.624,28.092,10.828
						c4.806,1.621,7.413,6.79,5.89,11.604c-0.018,0.057-0.036,0.114-0.055,0.173c-1.64,4.863-6.913,7.474-11.778,5.833
						c-9.997-3.373-19.947-7.207-29.571-11.399c-4.401-1.915-6.569-6.833-5.153-11.311
						C2631.211,2246.611,2631.323,2246.304,2631.457,2246.002z M2719.081,2264.442c9.842,1.879,19.856,3.354,29.776,4.385
						c5.101,0.53,8.812,5.098,8.282,10.203c-0.55,5.122-5.102,8.813-10.207,8.281c-10.435-1.084-20.978-2.637-31.333-4.611
						c-5.041-0.962-8.348-5.831-7.386-10.872c0.07-0.366,0.161-0.724,0.27-1.07
						C2709.883,2266.331,2714.406,2263.55,2719.081,2264.442z M2797.707,2270.487c9.985-0.358,20.075-1.155,29.997-2.371
						c5.093-0.624,9.73,3.001,10.354,8.094c0.618,5.09-3,9.727-8.095,10.354c-10.448,1.28-21.077,2.12-31.59,2.496
						c-5.129,0.184-9.435-3.826-9.622-8.954c-0.039-1.093,0.112-2.149,0.424-3.136
						C2790.329,2273.33,2793.672,2270.631,2797.707,2270.487z M2875.711,2258.795c9.665-2.583,19.328-5.619,28.725-9.017
						c4.827-1.744,10.155,0.754,11.9,5.579c1.74,4.828-0.759,10.152-5.579,11.9c-9.896,3.577-20.07,6.771-30.24,9.494
						c-4.957,1.325-10.053-1.618-11.379-6.576c-0.475-1.774-0.403-3.565,0.113-5.196
						C2870.177,2262.053,2872.528,2259.649,2875.711,2258.795z M2949.166,2230.017c8.828-4.655,17.583-9.754,26.016-15.158
						c4.324-2.767,10.071-1.507,12.839,2.813c2.771,4.324,1.509,10.072-2.815,12.837c-8.872,5.685-18.084,11.05-27.373,15.948
						c-4.538,2.395-10.16,0.655-12.553-3.886c-1.207-2.287-1.364-4.85-0.641-7.136
						C2945.35,2233.185,2946.913,2231.204,2949.166,2230.017z M3014.422,2185.703c7.592-6.501,14.996-13.409,22.011-20.533
						c3.601-3.656,9.486-3.702,13.141-0.103c3.658,3.601,3.706,9.483,0.104,13.143c-7.381,7.498-15.178,14.769-23.167,21.61
						c-3.899,3.337-9.764,2.884-13.104-1.015c-2.169-2.532-2.735-5.894-1.799-8.855
						C3012.114,2188.354,3013.054,2186.873,3014.422,2185.703z M3143.136,1865.516c5.094-0.616,9.726,3.015,10.341,8.111
						c1.26,10.438,2.081,21.074,2.438,31.608c0.174,5.13-3.843,9.43-8.972,9.603c-5.127,0.176-9.427-3.842-9.601-8.97
						c-0.34-10.002-1.121-20.1-2.319-30.013c-0.164-1.36-0.027-2.685,0.362-3.912
						C3136.45,1868.576,3139.399,1865.966,3143.136,1865.516z M3068.199,2128.062c5.952-8.022,11.629-16.4,16.869-24.904
						c2.695-4.369,8.421-5.728,12.789-3.035c4.371,2.694,5.705,8.408,3.033,12.788c-5.52,8.954-11.497,17.778-17.766,26.225
						c-3.058,4.121-8.878,4.984-13.001,1.925c-3.269-2.425-4.488-6.589-3.325-10.265
						C3067.1,2129.839,3067.568,2128.915,3068.199,2128.062z M3145.808,1946.465c5.103,0.54,8.802,5.117,8.262,10.222
						c-1.11,10.454-2.685,20.999-4.677,31.341c-0.95,5.049-5.845,8.336-10.885,7.367c-5.038-0.971-8.336-5.844-7.366-10.885
						c1.894-9.829,3.392-19.85,4.444-29.785c0.067-0.634,0.2-1.245,0.385-1.83C3137.274,1948.77,3141.34,1945.991,3145.808,1946.465
						z M3107.738,2059.861c4.005-9.146,7.667-18.585,10.884-28.059c1.648-4.862,6.925-7.463,11.787-5.813
						c4.796,1.629,7.393,6.791,5.873,11.598c-0.02,0.063-0.04,0.127-0.063,0.188c-3.383,9.975-7.238,19.913-11.451,29.54
						c-2.062,4.701-7.54,6.844-12.243,4.786c-4.391-1.922-6.55-6.833-5.136-11.304
						C3107.488,2060.482,3107.606,2060.169,3107.738,2059.861z"/>
					<path style="fill:#91B3FA;" d="M3121.73,1808.133c-0.552,1.744-0.597,3.67-0.012,5.551c1.424,4.575,2.772,9.256,4.018,13.914
						c1.322,4.958,6.416,7.907,11.373,6.583c4.96-1.321,7.915-6.415,6.582-11.375c-1.306-4.9-2.727-9.822-4.223-14.638
						c-1.523-4.9-6.733-7.64-11.631-6.117C3124.815,1802.991,3122.617,1805.33,3121.73,1808.133z"/>
				</g>
				<g style="opacity:0.3;">
					<path style="fill:#91B3FA;" d="M2938.663,1591.899c-1.352,4.276,0.559,9.021,4.695,11.098c4.282,2.148,8.592,4.423,12.805,6.76
						c4.489,2.49,10.146,0.869,12.635-3.619c2.499-4.507,0.867-10.146-3.619-12.635c-4.438-2.46-8.976-4.856-13.484-7.12
						c-4.587-2.302-10.172-0.449-12.475,4.137C2938.994,1590.972,2938.81,1591.433,2938.663,1591.899z"/>
					<path style="fill:#91B3FA;" d="M2437.022,1788.464c1.785-4.812,7.133-7.266,11.948-5.479c4.811,1.786,7.257,7.126,5.478,11.945
						c-3.4,9.161-6.46,18.609-9.139,28.188c-1.359,4.923-6.512,7.828-11.454,6.446c-4.943-1.382-7.829-6.51-6.448-11.453
						c1.16-4.15,2.385-8.265,3.675-12.342C2432.92,1799.953,2434.918,1794.13,2437.022,1788.464z M2427.582,1859.761
						c5.082,0.701,8.636,5.39,7.934,10.474c-1.343,9.761-2.292,19.684-2.813,29.494c-0.256,5.12-4.647,9.059-9.773,8.788
						c-5.122-0.272-9.057-4.648-8.784-9.772c0.548-10.329,1.544-20.775,2.962-31.046c0.073-0.533,0.191-1.05,0.347-1.544
						C2418.795,1861.917,2423.029,1859.134,2427.582,1859.761z M2457.848,1742.305c4.888-9.111,10.233-18.138,15.89-26.828
						c2.8-4.302,8.557-5.519,12.86-2.719c4.3,2.799,5.511,8.552,2.718,12.858c-5.374,8.252-10.449,16.823-15.088,25.475
						c-2.428,4.522-8.06,6.223-12.584,3.796c-4-2.146-5.79-6.803-4.469-10.981
						C2457.346,1743.363,2457.57,1742.826,2457.848,1742.305z M2423.412,1939.354c5.113-0.433,9.612,3.362,10.043,8.475
						c0.829,9.803,2.089,19.688,3.741,29.378c0.866,5.063-2.536,9.86-7.598,10.723c-5.058,0.863-9.858-2.537-10.721-7.596
						c-1.741-10.206-3.067-20.615-3.941-30.937c-0.104-1.247,0.039-2.458,0.394-3.583
						C2416.432,1942.33,2419.546,1939.681,2423.412,1939.354z M2504.192,1675.064c6.768-7.808,13.965-15.434,21.394-22.67
						c3.676-3.581,9.556-3.505,13.138,0.169c3.585,3.677,3.506,9.561-0.17,13.142c-7.054,6.874-13.892,14.118-20.318,21.533
						c-3.363,3.878-9.232,4.297-13.111,0.934c-2.89-2.505-3.858-6.402-2.774-9.828
						C2502.722,1677.171,2503.335,1676.051,2504.192,1675.064z M2564.159,1619.616c8.331-6.154,17.019-12.028,25.822-17.46
						c4.37-2.694,10.094-1.338,12.79,3.03c2.698,4.375,1.341,10.098-3.031,12.787c-8.364,5.161-16.62,10.744-24.538,16.591
						c-4.128,3.05-9.947,2.175-12.997-1.954c-1.836-2.488-2.248-5.59-1.382-8.329
						C2561.394,1622.475,2562.52,1620.827,2564.159,1619.616z M2634.787,1578.553c9.478-4.196,19.241-8.038,29.01-11.421
						c4.852-1.679,10.142,0.892,11.822,5.742c1.681,4.856-0.893,10.143-5.741,11.822c-9.285,3.212-18.557,6.864-27.566,10.853
						c-4.693,2.078-10.182-0.043-12.258-4.735c-0.955-2.156-1.024-4.477-0.365-6.561
						C2630.464,1581.798,2632.25,1579.677,2634.787,1578.553z M2712.69,1553.875c10.165-2.022,20.535-3.633,30.822-4.786
						c5.1-0.573,9.7,3.098,10.271,8.2c0.571,5.092-3.101,9.696-8.201,10.269c-9.765,1.096-19.611,2.625-29.269,4.547
						c-5.033,1.001-9.924-2.266-10.925-7.3c-0.316-1.59-0.206-3.164,0.25-4.608
						C2706.628,1557.069,2709.245,1554.562,2712.69,1553.875z M2794.154,1546.915c10.336,0.267,20.797,0.981,31.096,2.121
						c5.102,0.565,8.781,5.159,8.215,10.26c-0.565,5.085-5.156,8.779-10.258,8.214c-9.784-1.084-19.72-1.761-29.538-2.016
						c-5.129-0.131-9.181-4.4-9.047-9.529c0.023-0.893,0.17-1.755,0.427-2.566
						C2786.266,1549.549,2789.917,1546.805,2794.154,1546.915z M2875.074,1558c7.391,1.85,14.817,3.951,22.068,6.245
						c2.627,0.831,5.234,1.688,7.829,2.571c4.856,1.654,7.571,6.904,5.801,11.79c-1.651,4.859-6.931,7.458-11.792,5.804
						c-2.465-0.838-4.947-1.656-7.443-2.445c-6.895-2.181-13.95-4.178-20.978-5.938c-4.978-1.245-8.003-6.293-6.757-11.271
						c0.048-0.187,0.099-0.372,0.156-0.554C2865.429,1559.557,2870.283,1556.8,2875.074,1558z"/>
					<path style="fill:#91B3FA;" d="M2430.872,2024.195c-0.557,1.762-0.597,3.704,0,5.597c1.517,4.797,3.165,9.653,4.897,14.432
						c1.748,4.827,7.077,7.321,11.902,5.573c4.825-1.75,7.323-7.073,5.573-11.902c-1.644-4.54-3.209-9.153-4.65-13.707
						c-1.544-4.892-6.766-7.605-11.66-6.058C2433.933,2019.079,2431.753,2021.409,2430.872,2024.195z"/>
				</g>
				<g>
					<g>
						<path style="fill:#91B3FA;" d="M2572.176,2097.778c1.017,1.55,2.903,2.285,4.699,1.83l51.246-12.975
							c17.883,17.02,38.608,31.309,61.642,42.026l6.676,52.405c0.235,1.838,1.609,3.325,3.424,3.703l62.075,12.929
							c1.814,0.379,3.669-0.437,4.617-2.028l27.044-45.382c25.397-0.629,50.105-5.456,73.296-13.921l41.803,32.356
							c1.466,1.134,3.489,1.213,5.039,0.198l53.037-34.751c1.55-1.015,2.285-2.903,1.83-4.699l-12.976-51.245
							c17.02-17.882,31.311-38.607,42.027-61.643l52.405-6.676c1.839-0.234,3.326-1.608,3.703-3.423l12.93-62.077
							c0.377-1.814-0.438-3.668-2.029-4.616l-45.383-27.044c-0.628-25.398-5.455-50.106-13.921-73.296l32.357-41.803
							c1.134-1.465,1.215-3.489,0.198-5.039l-34.752-53.037c-1.015-1.55-2.903-2.284-4.698-1.83l-51.247,12.976
							c-17.882-17.02-38.607-31.31-61.642-42.026l-6.676-52.405c-0.233-1.838-1.608-3.326-3.422-3.703l-62.077-12.93
							c-1.814-0.378-3.668,0.437-4.616,2.029l-27.044,45.382c-25.397,0.629-50.105,5.456-73.296,13.921l-41.803-32.356
							c-1.465-1.135-3.488-1.214-5.039-0.198l-53.037,34.752c-1.55,1.016-2.284,2.902-1.83,4.698l12.976,51.246
							c-17.02,17.882-31.31,38.607-42.027,61.642l-52.405,6.676c-1.837,0.235-3.324,1.609-3.703,3.423l-12.929,62.076
							c-0.377,1.814,0.437,3.668,2.029,4.617l45.381,27.043c0.629,25.398,5.457,50.105,13.921,73.296l-32.356,41.803
							c-1.134,1.465-1.213,3.489-0.198,5.039L2572.176,2097.778z"/>
					</g>
					<g>
						<path style="fill:#BDD0FB;" d="M2730.351,1890.8c15.371-31.604,53.585-44.814,85.194-29.444
							c15.311,7.444,26.806,20.407,32.366,36.498c5.562,16.087,4.527,33.382-2.923,48.693
							c-15.371,31.605-53.585,44.814-85.193,29.444c-28.754-13.984-42.281-46.875-32.912-76.498
							C2727.811,1896.556,2728.966,1893.649,2730.351,1890.8z M2833.857,1902.71c-4.264-12.338-13.077-22.275-24.817-27.985
							c-24.23-11.782-53.535-1.656-65.318,22.576c-11.795,24.235-1.656,53.535,22.577,65.32
							c24.23,11.782,53.535,1.656,65.318-22.576c1.068-2.198,1.962-4.445,2.685-6.733
							C2837.444,1923.378,2837.322,1912.738,2833.857,1902.71z"/>
					</g>
					<path style="fill:#BDD0FB;" d="M2639.503,1870.492c-1.609,5.088-2.971,10.286-4.075,15.581l0,0
						c-0.348,1.666-0.668,3.339-0.962,5.017c-1.447,8.271-2.233,16.643-2.348,24.989c-0.002,0.114-0.003,0.227-0.005,0.341
						c-0.003,0.323-0.006,0.645-0.005,0.969c-0.005,0.629-0.002,1.258,0.001,1.885c0.01,1.652,1.097,3.044,2.592,3.519
						c0.363,0.115,0.752,0.175,1.153,0.172c2.052-0.014,3.699-1.693,3.689-3.743c-0.074-10.564,0.991-21.205,3.166-31.631
						c10.778-51.791,47.349-91.728,93.492-109.208c25.665-9.726,54.293-12.502,83.096-6.501c5.051,1.051,10.012,2.35,14.865,3.886
						c32.657,10.332,60.536,31.406,79.56,60.443c21.855,33.353,29.414,73.222,21.283,112.258
						c-16.801,80.62-96.006,132.494-176.589,115.709c-4.969-1.035-9.867-2.317-14.673-3.839
						c-20.831-6.592-39.989-17.669-56.059-32.503c-0.416-0.383-0.893-0.654-1.399-0.812c-1.329-0.42-2.844-0.071-3.853,1.023
						c-1.389,1.514-1.304,3.859,0.211,5.254c16.871,15.573,36.984,27.205,58.854,34.125c5.046,1.597,10.186,2.943,15.401,4.031
						c84.605,17.623,167.769-36.896,185.386-121.47c8.537-40.983,0.6-82.834-22.344-117.849
						c-19.972-30.484-49.24-52.607-83.523-63.455c-5.095-1.611-10.302-2.974-15.603-4.08c-40.985-8.535-82.838-0.601-117.852,22.341
						C2672.472,1806.921,2650.348,1836.2,2639.503,1870.492z"/>
				</g>
			</g>
			<g>
				<g style="opacity:0.3;">
					<path style="fill:#91B3FA;" d="M2301.992,2475.439c-0.749,2.367,0.106,5.036,2.273,6.492c4.043,2.719,8.225,5.352,12.428,7.825
						c2.731,1.607,6.246,0.697,7.857-2.036c1.621-2.73,0.695-6.25-2.036-7.857c-4.005-2.357-7.99-4.866-11.85-7.46
						c-2.627-1.768-6.193-1.068-7.966,1.561C2302.387,2474.432,2302.154,2474.928,2301.992,2475.439z"/>
					<path style="fill:#91B3FA;" d="M2340.946,2496.05c1.26-2.908,4.636-4.248,7.547-2.989c7.344,3.172,14.937,6.005,22.563,8.417
						c1.608,0.509,3.229,1,4.859,1.478c3.039,0.894,4.782,4.082,3.89,7.124c-0.958,2.842-4.082,4.782-7.127,3.892
						c-1.705-0.501-3.4-1.016-5.083-1.549c-7.995-2.528-15.956-5.499-23.657-8.828c-2.726-1.176-4.074-4.219-3.197-6.992
						C2340.8,2496.418,2340.87,2496.235,2340.946,2496.05z M2404.334,2509.442c9.571,1.578,19.325,2.579,28.99,2.969
						c3.169,0.129,5.629,2.797,5.502,5.967c-0.132,3.151-2.798,5.632-5.967,5.503c-10.129-0.408-20.356-1.456-30.391-3.112
						c-3.128-0.516-5.246-3.47-4.732-6.6c0.045-0.273,0.113-0.543,0.195-0.802
						C2398.778,2510.689,2401.484,2508.973,2404.334,2509.442z M2462.468,2511.769c9.651-0.813,19.351-2.243,28.838-4.248
						c3.099-0.654,6.146,1.329,6.8,4.428c0.656,3.112-1.321,6.149-4.427,6.804c-9.948,2.104-20.126,3.6-30.244,4.456
						c-3.158,0.265-5.939-2.078-6.204-5.236c-0.062-0.77,0.027-1.517,0.247-2.212
						C2458.158,2513.61,2460.081,2511.973,2462.468,2511.769z M2519.397,2499.742c9.171-3.16,18.231-6.92,26.914-11.173
						c2.851-1.394,6.288-0.216,7.68,2.632c1.389,2.84,0.218,6.282-2.628,7.678c-9.112,4.461-18.606,8.401-28.225,11.717
						c-2.996,1.034-6.265-0.562-7.299-3.558c-0.412-1.209-0.403-2.461-0.045-3.594
						C2516.323,2501.768,2517.609,2500.358,2519.397,2499.742z M2571.666,2474.18c8.123-5.293,15.991-11.138,23.396-17.374
						c2.421-2.042,6.043-1.731,8.087,0.694c2.043,2.424,1.739,6.046-0.694,8.087c-7.758,6.536-16.008,12.662-24.519,18.212
						c-2.657,1.729-6.212,0.98-7.942-1.674c-0.978-1.5-1.165-3.287-0.664-4.869
						C2569.716,2476.035,2570.51,2474.935,2571.666,2474.18z M2616.145,2436.705c6.585-7.103,12.785-14.683,18.432-22.536
						c1.848-2.573,5.438-3.159,8.009-1.309c2.572,1.851,3.158,5.426,1.311,8.013c-5.919,8.234-12.427,16.187-19.333,23.638
						c-2.157,2.322-5.787,2.461-8.11,0.308c-1.681-1.561-2.219-3.894-1.572-5.944
						C2615.13,2438.092,2615.548,2437.348,2616.145,2436.705z M2650.094,2389.51c4.626-8.475,8.781-17.355,12.345-26.395
						c1.167-2.947,4.5-4.394,7.447-3.229c2.948,1.161,4.352,4.474,3.235,7.448c-3.743,9.474-8.098,18.785-12.949,27.674
						c-1.52,2.782-5.007,3.807-7.79,2.289c-2.447-1.335-3.534-4.198-2.723-6.763
						C2649.769,2390.186,2649.912,2389.843,2650.094,2389.51z M2683.442,2301.834c3.144,0.412,5.355,3.292,4.943,6.437
						c-1.141,8.701-2.78,17.489-4.861,26.096c-0.309,1.31-0.637,2.608-0.972,3.908c-0.702,3.076-3.928,4.912-7.002,4.108
						c-3.069-0.797-4.906-3.929-4.111-7c0.32-1.216,0.624-2.439,0.919-3.689c1.994-8.238,3.557-16.62,4.647-24.917
						c0.044-0.342,0.119-0.674,0.219-0.989C2678.048,2303.182,2680.643,2301.466,2683.442,2301.834z"/>
				</g>
				<g style="opacity:0.3;">
					<path style="fill:#91B3FA;" d="M2207.268,2198.093c3.139-9.498,6.89-18.885,11.136-27.906c1.353-2.865,4.77-4.097,7.64-2.745
						c2.871,1.352,4.062,4.779,2.745,7.641c-4.054,8.6-7.627,17.555-10.622,26.616c-0.993,3.01-4.243,4.643-7.25,3.648
						c-2.985-0.988-4.618-4.191-3.673-7.179C2207.252,2198.144,2207.261,2198.117,2207.268,2198.093z M2206.329,2222.665
						c3.105,0.627,5.117,3.655,4.487,6.76c-1.886,9.347-3.227,18.902-3.98,28.402c-0.258,3.14-3.015,5.519-6.18,5.265
						c-3.16-0.25-5.514-3.013-5.266-6.175c0.791-9.955,2.194-19.97,4.175-29.764c0.042-0.207,0.093-0.405,0.155-0.603
						C2200.592,2223.794,2203.422,2222.078,2206.329,2222.665z M2232.862,2143.822c5.345-8.462,11.251-16.67,17.556-24.394
						c2.005-2.455,5.624-2.821,8.077-0.817c2.459,2.003,2.818,5.606,0.821,8.075c-6.017,7.368-11.649,15.196-16.753,23.267
						c-1.694,2.68-5.239,3.479-7.914,1.789c-2.254-1.424-3.177-4.156-2.41-6.582
						C2232.385,2144.7,2232.591,2144.251,2232.862,2143.822z M2200.341,2281.006c3.166-0.139,5.845,2.319,5.984,5.484
						c0.415,9.525,1.42,19.117,2.992,28.515c0.517,3.124-1.594,6.083-4.711,6.608c-3.128,0.522-6.088-1.588-6.61-4.715
						c-1.651-9.855-2.707-19.918-3.14-29.908c-0.028-0.691,0.065-1.358,0.262-1.98
						C2195.825,2282.776,2197.867,2281.114,2200.341,2281.006z M2270.8,2097.362c7.207-6.913,14.913-13.455,22.906-19.452
						c2.536-1.902,6.135-1.387,8.037,1.149c1.903,2.536,1.394,6.134-1.148,8.038c-7.627,5.715-14.974,11.957-21.846,18.552
						c-2.287,2.193-5.92,2.12-8.117-0.172c-1.504-1.566-1.941-3.771-1.328-5.708
						C2269.583,2098.885,2270.082,2098.052,2270.8,2097.362z M2318.782,2061.354c8.67-4.995,17.721-9.507,26.899-13.413
						c2.915-1.241,6.283,0.115,7.524,3.032c1.243,2.912-0.113,6.287-3.034,7.53c-8.75,3.726-17.384,8.032-25.658,12.799
						c-2.746,1.583-6.256,0.638-7.839-2.109c-0.835-1.451-0.967-3.116-0.498-4.599
						C2316.594,2063.274,2317.489,2062.099,2318.782,2061.354z M2374.01,2037.868c9.62-2.778,19.495-4.986,29.343-6.569
						c3.133-0.502,6.075,1.628,6.578,4.758c0.504,3.128-1.632,6.072-4.754,6.577c-9.394,1.506-18.809,3.614-27.978,6.267
						c-3.047,0.879-6.23-0.877-7.107-3.924c-0.33-1.13-0.291-2.276,0.039-3.318C2370.69,2039.89,2372.094,2038.423,2374.01,2037.868
						z"/>
					<path style="fill:#91B3FA;" d="M2204.853,2343.101c-0.334,1.055-0.366,2.218-0.028,3.36c1.397,4.71,2.942,9.398,4.586,13.939
						c1.081,2.979,4.372,4.522,7.354,3.443c2.971-1.086,4.516-4.371,3.442-7.354c-1.57-4.329-3.042-8.804-4.377-13.298
						c-0.902-3.04-4.1-4.771-7.136-3.868C2206.798,2339.889,2205.408,2341.345,2204.853,2343.101z"/>
				</g>
				<g>
					<g>
						<path style="fill:#91B3FA;" d="M2300.242,2396.4c0.68,1.037,1.943,1.529,3.145,1.225l34.292-8.682
							c11.966,11.389,25.834,20.95,41.248,28.122l4.468,35.067c0.157,1.23,1.076,2.225,2.291,2.478l41.538,8.651
							c1.214,0.254,2.455-0.292,3.089-1.356l18.096-30.368c16.995-0.421,33.529-3.65,49.046-9.315l27.973,21.651
							c0.981,0.759,2.335,0.812,3.372,0.133l35.49-23.254c1.037-0.679,1.529-1.942,1.224-3.145l-8.683-34.291
							c11.389-11.966,20.952-25.835,28.122-41.249l35.067-4.467c1.23-0.157,2.225-1.076,2.478-2.29l8.652-41.539
							c0.253-1.214-0.293-2.454-1.358-3.089l-30.368-18.097c-0.42-16.995-3.65-33.528-9.315-49.046l21.652-27.973
							c0.759-0.98,0.813-2.335,0.133-3.371l-23.255-35.49c-0.679-1.037-1.942-1.528-3.143-1.224l-34.292,8.683
							c-11.965-11.389-25.833-20.951-41.248-28.122l-4.468-35.067c-0.156-1.23-1.076-2.225-2.29-2.478l-41.539-8.652
							c-1.214-0.253-2.454,0.292-3.089,1.358l-18.096,30.368c-16.995,0.42-33.529,3.651-49.047,9.315l-27.973-21.651
							c-0.98-0.759-2.334-0.812-3.372-0.133l-35.49,23.254c-1.037,0.68-1.529,1.942-1.225,3.144l8.683,34.291
							c-11.389,11.966-20.951,25.834-28.122,41.249l-35.067,4.467c-1.229,0.157-2.225,1.077-2.478,2.291l-8.651,41.539
							c-0.252,1.214,0.292,2.455,1.358,3.089l30.367,18.097c0.421,16.995,3.652,33.528,9.316,49.046l-21.652,27.973
							c-0.759,0.98-0.812,2.335-0.133,3.371L2300.242,2396.4z"/>
					</g>
					<g>
						<path style="fill:#BDD0FB;" d="M2405.396,2257.568c5.07-10.433,13.9-18.264,24.863-22.051
							c10.957-3.789,22.738-3.083,33.167,1.991c21.527,10.467,30.503,36.457,20.058,58.033
							c-10.476,21.527-36.507,30.522-58.028,20.054c-10.43-5.071-18.261-13.9-22.05-24.859c-3.079-8.91-3.187-18.362-0.395-27.19
							C2403.654,2261.517,2404.451,2259.518,2405.396,2257.568z M2458.41,2247.832c-7.674-3.732-16.338-4.253-24.404-1.466
							c-8.059,2.786-14.555,8.548-18.286,16.218l0,0c-3.721,7.677-4.249,16.337-1.462,24.402
							c2.783,8.061,8.548,14.555,16.216,18.285c15.836,7.701,34.983,1.084,42.688-14.75c0.693-1.43,1.271-2.884,1.737-4.357
							C2479.593,2271.321,2472.814,2254.836,2458.41,2247.832z"/>
					</g>
					<path style="fill:#BDD0FB;" d="M2342.166,2243.438c-1.095,3.463-2.022,7.009-2.782,10.637
						c-1.503,7.206-2.274,14.571-2.291,21.911c0.002,0.33,0.003,0.659,0.005,0.99c0.016,2.551,1.694,4.701,4.002,5.434
						c0.561,0.177,1.161,0.27,1.779,0.266c3.169-0.021,5.707-2.616,5.696-5.78c-0.049-6.853,0.642-13.741,2.048-20.475l0.001-0.003
						c0.076-0.37,0.158-0.74,0.239-1.106c3.472-15.906,10.778-30.344,21.155-42.338c5.633-6.51,12.179-12.3,19.521-17.206
						c0.06-0.04,0.119-0.08,0.179-0.12c0.186-0.121,0.365-0.243,0.55-0.361c21.593-14.146,47.402-19.041,72.674-13.776
						c3.271,0.679,6.48,1.52,9.622,2.514c21.141,6.689,39.188,20.333,51.509,39.131c14.147,21.593,19.036,47.401,13.772,72.67
						c-5.27,25.252-20.055,46.981-41.643,61.132c-21.592,14.146-47.402,19.041-72.673,13.776c-3.216-0.667-6.387-1.5-9.497-2.483
						c-13.488-4.269-25.888-11.438-36.29-21.041c-0.642-0.591-1.379-1.01-2.161-1.254c-2.052-0.649-4.392-0.11-5.949,1.578
						c-2.144,2.335-2.008,5.959,0.327,8.114c11.64,10.744,25.516,18.768,40.601,23.545c3.484,1.102,7.029,2.032,10.625,2.781
						c28.278,5.889,57.151,0.415,81.31-15.416c24.154-15.829,40.717-40.096,46.59-68.388c5.891-28.274,0.419-57.147-15.415-81.305
						c-13.777-21.032-33.97-36.295-57.623-43.778c-3.511-1.11-7.105-2.053-10.761-2.815
						C2412.542,2158.872,2358.677,2191.23,2342.166,2243.438z"/>
				</g>
			</g>
		</g>
		<g>
			<g>
				
					<linearGradient id="SVGID_00000095313260306584954270000011763462490106345614_" gradientUnits="userSpaceOnUse" x1="1169.0699" y1="2347.0474" x2="1175.1949" y2="2238.8369">
					<stop  offset="0" style="stop-color:#09005D"/>
					<stop  offset="1" style="stop-color:#1A0F91"/>
				</linearGradient>
				<path style="fill:url(#SVGID_00000095313260306584954270000011763462490106345614_);" d="M1089.777,2215.515
					c-0.852,1.613-54.479,41.075-54.479,41.075s11.843,84.724,59.933,118.179c52.873,36.782,127.542-30.297,127.542-30.297
					s59.424,14.126,91.026-109.573c7.25-28.379-34.601-30.778-85.11-25.552C1163.554,2216.088,1089.777,2215.515,1089.777,2215.515z
					"/>
				
					<linearGradient id="SVGID_00000121970773084180482940000012120488541736055955_" gradientUnits="userSpaceOnUse" x1="1642.649" y1="1903.1035" x2="1402.4131" y2="2338.5308">
					<stop  offset="0" style="stop-color:#FF928E"/>
					<stop  offset="1" style="stop-color:#FE7062"/>
				</linearGradient>
				<path style="fill:url(#SVGID_00000121970773084180482940000012120488541736055955_);" d="M989.539,2504.566
					c20.979-14.424,44.175-25.3,68.765-31.991c9.237-2.514,59.109,11.981,89.938,11.272c42.319-0.973,85.396-20.231,120.279-11.539
					c34.65,8.635,63.01,19.913,79.385,31.56c49.014,34.861,77.792,99.864,95.329,164.251
					c-33.207,34.088-74.996,49.237-74.996,49.237l-7.722,312.973l-185.066,94.687l-211.231-106.05l7.567-305.849
					c0,0-67.077-31.237-71.998-42.6C894.867,2659.156,930.36,2545.256,989.539,2504.566z"/>
				
					<linearGradient id="SVGID_00000169556671201215275450000018142237937544541875_" gradientUnits="userSpaceOnUse" x1="856.9873" y1="2602.1504" x2="1208.6649" y2="3451.6575">
					<stop  offset="0" style="stop-color:#FEBBBA"/>
					<stop  offset="1" style="stop-color:#FF928E"/>
				</linearGradient>
				<path style="fill:url(#SVGID_00000169556671201215275450000018142237937544541875_);" d="M902.913,2669.152
					c0,0-89.886,249.2,115.087,351.62c42.561-5.655,26.191-76.334,26.191-76.334s-89.062-19.709-62.314-227.59
					C957.251,2696.587,902.913,2669.152,902.913,2669.152z"/>
				
					<linearGradient id="SVGID_00000039846625261463270780000008928444201797106049_" gradientUnits="userSpaceOnUse" x1="-5647.5029" y1="2600.3245" x2="-5295.8252" y2="3449.8315" gradientTransform="matrix(-1 0 0 1 -4167.0742 0)">
					<stop  offset="0" style="stop-color:#FEBBBA"/>
					<stop  offset="1" style="stop-color:#FF928E"/>
				</linearGradient>
				<path style="fill:url(#SVGID_00000039846625261463270780000008928444201797106049_);" d="M1438.913,2669.152
					c0,0,61.851,260.131-115.087,351.62c-42.561-5.655-26.191-76.334-26.191-76.334s71.779-35.351,62.314-227.59
					C1384.575,2696.587,1438.913,2669.152,1438.913,2669.152z"/>
				
					<linearGradient id="SVGID_00000129175163691154746370000006941421742249486245_" gradientUnits="userSpaceOnUse" x1="1169.3779" y1="2711.6914" x2="1151.0732" y2="3453.0439">
					<stop  offset="0" style="stop-color:#09005D"/>
					<stop  offset="1" style="stop-color:#1A0F91"/>
				</linearGradient>
				<path style="fill:url(#SVGID_00000129175163691154746370000006941421742249486245_);" d="M1363.557,3038.275H965.839
					c-2.23,0-4.055-1.825-4.055-4.055v-265.961c0-2.23,1.825-4.055,4.055-4.055h397.718c2.23,0,4.055,1.825,4.055,4.055v265.961
					C1367.611,3036.45,1365.787,3038.275,1363.557,3038.275z"/>
				<g>
					
						<linearGradient id="SVGID_00000036942535232769862430000015289317124537616795_" gradientUnits="userSpaceOnUse" x1="1997.7881" y1="2051.9524" x2="926.7385" y2="4309.1636" gradientTransform="matrix(1 0.0077 -0.0077 1 9.5247 16.8137)">
						<stop  offset="0" style="stop-color:#4F52FF"/>
						<stop  offset="1" style="stop-color:#4042E2"/>
					</linearGradient>
					<path style="fill:url(#SVGID_00000036942535232769862430000015289317124537616795_);" d="M1545.613,3119.527
						c-46.444-10.661-153.786-4.929-153.786-4.929l-4.366,11.823l-7.23,58.77c0,0,102.225,18.426,152.614,18.381
						c5.141-0.005,9.843-0.776,14.139-2.114c1.536-1.378,3.038-2.808,4.458-4.358
						C1572.819,3173.752,1566.645,3139.454,1545.613,3119.527z"/>
					<path style="fill:#7D97F4;" d="M1550.215,3120.692c-1.455-0.409-2.995-0.796-4.602-1.165
						c21.032,19.927,27.206,54.226,5.828,77.573c-1.42,1.551-2.921,2.98-4.458,4.358
						C1584.784,3189.693,1589.26,3131.676,1550.215,3120.692z"/>
					
						<linearGradient id="SVGID_00000150063801330226204820000012712109872455955353_" gradientUnits="userSpaceOnUse" x1="1507.29" y1="2810.9221" x2="1304.4316" y2="3360.3862">
						<stop  offset="0" style="stop-color:#FEBBBA"/>
						<stop  offset="1" style="stop-color:#FF928E"/>
					</linearGradient>
					<path style="fill:url(#SVGID_00000150063801330226204820000012712109872455955353_);" d="M1360.984,3111.288l18.176,0.775
						c9.766,0.417,18.969,5.175,25.535,13.203c6.567,8.027,9.944,18.649,9.369,29.468c-0.458,8.627-3.998,16.696-9.836,22.421
						c-5.838,5.723-13.492,8.631-21.269,8.077l-27.811-1.979L1360.984,3111.288z"/>
				</g>
				<g>
					
						<linearGradient id="SVGID_00000073690013461716464290000015852227158025372046_" gradientUnits="userSpaceOnUse" x1="996.4835" y1="2563.3909" x2="631.1228" y2="3824.6343">
						<stop  offset="0" style="stop-color:#4F52FF"/>
						<stop  offset="1" style="stop-color:#4042E2"/>
					</linearGradient>
					<path style="fill:url(#SVGID_00000073690013461716464290000015852227158025372046_);" d="M749.794,3113.873
						c46.692-9.232,153.85-0.208,153.85-0.208l4.069,11.953l5.761,58.969c0,0-102.646,15.281-153.015,13.691
						c-5.139-0.162-9.82-1.078-14.08-2.546c-1.502-1.425-2.967-2.9-4.348-4.494C721.245,3167.243,728.273,3133.148,749.794,3113.873
						z"/>
					<path style="fill:#7D97F4;" d="M745.164,3114.897c1.464-0.365,3.013-0.704,4.629-1.024
						c-21.521,19.275-28.549,53.369-7.761,77.364c1.381,1.594,2.846,3.07,4.348,4.494
						C708.887,3182.811,705.861,3124.678,745.164,3114.897z"/>
					
						<linearGradient id="SVGID_00000059280656522864543180000001363825481629682836_" gradientUnits="userSpaceOnUse" x1="1100.8585" y1="2645.3401" x2="897.8932" y2="3195.094">
						<stop  offset="0" style="stop-color:#FEBBBA"/>
						<stop  offset="1" style="stop-color:#FF928E"/>
					</linearGradient>
					<path style="fill:url(#SVGID_00000059280656522864543180000001363825481629682836_);" d="M934.558,3111.304l-18.189,0.217
						c-9.772,0.117-19.091,4.591-25.855,12.415c-6.764,7.823-10.404,18.336-10.1,29.17c0.243,8.638,3.58,16.812,9.273,22.713
						c5.693,5.901,13.272,9.042,21.059,8.727l27.85-1.125L934.558,3111.304z"/>
				</g>
				
					<linearGradient id="SVGID_00000109027709716908635470000005407118729777754753_" gradientUnits="userSpaceOnUse" x1="1593.2728" y1="2800.3157" x2="1065.9144" y2="3196.4646">
					<stop  offset="0" style="stop-color:#4F52FF"/>
					<stop  offset="1" style="stop-color:#4042E2"/>
				</linearGradient>
				<path style="fill:url(#SVGID_00000109027709716908635470000005407118729777754753_);" d="M1558.601,2935.289
					c-21.062-48.475-72.576-56.344-116.421-33.678c-0.763,1.002-278.439,143.314-523.316,205.685
					c7.01,22.474,10.615,46.388,11.401,69.893c0.141,5.237,0.054,10.402-0.253,15.499c187.785-9.645,391.587-72.271,566.715-127.308
					C1551.035,3047.866,1581.946,2989.016,1558.601,2935.289z"/>
				
					<linearGradient id="SVGID_00000002357737028410629160000017272815122772659606_" gradientUnits="userSpaceOnUse" x1="1116.3795" y1="3155.6226" x2="978.1663" y2="2803.1792">
					<stop  offset="0" style="stop-color:#4F52FF"/>
					<stop  offset="1" style="stop-color:#4042E2"/>
				</linearGradient>
				<path style="fill:url(#SVGID_00000002357737028410629160000017272815122772659606_);" d="M1362.318,3180.872
					c-0.734-27.093,4.534-52.315,15.802-75.665c0.322-1.07,0.707-2.096,1.048-3.153c-13.983-4.331-32.048-10.199-55.78-18.249
					c-173.887-59.508-306.541-119.595-433.147-188.765c-49.184-26.871-105.107-8.862-120.851,49.335
					c-14.055,51.953,16.81,96.308,63.654,111.896c140.146,46.636,67.177,33.682,112.948,48.412
					c122.922,38.011,275.884,72.633,416.618,82.087C1362.505,3184.803,1362.385,3182.834,1362.318,3180.872z"/>
				
					<linearGradient id="SVGID_00000069372734039978963730000010451155414239888520_" gradientUnits="userSpaceOnUse" x1="1165.7097" y1="2672.292" x2="1161.0304" y2="2265.165">
					<stop  offset="0" style="stop-color:#FEBBBA"/>
					<stop  offset="1" style="stop-color:#FF928E"/>
				</linearGradient>
				<path style="fill:url(#SVGID_00000069372734039978963730000010451155414239888520_);" d="M1058.304,2472.575
					c0,0,18.701,81.041,109.496,79.358c92.477-1.683,100.721-79.624,100.721-79.624l-60.409-12.926l-5.049-67.31l-90.868,6.731
					l-1.682,63.944L1058.304,2472.575z"/>
				
					<linearGradient id="SVGID_00000061450483178247409490000007323747047314165937_" gradientUnits="userSpaceOnUse" x1="1347.7169" y1="1897.0009" x2="1362.2935" y2="1542.7295" gradientTransform="matrix(0.987 0.1608 -0.1608 0.987 126.9837 357.2448)">
					<stop  offset="0" style="stop-color:#FEBBBA"/>
					<stop  offset="1" style="stop-color:#FF928E"/>
				</linearGradient>
				<path style="fill:url(#SVGID_00000061450483178247409490000007323747047314165937_);" d="M1124.954,2201.364
					c0,0-104.134,201.714,19.392,250.652c87.13,34.518,141.76-133.953,125.466-179.583c-25.194-70.554-41.786-62.181-41.786-62.181
					L1124.954,2201.364z"/>
				
					<linearGradient id="SVGID_00000130637995618805235410000015438602096409545649_" gradientUnits="userSpaceOnUse" x1="1229.5872" y1="2011.5388" x2="1188.2426" y2="2175.3855">
					<stop  offset="0" style="stop-color:#09005D"/>
					<stop  offset="1" style="stop-color:#1A0F91"/>
				</linearGradient>
				<path style="fill:url(#SVGID_00000130637995618805235410000015438602096409545649_);" d="M1294.87,2183.01
					c51.444,14.14,7.478,125.711-69.974,99.327c-77.453-26.384-107.888-25.999-119.957-4.731
					c-12.07,21.268-14.663,96.795-40.85,59.464c-28.711-40.927-44.719-123.075-9.518-149.557
					c31.46-23.667,38.802-60.362,76.535-59.089c50.086,1.688,88.819-20.513,111.426-4.502
					C1268.498,2142.309,1257.017,2172.605,1294.87,2183.01z"/>
				
					<linearGradient id="SVGID_00000057112015832147054460000014400451406554074512_" gradientUnits="userSpaceOnUse" x1="760.8742" y1="2835.042" x2="783.7169" y2="2279.865" gradientTransform="matrix(0.9911 -0.1329 0.1329 0.9911 -26.0254 -216.2621)">
					<stop  offset="0" style="stop-color:#FEBBBA"/>
					<stop  offset="1" style="stop-color:#FF928E"/>
				</linearGradient>
				<path style="fill:url(#SVGID_00000057112015832147054460000014400451406554074512_);" d="M1100.176,2294.95
					c0,0-22.209-23.896-25.764,4.905c-3.556,28.801,7.858,65.894,21.229,45.562
					C1109.013,2325.085,1100.176,2294.95,1100.176,2294.95z"/>
			</g>
			<path style="fill:#7D97F4;" d="M1188.635,2838.426c2.152,14.54-5.639,27.738-20.179,29.89
				c-14.54,2.152-28.072-7.892-30.224-22.432c-2.151-14.54,4.504-28.982,19.044-31.134
				C1171.818,2812.599,1186.484,2823.885,1188.635,2838.426z"/>
		</g>
	</g>
</g>
</svg>
